<svg width="450" height="198" viewBox="0 0 450 198" fill="none" xmlns="http://www.w3.org/2000/svg">
<g filter="url(#filter0_d)">
<path d="M25.4297 146.805V149.266C25.4297 152.026 24.8958 154.383 23.8281 156.336C22.7604 158.289 20.8984 160.307 18.2422 162.391C15.013 164.943 12.9948 166.857 12.1875 168.133C11.3802 169.409 10.9766 171.023 10.9766 172.977C10.9766 175.008 11.6797 176.635 13.0859 177.859C14.4922 179.083 16.5885 179.695 19.375 179.695C21.7188 179.695 23.9844 179.331 26.1719 178.602C28.3594 177.898 30.5208 177.052 32.6562 176.062L35.8594 183.055C30.1302 185.919 24.6094 187.352 19.2969 187.352C13.9062 187.352 9.70052 186.102 6.67969 183.602C3.65885 181.128 2.14844 177.69 2.14844 173.289C2.14844 171.388 2.42188 169.695 2.96875 168.211C3.51562 166.727 4.34896 165.307 5.46875 163.953C6.58854 162.599 8.63281 160.75 11.6016 158.406C14.0495 156.427 15.6771 154.812 16.4844 153.562C17.2917 152.286 17.6953 150.62 17.6953 148.562V146.805H25.4297ZM27.0312 134.305C27.0312 136.232 26.5365 137.703 25.5469 138.719C24.5833 139.734 23.138 140.242 21.2109 140.242C19.3359 140.242 17.9036 139.734 16.9141 138.719C15.9245 137.677 15.4297 136.206 15.4297 134.305C15.4297 132.508 15.9245 131.062 16.9141 129.969C17.9036 128.875 19.3359 128.328 21.2109 128.328C23.0859 128.328 24.5182 128.862 25.5078 129.93C26.5234 130.971 27.0312 132.43 27.0312 134.305ZM68.0859 122.078C62.7214 122.078 58.5026 123.979 55.4297 127.781C52.3568 131.583 50.8203 136.831 50.8203 143.523C50.8203 150.529 52.2917 155.828 55.2344 159.422C58.2031 163.016 62.487 164.812 68.0859 164.812C70.5078 164.812 72.8516 164.578 75.1172 164.109C77.3828 163.615 79.7396 162.99 82.1875 162.234V170.242C77.7083 171.935 72.6302 172.781 66.9531 172.781C58.5938 172.781 52.1745 170.255 47.6953 165.203C43.2161 160.125 40.9766 152.872 40.9766 143.445C40.9766 137.508 42.0573 132.312 44.2188 127.859C46.4062 123.406 49.5573 119.995 53.6719 117.625C57.7865 115.255 62.6172 114.07 68.1641 114.07C73.9974 114.07 79.388 115.294 84.3359 117.742L80.9766 125.516C79.0495 124.604 77.0052 123.81 74.8438 123.133C72.7083 122.43 70.4557 122.078 68.0859 122.078ZM123.984 172L122.695 166.336H122.227C120.951 168.341 119.128 169.917 116.758 171.062C114.414 172.208 111.732 172.781 108.711 172.781C103.477 172.781 99.5703 171.479 96.9922 168.875C94.4141 166.271 93.125 162.326 93.125 157.039V128.797H102.383V155.438C102.383 158.745 103.06 161.232 104.414 162.898C105.768 164.539 107.891 165.359 110.781 165.359C114.635 165.359 117.461 164.214 119.258 161.922C121.081 159.604 121.992 155.737 121.992 150.32V128.797H131.211V172H123.984ZM171.328 172L169.492 165.984H169.18C167.096 168.615 165 170.411 162.891 171.375C160.781 172.312 158.073 172.781 154.766 172.781C150.521 172.781 147.201 171.635 144.805 169.344C142.435 167.052 141.25 163.81 141.25 159.617C141.25 155.164 142.904 151.805 146.211 149.539C149.518 147.273 154.557 146.036 161.328 145.828L168.789 145.594V143.289C168.789 140.529 168.138 138.471 166.836 137.117C165.56 135.737 163.568 135.047 160.859 135.047C158.646 135.047 156.523 135.372 154.492 136.023C152.461 136.674 150.508 137.443 148.633 138.328L145.664 131.766C148.008 130.542 150.573 129.617 153.359 128.992C156.146 128.341 158.776 128.016 161.25 128.016C166.745 128.016 170.885 129.214 173.672 131.609C176.484 134.005 177.891 137.768 177.891 142.898V172H171.328ZM157.656 165.75C160.99 165.75 163.659 164.826 165.664 162.977C167.695 161.102 168.711 158.484 168.711 155.125V151.375L163.164 151.609C158.841 151.766 155.69 152.495 153.711 153.797C151.758 155.073 150.781 157.039 150.781 159.695C150.781 161.622 151.354 163.12 152.5 164.188C153.646 165.229 155.365 165.75 157.656 165.75ZM154.844 123.523V122.547C156.328 120.724 157.852 118.693 159.414 116.453C161.003 114.214 162.253 112.299 163.164 110.711H173.828V111.531C172.474 113.12 170.443 115.177 167.734 117.703C165.052 120.203 162.786 122.143 160.938 123.523H154.844ZM199.883 172H190.703V111.219H199.883V172ZM251.836 132.156C251.836 138.12 249.883 142.69 245.977 145.867C242.07 149.044 236.51 150.633 229.297 150.633H223.359V172H214.023V114.891H230.469C237.604 114.891 242.943 116.349 246.484 119.266C250.052 122.182 251.836 126.479 251.836 132.156ZM223.359 142.781H228.32C233.112 142.781 236.628 141.948 238.867 140.281C241.107 138.615 242.227 136.01 242.227 132.469C242.227 129.188 241.224 126.74 239.219 125.125C237.214 123.51 234.089 122.703 229.844 122.703H223.359V142.781ZM271.445 172H262.266V128.797H271.445V172ZM261.719 117.352C261.719 115.711 262.161 114.448 263.047 113.562C263.958 112.677 265.247 112.234 266.914 112.234C268.529 112.234 269.779 112.677 270.664 113.562C271.576 114.448 272.031 115.711 272.031 117.352C272.031 118.914 271.576 120.151 270.664 121.062C269.779 121.948 268.529 122.391 266.914 122.391C265.247 122.391 263.958 121.948 263.047 121.062C262.161 120.151 261.719 118.914 261.719 117.352ZM322.617 172H313.398V145.438C313.398 142.104 312.721 139.617 311.367 137.977C310.039 136.336 307.917 135.516 305 135.516C301.12 135.516 298.281 136.661 296.484 138.953C294.688 141.245 293.789 145.086 293.789 150.477V172H284.609V128.797H291.797L293.086 134.461H293.555C294.857 132.404 296.706 130.815 299.102 129.695C301.497 128.576 304.154 128.016 307.07 128.016C317.435 128.016 322.617 133.289 322.617 143.836V172ZM351.484 165.359C353.724 165.359 355.964 165.008 358.203 164.305V171.219C357.188 171.661 355.872 172.026 354.258 172.312C352.669 172.625 351.016 172.781 349.297 172.781C340.599 172.781 336.25 168.198 336.25 159.031V135.75H330.352V131.688L336.68 128.328L339.805 119.188H345.469V128.797H357.773V135.75H345.469V158.875C345.469 161.089 346.016 162.729 347.109 163.797C348.229 164.839 349.688 165.359 351.484 165.359ZM393.906 172L392.07 165.984H391.758C389.674 168.615 387.578 170.411 385.469 171.375C383.359 172.312 380.651 172.781 377.344 172.781C373.099 172.781 369.779 171.635 367.383 169.344C365.013 167.052 363.828 163.81 363.828 159.617C363.828 155.164 365.482 151.805 368.789 149.539C372.096 147.273 377.135 146.036 383.906 145.828L391.367 145.594V143.289C391.367 140.529 390.716 138.471 389.414 137.117C388.138 135.737 386.146 135.047 383.438 135.047C381.224 135.047 379.102 135.372 377.07 136.023C375.039 136.674 373.086 137.443 371.211 138.328L368.242 131.766C370.586 130.542 373.151 129.617 375.938 128.992C378.724 128.341 381.354 128.016 383.828 128.016C389.323 128.016 393.464 129.214 396.25 131.609C399.062 134.005 400.469 137.768 400.469 142.898V172H393.906ZM380.234 165.75C383.568 165.75 386.237 164.826 388.242 162.977C390.273 161.102 391.289 158.484 391.289 155.125V151.375L385.742 151.609C381.419 151.766 378.268 152.495 376.289 153.797C374.336 155.073 373.359 157.039 373.359 159.695C373.359 161.622 373.932 163.12 375.078 164.188C376.224 165.229 377.943 165.75 380.234 165.75ZM417.773 154.656V152.156C417.773 149.292 418.294 146.909 419.336 145.008C420.378 143.107 422.201 141.141 424.805 139.109C427.904 136.661 429.896 134.76 430.781 133.406C431.693 132.052 432.148 130.438 432.148 128.562C432.148 126.375 431.419 124.695 429.961 123.523C428.503 122.352 426.406 121.766 423.672 121.766C421.198 121.766 418.906 122.117 416.797 122.82C414.688 123.523 412.63 124.37 410.625 125.359L407.344 118.484C412.63 115.542 418.294 114.07 424.336 114.07C429.44 114.07 433.49 115.32 436.484 117.82C439.479 120.32 440.977 123.771 440.977 128.172C440.977 130.125 440.69 131.87 440.117 133.406C439.544 134.917 438.672 136.362 437.5 137.742C436.354 139.122 434.362 140.919 431.523 143.133C429.102 145.034 427.474 146.609 426.641 147.859C425.833 149.109 425.43 150.789 425.43 152.898V154.656H417.773ZM416.172 167.117C416.172 163.185 418.086 161.219 421.914 161.219C423.789 161.219 425.221 161.74 426.211 162.781C427.201 163.797 427.695 165.242 427.695 167.117C427.695 168.966 427.188 170.438 426.172 171.531C425.182 172.599 423.763 173.133 421.914 173.133C420.065 173.133 418.646 172.612 417.656 171.57C416.667 170.503 416.172 169.018 416.172 167.117Z" fill="#FDDB3A"/>
<path d="M25.4297 146.805H26.4297V145.805H25.4297V146.805ZM18.2422 162.391L17.625 161.604L17.6221 161.606L18.2422 162.391ZM12.1875 168.133L11.3424 167.598L12.1875 168.133ZM26.1719 178.602L25.8658 177.649L25.8556 177.653L26.1719 178.602ZM32.6562 176.062L33.5654 175.646L33.1471 174.733L32.2358 175.155L32.6562 176.062ZM35.8594 183.055L36.3066 183.949L37.171 183.517L36.7685 182.638L35.8594 183.055ZM6.67969 183.602L7.31726 182.831L7.31329 182.828L6.67969 183.602ZM11.6016 158.406L12.2212 159.191L12.2303 159.184L11.6016 158.406ZM16.4844 153.562L17.3245 154.105L17.3295 154.097L16.4844 153.562ZM17.6953 146.805V145.805H16.6953V146.805H17.6953ZM25.5469 138.719L24.8306 138.021L24.8214 138.03L25.5469 138.719ZM16.9141 138.719L16.189 139.408L16.1978 139.417L16.9141 138.719ZM25.5078 129.93L24.7744 130.609L24.783 130.619L24.7918 130.628L25.5078 129.93ZM24.4297 146.805V149.266H26.4297V146.805H24.4297ZM24.4297 149.266C24.4297 151.898 23.9209 154.082 22.9507 155.856L24.7056 156.816C25.8708 154.684 26.4297 152.154 26.4297 149.266H24.4297ZM22.9507 155.856C21.9727 157.645 20.2244 159.565 17.625 161.604L18.8593 163.177C21.5725 161.05 23.5481 158.933 24.7056 156.816L22.9507 155.856ZM17.6221 161.606C14.4073 164.147 12.2539 166.158 11.3424 167.598L13.0326 168.667C13.7357 167.556 15.6187 165.739 18.8622 163.175L17.6221 161.606ZM11.3424 167.598C10.4082 169.075 9.97656 170.889 9.97656 172.977H11.9766C11.9766 171.158 12.3522 169.743 13.0326 168.667L11.3424 167.598ZM9.97656 172.977C9.97656 175.268 10.7839 177.181 12.4294 178.614L13.7425 177.105C12.5755 176.089 11.9766 174.748 11.9766 172.977H9.97656ZM12.4294 178.614C14.0893 180.058 16.463 180.695 19.375 180.695V178.695C16.7141 178.695 14.8951 178.108 13.7425 177.105L12.4294 178.614ZM19.375 180.695C21.8244 180.695 24.1969 180.314 26.4881 179.55L25.8556 177.653C23.7718 178.347 21.6131 178.695 19.375 178.695V180.695ZM26.4779 179.554C28.7053 178.838 30.905 177.976 33.0767 176.97L32.2358 175.155C30.1367 176.128 28.0134 176.959 25.8659 177.65L26.4779 179.554ZM31.7471 176.479L34.9502 183.471L36.7685 182.638L33.5654 175.646L31.7471 176.479ZM35.4122 182.16C29.7936 184.97 24.4254 186.352 19.2969 186.352V188.352C24.7934 188.352 30.4668 186.869 36.3066 183.949L35.4122 182.16ZM19.2969 186.352C14.0523 186.352 10.1017 185.136 7.31726 182.831L6.04212 184.372C9.29934 187.068 13.7602 188.352 19.2969 188.352V186.352ZM7.31329 182.828C4.55571 180.57 3.14844 177.433 3.14844 173.289H1.14844C1.14844 177.947 2.762 181.686 6.04609 184.375L7.31329 182.828ZM3.14844 173.289C3.14844 171.483 3.4083 169.911 3.90709 168.557L2.03041 167.865C1.43545 169.48 1.14844 171.293 1.14844 173.289H3.14844ZM3.90709 168.557C4.41085 167.189 5.18364 165.867 6.2394 164.59L4.6981 163.316C3.51427 164.747 2.6204 166.264 2.03041 167.865L3.90709 168.557ZM6.2394 164.59C7.28712 163.323 9.25958 161.529 12.2212 159.191L10.9819 157.621C8.00605 159.971 5.88997 161.875 4.6981 163.316L6.2394 164.59ZM12.2303 159.184C14.6898 157.195 16.4252 155.497 17.3244 154.105L15.6443 153.02C14.929 154.128 13.4091 155.659 10.9728 157.629L12.2303 159.184ZM17.3295 154.097C18.2684 152.613 18.6953 150.743 18.6953 148.562H16.6953C16.6953 150.497 16.315 151.96 15.6393 153.028L17.3295 154.097ZM18.6953 148.562V146.805H16.6953V148.562H18.6953ZM17.6953 147.805H25.4297V145.805H17.6953V147.805ZM26.0312 134.305C26.0312 136.067 25.581 137.251 24.8306 138.021L26.2631 139.417C27.492 138.155 28.0312 136.397 28.0312 134.305H26.0312ZM24.8214 138.03C24.1092 138.781 22.97 139.242 21.2109 139.242V141.242C23.306 141.242 25.0575 140.688 26.2723 139.407L24.8214 138.03ZM21.2109 139.242C19.5152 139.242 18.3767 138.787 17.6303 138.021L16.1978 139.417C17.4306 140.682 19.1567 141.242 21.2109 141.242V139.242ZM17.6391 138.03C16.8771 137.228 16.4297 136.035 16.4297 134.305H14.4297C14.4297 136.377 14.9719 138.126 16.1891 139.407L17.6391 138.03ZM16.4297 134.305C16.4297 132.699 16.8669 131.511 17.6556 130.64L16.1725 129.298C14.9821 130.614 14.4297 132.317 14.4297 134.305H16.4297ZM17.6556 130.64C18.4069 129.809 19.5367 129.328 21.2109 129.328V127.328C19.1352 127.328 17.4004 127.941 16.1725 129.298L17.6556 130.64ZM21.2109 129.328C22.8924 129.328 24.0249 129.801 24.7744 130.609L26.2412 129.25C25.0116 127.923 23.2795 127.328 21.2109 127.328V129.328ZM24.7918 130.628C25.5771 131.433 26.0312 132.612 26.0312 134.305H28.0312C28.0312 132.247 27.4698 130.51 26.2238 129.232L24.7918 130.628ZM55.2344 159.422L54.4607 160.055L54.4634 160.059L55.2344 159.422ZM75.1172 164.109L75.3198 165.089L75.3305 165.086L75.1172 164.109ZM82.1875 162.234H83.1875V160.879L81.8927 161.279L82.1875 162.234ZM82.1875 170.242L82.541 171.178L83.1875 170.933V170.242H82.1875ZM47.6953 165.203L46.9454 165.865L46.9471 165.867L47.6953 165.203ZM44.2188 127.859L43.3212 127.418L43.3191 127.423L44.2188 127.859ZM84.3359 117.742L85.2539 118.139L85.6307 117.267L84.7794 116.846L84.3359 117.742ZM80.9766 125.516L80.549 126.42L81.4841 126.862L81.8945 125.912L80.9766 125.516ZM74.8438 123.133L74.531 124.083L74.5379 124.085L74.5448 124.087L74.8438 123.133ZM68.0859 121.078C62.4528 121.078 57.9348 123.091 54.6519 127.153L56.2074 128.41C59.0704 124.868 62.9899 123.078 68.0859 123.078V121.078ZM54.6519 127.153C51.3901 131.188 49.8203 136.686 49.8203 143.523H51.8203C51.8203 136.976 53.3234 131.978 56.2074 128.41L54.6519 127.153ZM49.8203 143.523C49.8203 150.647 51.3134 156.212 54.4607 160.055L56.0081 158.788C53.2699 155.444 51.8203 150.41 51.8203 143.523H49.8203ZM54.4634 160.059C57.6607 163.929 62.255 165.812 68.0859 165.812V163.812C62.719 163.812 58.7456 162.102 56.0053 158.785L54.4634 160.059ZM68.0859 165.812C70.5727 165.812 72.9845 165.572 75.3198 165.089L74.9146 163.13C72.7186 163.584 70.4429 163.812 68.0859 163.812V165.812ZM75.3305 165.086C77.6263 164.585 80.0103 163.953 82.4823 163.19L81.8927 161.279C79.4689 162.027 77.1394 162.644 74.9038 163.132L75.3305 165.086ZM81.1875 162.234V170.242H83.1875V162.234H81.1875ZM81.834 169.307C77.4866 170.95 72.5314 171.781 66.9531 171.781V173.781C72.7291 173.781 77.93 172.92 82.541 171.178L81.834 169.307ZM66.9531 171.781C58.8062 171.781 52.6891 169.328 48.4436 164.54L46.9471 165.867C51.6599 171.182 58.3813 173.781 66.9531 173.781V171.781ZM48.4453 164.542C44.1808 159.707 41.9766 152.724 41.9766 143.445H39.9766C39.9766 153.021 42.2515 160.543 46.9454 165.865L48.4453 164.542ZM41.9766 143.445C41.9766 137.629 43.0349 132.589 45.1184 128.296L43.3191 127.423C41.0797 132.036 39.9766 137.386 39.9766 143.445H41.9766ZM45.1163 128.3C47.2204 124.017 50.2365 120.758 54.171 118.492L53.1728 116.758C48.8781 119.232 45.5921 122.795 43.3212 127.418L45.1163 128.3ZM54.171 118.492C58.1099 116.223 62.7626 115.07 68.1641 115.07V113.07C62.4717 113.07 57.463 114.287 53.1728 116.758L54.171 118.492ZM68.1641 115.07C73.8525 115.07 79.0903 116.263 83.8925 118.638L84.7794 116.846C79.6858 114.326 74.1423 113.07 68.1641 113.07V115.07ZM83.418 117.345L80.0586 125.119L81.8945 125.912L85.2539 118.139L83.418 117.345ZM81.4041 124.612C79.4329 123.679 77.3454 122.869 75.1427 122.179L74.5448 124.087C76.665 124.751 78.6661 125.529 80.549 126.42L81.4041 124.612ZM75.1565 122.183C72.9148 121.445 70.5562 121.078 68.0859 121.078V123.078C70.3553 123.078 72.5019 123.415 74.531 124.083L75.1565 122.183ZM123.984 172L123.009 172.222L123.186 173H123.984V172ZM122.695 166.336L123.67 166.114L123.493 165.336H122.695V166.336ZM122.227 166.336V165.336H121.678L121.383 165.799L122.227 166.336ZM116.758 171.062L116.323 170.162L116.319 170.164L116.758 171.062ZM93.125 128.797V127.797H92.125V128.797H93.125ZM102.383 128.797H103.383V127.797H102.383V128.797ZM104.414 162.898L103.638 163.529L103.643 163.535L104.414 162.898ZM119.258 161.922L118.472 161.304L118.471 161.305L119.258 161.922ZM121.992 128.797V127.797H120.992V128.797H121.992ZM131.211 128.797H132.211V127.797H131.211V128.797ZM131.211 172V173H132.211V172H131.211ZM124.959 171.778L123.67 166.114L121.72 166.558L123.009 172.222L124.959 171.778ZM122.695 165.336H122.227V167.336H122.695V165.336ZM121.383 165.799C120.217 167.631 118.544 169.088 116.323 170.162L117.193 171.963C119.712 170.745 121.684 169.051 123.07 166.873L121.383 165.799ZM116.319 170.164C114.132 171.233 111.604 171.781 108.711 171.781V173.781C111.86 173.781 114.696 173.183 117.197 171.961L116.319 170.164ZM108.711 171.781C103.628 171.781 100.025 170.517 97.7028 168.171L96.2815 169.579C99.1155 172.441 103.325 173.781 108.711 173.781V171.781ZM97.7028 168.171C95.3786 165.824 94.125 162.179 94.125 157.039H92.125C92.125 162.472 93.4495 166.718 96.2815 169.579L97.7028 168.171ZM94.125 157.039V128.797H92.125V157.039H94.125ZM93.125 129.797H102.383V127.797H93.125V129.797ZM101.383 128.797V155.438H103.383V128.797H101.383ZM101.383 155.438C101.383 158.857 102.079 161.61 103.638 163.529L105.19 162.268C104.041 160.853 103.383 158.633 103.383 155.438H101.383ZM103.643 163.535C105.249 165.481 107.706 166.359 110.781 166.359V164.359C108.076 164.359 106.287 163.597 105.185 162.262L103.643 163.535ZM110.781 166.359C114.835 166.359 118.001 165.146 120.045 162.539L118.471 161.305C116.921 163.281 114.435 164.359 110.781 164.359V166.359ZM120.044 162.54C122.081 159.95 122.992 155.797 122.992 150.32H120.992C120.992 155.677 120.081 159.258 118.472 161.304L120.044 162.54ZM122.992 150.32V128.797H120.992V150.32H122.992ZM121.992 129.797H131.211V127.797H121.992V129.797ZM130.211 128.797V172H132.211V128.797H130.211ZM131.211 171H123.984V173H131.211V171ZM171.328 172L170.372 172.292L170.588 173H171.328V172ZM169.492 165.984L170.449 165.692L170.233 164.984H169.492V165.984ZM169.18 165.984V164.984H168.696L168.396 165.363L169.18 165.984ZM162.891 171.375L163.297 172.289L163.306 172.285L162.891 171.375ZM144.805 169.344L144.11 170.063L144.113 170.066L144.805 169.344ZM146.211 149.539L145.646 148.714L146.211 149.539ZM161.328 145.828L161.359 146.828L161.36 146.828L161.328 145.828ZM168.789 145.594L168.82 146.593L169.789 146.563V145.594H168.789ZM166.836 137.117L166.102 137.796L166.108 137.803L166.115 137.81L166.836 137.117ZM148.633 138.328L147.722 138.74L148.141 139.666L149.06 139.232L148.633 138.328ZM145.664 131.766L145.201 130.879L144.363 131.317L144.753 132.178L145.664 131.766ZM153.359 128.992L153.578 129.968L153.587 129.966L153.359 128.992ZM173.672 131.609L173.02 132.368L173.023 132.371L173.672 131.609ZM177.891 172V173H178.891V172H177.891ZM165.664 162.977L166.342 163.712L166.342 163.711L165.664 162.977ZM168.711 151.375H169.711V150.332L168.669 150.376L168.711 151.375ZM163.164 151.609L163.2 152.609L163.206 152.608L163.164 151.609ZM153.711 153.797L154.258 154.634L154.261 154.632L153.711 153.797ZM152.5 164.188L151.818 164.919L151.827 164.927L152.5 164.188ZM154.844 123.523H153.844V124.523H154.844V123.523ZM154.844 122.547L154.068 121.915L153.844 122.191V122.547H154.844ZM159.414 116.453L158.598 115.875L158.594 115.881L159.414 116.453ZM163.164 110.711V109.711H162.585L162.297 110.213L163.164 110.711ZM173.828 110.711H174.828V109.711H173.828V110.711ZM173.828 111.531L174.589 112.18L174.828 111.9V111.531H173.828ZM167.734 117.703L168.416 118.435L168.416 118.434L167.734 117.703ZM160.938 123.523V124.523H161.27L161.536 124.325L160.938 123.523ZM172.285 171.708L170.449 165.692L168.536 166.276L170.372 172.292L172.285 171.708ZM169.492 164.984H169.18V166.984H169.492V164.984ZM168.396 165.363C166.37 167.921 164.391 169.59 162.475 170.465L163.306 172.285C165.609 171.233 167.823 169.308 169.964 166.605L168.396 165.363ZM162.484 170.461C160.546 171.323 157.989 171.781 154.766 171.781V173.781C158.157 173.781 161.017 173.302 163.297 172.289L162.484 170.461ZM154.766 171.781C150.703 171.781 147.658 170.689 145.496 168.621L144.113 170.066C146.743 172.582 150.338 173.781 154.766 173.781V171.781ZM145.5 168.625C143.374 166.57 142.25 163.617 142.25 159.617H140.25C140.25 164.003 141.495 167.535 144.11 170.063L145.5 168.625ZM142.25 159.617C142.25 155.451 143.774 152.42 146.776 150.364L145.646 148.714C142.033 151.189 140.25 154.877 140.25 159.617H142.25ZM146.776 150.364C149.851 148.258 154.662 147.034 161.359 146.828L161.297 144.829C154.453 145.039 149.186 146.289 145.646 148.714L146.776 150.364ZM161.36 146.828L168.82 146.593L168.758 144.594L161.297 144.829L161.36 146.828ZM169.789 145.594V143.289H167.789V145.594H169.789ZM169.789 143.289C169.789 140.39 169.107 138.036 167.557 136.424L166.115 137.81C167.169 138.907 167.789 140.667 167.789 143.289H169.789ZM167.57 136.438C166.034 134.777 163.722 134.047 160.859 134.047V136.047C163.414 136.047 165.086 136.697 166.102 137.796L167.57 136.438ZM160.859 134.047C158.546 134.047 156.321 134.387 154.187 135.071L154.797 136.976C156.726 136.357 158.745 136.047 160.859 136.047V134.047ZM154.187 135.071C152.115 135.735 150.121 136.519 148.206 137.424L149.06 139.232C150.894 138.366 152.807 137.614 154.797 136.976L154.187 135.071ZM149.544 137.916L146.575 131.353L144.753 132.178L147.722 138.74L149.544 137.916ZM146.127 132.652C148.388 131.471 150.87 130.575 153.578 129.968L153.141 128.016C150.276 128.659 147.628 129.612 145.201 130.879L146.127 132.652ZM153.587 129.966C156.31 129.33 158.863 129.016 161.25 129.016V127.016C158.689 127.016 155.982 127.353 153.132 128.018L153.587 129.966ZM161.25 129.016C166.62 129.016 170.486 130.189 173.02 132.368L174.324 130.851C171.285 128.238 166.869 127.016 161.25 127.016V129.016ZM173.023 132.371C175.536 134.511 176.891 137.942 176.891 142.898H178.891C178.891 137.594 177.433 133.5 174.32 130.848L173.023 132.371ZM176.891 142.898V172H178.891V142.898H176.891ZM177.891 171H171.328V173H177.891V171ZM157.656 166.75C161.182 166.75 164.113 165.767 166.342 163.712L164.986 162.241C163.205 163.884 160.797 164.75 157.656 164.75V166.75ZM166.342 163.711C168.622 161.607 169.711 158.699 169.711 155.125H167.711C167.711 158.27 166.769 160.596 164.986 162.242L166.342 163.711ZM169.711 155.125V151.375H167.711V155.125H169.711ZM168.669 150.376L163.122 150.61L163.206 152.608L168.753 152.374L168.669 150.376ZM163.128 150.61C158.751 150.768 155.374 151.506 153.161 152.961L154.261 154.632C156.006 153.484 158.931 152.763 163.2 152.609L163.128 150.61ZM153.164 152.96C150.885 154.449 149.781 156.756 149.781 159.695H151.781C151.781 157.322 152.63 155.697 154.258 154.634L153.164 152.96ZM149.781 159.695C149.781 161.831 150.424 163.62 151.818 164.919L153.182 163.456C152.284 162.62 151.781 161.414 151.781 159.695H149.781ZM151.827 164.927C153.229 166.201 155.233 166.75 157.656 166.75V164.75C155.496 164.75 154.063 164.257 153.173 163.448L151.827 164.927ZM155.844 123.523V122.547H153.844V123.523H155.844ZM155.619 123.178C157.121 121.333 158.66 119.282 160.234 117.025L158.594 115.881C157.043 118.103 155.535 120.114 154.068 121.915L155.619 123.178ZM160.23 117.032C161.829 114.777 163.098 112.835 164.031 111.209L162.297 110.213C161.407 111.764 160.177 113.65 158.598 115.875L160.23 117.032ZM163.164 111.711H173.828V109.711H163.164V111.711ZM172.828 110.711V111.531H174.828V110.711H172.828ZM173.067 110.883C171.75 112.428 169.751 114.455 167.052 116.972L168.416 118.434C171.135 115.899 173.198 113.811 174.589 112.18L173.067 110.883ZM167.053 116.972C164.383 119.459 162.147 121.372 160.339 122.722L161.536 124.325C163.426 122.914 165.721 120.947 168.416 118.435L167.053 116.972ZM160.938 122.523H154.844V124.523H160.938V122.523ZM199.883 172V173H200.883V172H199.883ZM190.703 172H189.703V173H190.703V172ZM190.703 111.219V110.219H189.703V111.219H190.703ZM199.883 111.219H200.883V110.219H199.883V111.219ZM199.883 171H190.703V173H199.883V171ZM191.703 172V111.219H189.703V172H191.703ZM190.703 112.219H199.883V110.219H190.703V112.219ZM198.883 111.219V172H200.883V111.219H198.883ZM223.359 150.633V149.633H222.359V150.633H223.359ZM223.359 172V173H224.359V172H223.359ZM214.023 172H213.023V173H214.023V172ZM214.023 114.891V113.891H213.023V114.891H214.023ZM246.484 119.266L245.849 120.038L245.851 120.04L246.484 119.266ZM223.359 142.781H222.359V143.781H223.359V142.781ZM223.359 122.703V121.703H222.359V122.703H223.359ZM250.836 132.156C250.836 137.881 248.974 142.14 245.346 145.091L246.608 146.643C250.791 143.24 252.836 138.359 252.836 132.156H250.836ZM245.346 145.091C241.681 148.072 236.378 149.633 229.297 149.633V151.633C236.643 151.633 242.46 150.016 246.608 146.643L245.346 145.091ZM229.297 149.633H223.359V151.633H229.297V149.633ZM222.359 150.633V172H224.359V150.633H222.359ZM223.359 171H214.023V173H223.359V171ZM215.023 172V114.891H213.023V172H215.023ZM214.023 115.891H230.469V113.891H214.023V115.891ZM230.469 115.891C237.494 115.891 242.562 117.331 245.849 120.038L247.12 118.494C243.324 115.367 237.714 113.891 230.469 113.891V115.891ZM245.851 120.04C249.134 122.723 250.836 126.703 250.836 132.156H252.836C252.836 126.255 250.971 121.642 247.117 118.491L245.851 120.04ZM223.359 143.781H228.32V141.781H223.359V143.781ZM228.32 143.781C233.189 143.781 236.967 142.942 239.464 141.083L238.27 139.479C236.288 140.954 233.035 141.781 228.32 141.781V143.781ZM239.464 141.083C242.024 139.178 243.227 136.233 243.227 132.469H241.227C241.227 135.788 240.189 138.051 238.27 139.479L239.464 141.083ZM243.227 132.469C243.227 128.975 242.149 126.201 239.846 124.346L238.592 125.904C240.299 127.278 241.227 129.4 241.227 132.469H243.227ZM239.846 124.346C237.58 122.521 234.18 121.703 229.844 121.703V123.703C233.997 123.703 236.847 124.499 238.592 125.904L239.846 124.346ZM229.844 121.703H223.359V123.703H229.844V121.703ZM222.359 122.703V142.781H224.359V122.703H222.359ZM271.445 172V173H272.445V172H271.445ZM262.266 172H261.266V173H262.266V172ZM262.266 128.797V127.797H261.266V128.797H262.266ZM271.445 128.797H272.445V127.797H271.445V128.797ZM263.047 113.562L262.35 112.845L262.345 112.85L262.34 112.855L263.047 113.562ZM270.664 113.562L269.957 114.27L269.962 114.275L269.967 114.28L270.664 113.562ZM270.664 121.062L269.957 120.355L270.664 121.062ZM263.047 121.062L262.33 121.759L262.34 121.77L262.35 121.78L263.047 121.062ZM271.445 171H262.266V173H271.445V171ZM263.266 172V128.797H261.266V172H263.266ZM262.266 129.797H271.445V127.797H262.266V129.797ZM270.445 128.797V172H272.445V128.797H270.445ZM262.719 117.352C262.719 115.891 263.109 114.915 263.754 114.27L262.34 112.855C261.214 113.981 260.719 115.531 260.719 117.352H262.719ZM263.744 114.28C264.416 113.627 265.424 113.234 266.914 113.234V111.234C265.071 111.234 263.501 111.727 262.35 112.845L263.744 114.28ZM266.914 113.234C268.344 113.234 269.309 113.622 269.957 114.27L271.371 112.855C270.248 111.732 268.714 111.234 266.914 111.234V113.234ZM269.967 114.28C270.633 114.926 271.031 115.899 271.031 117.352H273.031C273.031 115.523 272.518 113.97 271.361 112.845L269.967 114.28ZM271.031 117.352C271.031 118.709 270.642 119.67 269.957 120.355L271.371 121.77C272.509 120.632 273.031 119.119 273.031 117.352H271.031ZM269.957 120.355C269.309 121.003 268.344 121.391 266.914 121.391V123.391C268.714 123.391 270.248 122.893 271.371 121.77L269.957 120.355ZM266.914 121.391C265.424 121.391 264.416 120.998 263.744 120.345L262.35 121.78C263.501 122.898 265.071 123.391 266.914 123.391V121.391ZM263.764 120.366C263.1 119.682 262.719 118.717 262.719 117.352H260.719C260.719 119.111 261.223 120.62 262.33 121.759L263.764 120.366ZM322.617 172V173H323.617V172H322.617ZM313.398 172H312.398V173H313.398V172ZM311.367 137.977L310.59 138.606L310.596 138.613L311.367 137.977ZM293.789 172V173H294.789V172H293.789ZM284.609 172H283.609V173H284.609V172ZM284.609 128.797V127.797H283.609V128.797H284.609ZM291.797 128.797L292.772 128.575L292.595 127.797H291.797V128.797ZM293.086 134.461L292.111 134.683L292.288 135.461H293.086V134.461ZM293.555 134.461V135.461H294.105L294.4 134.996L293.555 134.461ZM299.102 129.695L298.678 128.789L299.102 129.695ZM322.617 171H313.398V173H322.617V171ZM314.398 172V145.438H312.398V172H314.398ZM314.398 145.438C314.398 141.996 313.704 139.237 312.138 137.34L310.596 138.613C311.739 139.998 312.398 142.212 312.398 145.438H314.398ZM312.144 137.347C310.561 135.392 308.097 134.516 305 134.516V136.516C307.737 136.516 309.517 137.28 310.59 138.606L312.144 137.347ZM305 134.516C300.922 134.516 297.743 135.728 295.697 138.336L297.271 139.57C298.82 137.595 301.317 136.516 305 136.516V134.516ZM295.697 138.336C293.687 140.901 292.789 145.028 292.789 150.477H294.789C294.789 145.143 295.688 141.589 297.271 139.57L295.697 138.336ZM292.789 150.477V172H294.789V150.477H292.789ZM293.789 171H284.609V173H293.789V171ZM285.609 172V128.797H283.609V172H285.609ZM284.609 129.797H291.797V127.797H284.609V129.797ZM290.822 129.019L292.111 134.683L294.061 134.239L292.772 128.575L290.822 129.019ZM293.086 135.461H293.555V133.461H293.086V135.461ZM294.4 134.996C295.591 133.114 297.287 131.647 299.525 130.601L298.678 128.789C296.125 129.983 294.123 131.694 292.71 133.926L294.4 134.996ZM299.525 130.601C301.775 129.55 304.285 129.016 307.07 129.016V127.016C304.023 127.016 301.22 127.602 298.678 128.789L299.525 130.601ZM307.07 129.016C312.094 129.016 315.679 130.292 318.017 132.672C320.359 135.054 321.617 138.712 321.617 143.836H323.617C323.617 138.413 322.285 134.161 319.444 131.27C316.6 128.376 312.411 127.016 307.07 127.016V129.016ZM321.617 143.836V172H323.617V143.836H321.617ZM358.203 164.305H359.203V162.943L357.904 163.351L358.203 164.305ZM358.203 171.219L358.603 172.135L359.203 171.874V171.219H358.203ZM354.258 172.312L354.083 171.328L354.074 171.33L354.065 171.331L354.258 172.312ZM336.25 135.75H337.25V134.75H336.25V135.75ZM330.352 135.75H329.352V136.75H330.352V135.75ZM330.352 131.688L329.883 130.804L329.352 131.086V131.688H330.352ZM336.68 128.328L337.149 129.211L337.498 129.026L337.626 128.652L336.68 128.328ZM339.805 119.188V118.188H339.09L338.858 118.864L339.805 119.188ZM345.469 119.188H346.469V118.188H345.469V119.188ZM345.469 128.797H344.469V129.797H345.469V128.797ZM357.773 128.797H358.773V127.797H357.773V128.797ZM357.773 135.75V136.75H358.773V135.75H357.773ZM345.469 135.75V134.75H344.469V135.75H345.469ZM347.109 163.797L346.411 164.512L346.419 164.521L346.428 164.529L347.109 163.797ZM351.484 166.359C353.83 166.359 356.171 165.991 358.503 165.259L357.904 163.351C355.756 164.025 353.618 164.359 351.484 164.359V166.359ZM357.203 164.305V171.219H359.203V164.305H357.203ZM357.804 170.302C356.885 170.702 355.654 171.049 354.083 171.328L354.433 173.297C356.091 173.003 357.49 172.621 358.603 172.135L357.804 170.302ZM354.065 171.331C352.544 171.631 350.955 171.781 349.297 171.781V173.781C351.076 173.781 352.795 173.619 354.451 173.294L354.065 171.331ZM349.297 171.781C345.116 171.781 342.16 170.682 340.237 168.655C338.305 166.619 337.25 163.473 337.25 159.031H335.25C335.25 163.756 336.37 167.485 338.786 170.032C341.212 172.589 344.78 173.781 349.297 173.781V171.781ZM337.25 159.031V135.75H335.25V159.031H337.25ZM336.25 134.75H330.352V136.75H336.25V134.75ZM331.352 135.75V131.688H329.352V135.75H331.352ZM330.82 132.571L337.149 129.211L336.211 127.445L329.883 130.804L330.82 132.571ZM337.626 128.652L340.751 119.511L338.858 118.864L335.733 128.005L337.626 128.652ZM339.805 120.188H345.469V118.188H339.805V120.188ZM344.469 119.188V128.797H346.469V119.188H344.469ZM345.469 129.797H357.773V127.797H345.469V129.797ZM356.773 128.797V135.75H358.773V128.797H356.773ZM357.773 134.75H345.469V136.75H357.773V134.75ZM344.469 135.75V158.875H346.469V135.75H344.469ZM344.469 158.875C344.469 161.237 345.052 163.186 346.411 164.512L347.808 163.081C346.979 162.272 346.469 160.941 346.469 158.875H344.469ZM346.428 164.529C347.765 165.772 349.482 166.359 351.484 166.359V164.359C349.893 164.359 348.693 163.905 347.79 163.065L346.428 164.529ZM393.906 172L392.95 172.292L393.166 173H393.906V172ZM392.07 165.984L393.027 165.692L392.811 164.984H392.07V165.984ZM391.758 165.984V164.984H391.274L390.974 165.363L391.758 165.984ZM385.469 171.375L385.875 172.289L385.884 172.285L385.469 171.375ZM367.383 169.344L366.688 170.063L366.692 170.066L367.383 169.344ZM368.789 149.539L368.224 148.714L368.789 149.539ZM383.906 145.828L383.937 146.828L383.938 146.828L383.906 145.828ZM391.367 145.594L391.399 146.593L392.367 146.563V145.594H391.367ZM389.414 137.117L388.68 137.796L388.686 137.803L388.693 137.81L389.414 137.117ZM371.211 138.328L370.3 138.74L370.719 139.666L371.638 139.232L371.211 138.328ZM368.242 131.766L367.779 130.879L366.942 131.317L367.331 132.178L368.242 131.766ZM375.938 128.992L376.156 129.968L376.165 129.966L375.938 128.992ZM396.25 131.609L395.598 132.368L395.602 132.371L396.25 131.609ZM400.469 172V173H401.469V172H400.469ZM388.242 162.977L388.92 163.712L388.92 163.711L388.242 162.977ZM391.289 151.375H392.289V150.332L391.247 150.376L391.289 151.375ZM385.742 151.609L385.778 152.609L385.784 152.608L385.742 151.609ZM376.289 153.797L376.836 154.634L376.839 154.632L376.289 153.797ZM375.078 164.188L374.396 164.919L374.405 164.927L375.078 164.188ZM394.863 171.708L393.027 165.692L391.114 166.276L392.95 172.292L394.863 171.708ZM392.07 164.984H391.758V166.984H392.07V164.984ZM390.974 165.363C388.948 167.921 386.969 169.59 385.053 170.465L385.884 172.285C388.187 171.233 390.401 169.308 392.542 166.605L390.974 165.363ZM385.063 170.461C383.124 171.323 380.567 171.781 377.344 171.781V173.781C380.735 173.781 383.595 173.302 385.875 172.289L385.063 170.461ZM377.344 171.781C373.281 171.781 370.236 170.689 368.074 168.621L366.692 170.066C369.322 172.582 372.917 173.781 377.344 173.781V171.781ZM368.078 168.625C365.953 166.57 364.828 163.617 364.828 159.617H362.828C362.828 164.003 364.073 167.535 366.688 170.063L368.078 168.625ZM364.828 159.617C364.828 155.451 366.353 152.42 369.354 150.364L368.224 148.714C364.611 151.189 362.828 154.877 362.828 159.617H364.828ZM369.354 150.364C372.429 148.258 377.24 147.034 383.937 146.828L383.875 144.829C377.031 145.039 371.764 146.289 368.224 148.714L369.354 150.364ZM383.938 146.828L391.399 146.593L391.336 144.594L383.875 144.829L383.938 146.828ZM392.367 145.594V143.289H390.367V145.594H392.367ZM392.367 143.289C392.367 140.39 391.685 138.036 390.135 136.424L388.693 137.81C389.747 138.907 390.367 140.667 390.367 143.289H392.367ZM390.148 136.438C388.612 134.777 386.3 134.047 383.438 134.047V136.047C385.992 136.047 387.664 136.697 388.68 137.796L390.148 136.438ZM383.438 134.047C381.124 134.047 378.899 134.387 376.765 135.071L377.376 136.976C379.304 136.357 381.324 136.047 383.438 136.047V134.047ZM376.765 135.071C374.693 135.735 372.7 136.519 370.784 137.424L371.638 139.232C373.472 138.366 375.385 137.614 377.376 136.976L376.765 135.071ZM372.122 137.916L369.153 131.353L367.331 132.178L370.3 138.74L372.122 137.916ZM368.705 132.652C370.966 131.471 373.448 130.575 376.156 129.968L375.719 128.016C372.854 128.659 370.206 129.612 367.779 130.879L368.705 132.652ZM376.165 129.966C378.888 129.33 381.442 129.016 383.828 129.016V127.016C381.267 127.016 378.56 127.353 375.71 128.018L376.165 129.966ZM383.828 129.016C389.198 129.016 393.064 130.189 395.598 132.368L396.902 130.851C393.863 128.238 389.447 127.016 383.828 127.016V129.016ZM395.602 132.371C398.114 134.511 399.469 137.942 399.469 142.898H401.469C401.469 137.594 400.011 133.5 396.898 130.848L395.602 132.371ZM399.469 142.898V172H401.469V142.898H399.469ZM400.469 171H393.906V173H400.469V171ZM380.234 166.75C383.76 166.75 386.691 165.767 388.92 163.712L387.564 162.241C385.783 163.884 383.375 164.75 380.234 164.75V166.75ZM388.92 163.711C391.2 161.607 392.289 158.699 392.289 155.125H390.289C390.289 158.27 389.347 160.596 387.564 162.242L388.92 163.711ZM392.289 155.125V151.375H390.289V155.125H392.289ZM391.247 150.376L385.7 150.61L385.784 152.608L391.331 152.374L391.247 150.376ZM385.706 150.61C381.329 150.768 377.952 151.506 375.739 152.961L376.839 154.632C378.584 153.484 381.509 152.763 385.778 152.609L385.706 150.61ZM375.742 152.96C373.463 154.449 372.359 156.756 372.359 159.695H374.359C374.359 157.322 375.209 155.697 376.836 154.634L375.742 152.96ZM372.359 159.695C372.359 161.831 373.002 163.62 374.396 164.919L375.76 163.456C374.862 162.62 374.359 161.414 374.359 159.695H372.359ZM374.405 164.927C375.807 166.201 377.811 166.75 380.234 166.75V164.75C378.075 164.75 376.641 164.257 375.751 163.448L374.405 164.927ZM417.773 154.656H416.773V155.656H417.773V154.656ZM424.805 139.109L425.42 139.898L425.425 139.894L424.805 139.109ZM430.781 133.406L429.952 132.848L429.944 132.859L430.781 133.406ZM410.625 125.359L409.723 125.79L410.159 126.705L411.068 126.256L410.625 125.359ZM407.344 118.484L406.857 117.611L406.037 118.067L406.441 118.915L407.344 118.484ZM440.117 133.406L441.052 133.761L441.054 133.756L440.117 133.406ZM437.5 137.742L436.738 137.095L436.731 137.103L437.5 137.742ZM431.523 143.133L430.908 142.344L430.906 142.346L431.523 143.133ZM426.641 147.859L425.809 147.305L425.805 147.311L425.801 147.317L426.641 147.859ZM425.43 154.656V155.656H426.43V154.656H425.43ZM426.211 162.781L425.486 163.47L425.495 163.479L426.211 162.781ZM426.172 171.531L425.439 170.851L425.438 170.851L426.172 171.531ZM417.656 171.57L416.923 172.25L416.931 172.259L417.656 171.57ZM418.773 154.656V152.156H416.773V154.656H418.773ZM418.773 152.156C418.773 149.407 419.274 147.202 420.213 145.488L418.459 144.527C417.315 146.615 416.773 149.176 416.773 152.156H418.773ZM420.213 145.488C421.164 143.753 422.872 141.885 425.42 139.898L424.19 138.321C421.529 140.396 419.591 142.461 418.459 144.527L420.213 145.488ZM425.425 139.894C428.521 137.448 430.634 135.459 431.618 133.953L429.944 132.859C429.158 134.062 427.286 135.875 424.185 138.325L425.425 139.894ZM431.611 133.965C432.649 132.422 433.148 130.606 433.148 128.562H431.148C431.148 130.269 430.736 131.682 429.952 132.848L431.611 133.965ZM433.148 128.562C433.148 126.129 432.323 124.139 430.587 122.744L429.335 124.303C430.515 125.252 431.148 126.621 431.148 128.562H433.148ZM430.587 122.744C428.886 121.376 426.532 120.766 423.672 120.766V122.766C426.28 122.766 428.12 123.327 429.335 124.303L430.587 122.744ZM423.672 120.766C421.102 120.766 418.703 121.131 416.481 121.872L417.113 123.769C419.11 123.103 421.293 122.766 423.672 122.766V120.766ZM416.481 121.872C414.328 122.589 412.228 123.453 410.182 124.463L411.068 126.256C413.032 125.287 415.047 124.458 417.113 123.769L416.481 121.872ZM411.527 124.929L408.246 118.054L406.441 118.915L409.723 125.79L411.527 124.929ZM407.83 119.358C412.968 116.498 418.465 115.07 424.336 115.07V113.07C418.124 113.07 412.292 114.585 406.857 117.611L407.83 119.358ZM424.336 115.07C429.279 115.07 433.078 116.279 435.844 118.588L437.125 117.053C433.901 114.362 429.601 113.07 424.336 113.07V115.07ZM435.844 118.588C438.58 120.872 439.977 124.025 439.977 128.172H441.977C441.977 123.517 440.378 119.768 437.125 117.053L435.844 118.588ZM439.977 128.172C439.977 130.028 439.704 131.651 439.18 133.057L441.054 133.756C441.676 132.088 441.977 130.222 441.977 128.172H439.977ZM439.182 133.052C438.654 134.443 437.845 135.791 436.738 137.095L438.262 138.389C439.499 136.933 440.434 135.39 441.052 133.761L439.182 133.052ZM436.731 137.103C435.657 138.397 433.735 140.14 430.908 142.344L432.138 143.921C434.989 141.698 437.052 139.848 438.269 138.381L436.731 137.103ZM430.906 142.346C428.469 144.259 426.735 145.915 425.809 147.305L427.473 148.414C428.213 147.303 429.734 145.809 432.141 143.919L430.906 142.346ZM425.801 147.317C424.854 148.783 424.43 150.673 424.43 152.898H426.43C426.43 150.905 426.813 149.436 427.481 148.402L425.801 147.317ZM424.43 152.898V154.656H426.43V152.898H424.43ZM425.43 153.656H417.773V155.656H425.43V153.656ZM417.172 167.117C417.172 165.299 417.615 164.119 418.324 163.391C419.028 162.667 420.161 162.219 421.914 162.219V160.219C419.839 160.219 418.101 160.753 416.891 161.996C415.686 163.233 415.172 165.004 415.172 167.117H417.172ZM421.914 162.219C423.603 162.219 424.738 162.683 425.486 163.47L426.936 162.093C425.705 160.796 423.975 160.219 421.914 160.219V162.219ZM425.495 163.479C426.25 164.254 426.695 165.416 426.695 167.117H428.695C428.695 165.068 428.151 163.34 426.927 162.083L425.495 163.479ZM426.695 167.117C426.695 168.777 426.244 169.984 425.439 170.851L426.905 172.212C428.131 170.891 428.695 169.155 428.695 167.117H426.695ZM425.438 170.851C424.686 171.663 423.565 172.133 421.914 172.133V174.133C423.961 174.133 425.678 173.535 426.905 172.211L425.438 170.851ZM421.914 172.133C420.256 172.133 419.132 171.671 418.381 170.882L416.931 172.259C418.16 173.552 419.874 174.133 421.914 174.133V172.133ZM418.39 170.891C417.619 170.059 417.172 168.845 417.172 167.117H415.172C415.172 169.191 415.715 170.947 416.923 172.25L418.39 170.891Z" fill="black"/>
<path d="M242.258 21.0717L194.698 21.1641V77.6016C194.698 81.312 197.742 84.3203 201.495 84.3203H235.479C239.233 84.3203 242.276 81.312 242.276 77.6016V21.1053L242.258 21.0717Z" fill="#95E7EE"/>
<path d="M242.276 77.6016V21.1053L242.258 21.0717L194.698 21.1641V77.6016H242.276Z" fill="#FDDB3A"/>
<path d="M259.269 35.4414V64.1641C259.269 67.8745 256.225 70.8828 252.472 70.8828H242.276V64.1641H252.472V35.4414H242.276V28.7227H252.472C256.225 28.7227 259.269 31.731 259.269 35.4414Z" fill="#95E7EE"/>
<path d="M245.496 13.7247C246.789 19.3975 240.87 23.9362 235.31 21.1405V35.3221C235.31 37.1765 233.789 38.6815 231.911 38.6815C230.033 38.6815 228.513 37.1765 228.513 35.3221V28.6034C228.513 26.2838 228.598 22.0039 221.036 22.0039C220.423 22.0039 219.836 22.2491 219.412 22.6842C217.867 24.2631 215.702 25.244 213.305 25.244C210.985 25.244 208.883 24.3252 207.351 22.8354C206.802 22.3029 206.063 22.0039 205.257 22.0039C204.61 22.0039 204.018 22.3684 203.735 22.9429C202.093 26.2653 198.683 28.5698 194.698 28.6034V42.0039C194.613 43.8953 193.092 45.4003 191.215 45.4003C189.337 45.4003 187.731 43.8953 187.731 42.0409C187.731 39.8427 187.731 24.2159 187.731 21.8846C187.731 13.8944 194.87 7.5334 203.154 8.5832C205.473 4.49652 209.911 1.67969 215.004 1.67969C219.031 1.67969 222.649 3.45848 225.138 6.20981C226.164 5.56816 227.381 5.20703 228.683 5.20703C231.648 5.20703 234.169 7.08324 235.097 9.7002C236.557 8.7327 238.417 8.30941 240.38 8.72598C242.874 9.2534 244.937 11.2657 245.496 13.7247Z" fill="#EEEEEE"/>
<path d="M228.598 75.8026C227.66 75.8026 226.898 76.5551 226.898 77.4823C226.898 78.4095 227.66 79.162 228.598 79.162C229.536 79.162 230.297 78.4095 230.297 77.4823C230.297 76.5551 229.536 75.8026 228.598 75.8026Z" fill="black"/>
<path d="M204.724 33.6425C203.785 33.6425 203.024 34.3945 203.024 35.3221V67.4042C203.024 68.3319 203.785 69.0839 204.724 69.0839C205.662 69.0839 206.423 68.3319 206.423 67.4042V35.3221C206.423 34.3945 205.662 33.6425 204.724 33.6425Z" fill="black"/>
<path d="M218.317 33.6425C217.379 33.6425 216.618 34.3945 216.618 35.3221V67.4042C216.618 68.3319 217.379 69.0839 218.317 69.0839C219.256 69.0839 220.017 68.3319 220.017 67.4042V35.3221C220.017 34.3945 219.256 33.6425 218.317 33.6425Z" fill="black"/>
<path d="M201.495 86H235.479C240.164 86 243.976 82.2325 243.976 77.6016V72.5625H252.472C257.156 72.5625 260.968 68.795 260.968 64.1641V35.4414C260.968 30.8105 257.156 27.043 252.472 27.043H243.976V21.9604C246.639 19.9866 247.905 16.6504 247.154 13.3564C246.452 10.2674 243.873 7.74655 240.737 7.08358C239.07 6.73 237.391 6.85514 235.861 7.4301C234.327 5.0394 231.633 3.52734 228.683 3.52734C227.571 3.52734 226.484 3.7405 225.479 4.15068C222.635 1.49862 218.885 0 215.004 0C209.87 0 205.081 2.58554 202.255 6.816C193.373 6.33024 186.032 13.2957 186.032 21.8846V42.0409C186.032 44.8194 188.357 47.08 191.215 47.08C191.842 47.08 192.442 46.9673 192.999 46.762V77.6016C192.999 82.2325 196.81 86 201.495 86ZM235.479 82.6406H201.495C199.28 82.6406 197.391 81.2362 196.69 79.2812H221.802C222.741 79.2812 223.502 78.5293 223.502 77.6016C223.502 76.6739 222.741 75.9219 221.802 75.9219H196.397V42.0039V30.1514C200.214 29.5818 203.52 27.2056 205.257 23.6838C205.612 23.6838 205.924 23.805 206.159 24.0333C208.077 25.8974 210.615 26.9239 213.305 26.9239C216.093 26.9239 218.695 25.8329 220.634 23.8509C220.738 23.7447 220.885 23.6838 221.036 23.6838C223.681 23.6838 225.412 24.2423 226.181 25.3435C226.814 26.2513 226.814 27.5128 226.813 28.5265V35.3223C226.813 37.512 228.234 39.3791 230.212 40.0725V67.4043C230.212 68.332 230.973 69.084 231.911 69.084C232.85 69.084 233.61 68.332 233.61 67.4043V40.0723C235.588 39.3789 237.009 37.512 237.009 35.3221V23.4864C238.199 23.7212 239.414 23.7227 240.577 23.4876V75.9219H235.393C234.454 75.9219 233.694 76.6739 233.694 77.6016C233.694 78.5293 234.454 79.2645 235.393 79.2645H240.285C239.583 81.2194 237.695 82.6406 235.479 82.6406ZM243.976 37.1211H250.772V62.4844H243.976V37.1211ZM252.472 30.4023C255.283 30.4023 257.569 32.6629 257.569 35.4414V64.1641C257.569 66.9426 255.283 69.2031 252.472 69.2031H243.976V65.8437H252.472C253.41 65.8437 254.171 65.0918 254.171 64.1641V35.4414C254.171 34.5137 253.41 33.7617 252.472 33.7617H243.976V30.4023H252.472ZM191.215 43.7206C190.248 43.7206 189.431 42.9513 189.431 42.0409V21.8846C189.431 15.4017 194.797 10.1517 201.394 10.1517C201.907 10.1517 202.422 10.1839 202.937 10.2493C203.625 10.3365 204.296 10.0022 204.635 9.40507C206.752 5.676 210.725 3.35937 215.004 3.35937C218.356 3.35937 221.589 4.80643 223.872 7.32965C224.425 7.94139 225.344 8.06838 226.046 7.62948C226.824 7.14354 227.735 6.88672 228.683 6.88672C230.846 6.88672 232.779 8.24071 233.494 10.2557C233.667 10.7461 234.061 11.1296 234.56 11.2939C235.059 11.4582 235.607 11.3849 236.043 11.0953C237.202 10.3277 238.615 10.0696 240.025 10.3685C241.86 10.7566 243.428 12.2881 243.839 14.0939C244.806 18.3375 240.405 21.8185 236.08 19.6434C235.553 19.3786 234.925 19.4032 234.421 19.7088C233.917 20.0141 233.61 20.5564 233.61 21.1405V35.3221C233.61 36.2483 232.848 37.0018 231.911 37.0018C230.974 37.0018 230.212 36.2483 230.212 35.3221V28.5275C230.212 27.2046 230.213 25.2052 228.978 23.4355C227.537 21.371 224.865 20.3242 221.036 20.3242C219.967 20.3242 218.93 20.7591 218.19 21.5166C216.898 22.8372 215.163 23.5643 213.305 23.5643C211.512 23.5643 209.82 22.8802 208.541 21.6366C207.669 20.7902 206.503 20.3242 205.257 20.3242C203.969 20.3242 202.772 21.0628 202.208 22.2058C200.783 25.0888 197.9 26.8967 194.684 26.9239C193.751 26.9318 192.999 27.6814 192.999 28.6036V41.9613C192.939 42.9504 192.161 43.7206 191.215 43.7206Z" fill="black"/>
</g>
<defs>
<filter id="filter0_d" x="1.14844" y="0" width="448.828" height="197.352" filterUnits="userSpaceOnUse" color-interpolation-filters="sRGB">
<feFlood flood-opacity="0" result="BackgroundImageFix"/>
<feColorMatrix in="SourceAlpha" type="matrix" values="0 0 0 0 0 0 0 0 0 0 0 0 0 0 0 0 0 0 127 0"/>
<feOffset dx="4" dy="5"/>
<feGaussianBlur stdDeviation="2"/>
<feColorMatrix type="matrix" values="0 0 0 0 0 0 0 0 0 0 0 0 0 0 0 0 0 0 0.25 0"/>
<feBlend mode="normal" in2="BackgroundImageFix" result="effect1_dropShadow"/>
<feBlend mode="normal" in="SourceGraphic" in2="effect1_dropShadow" result="shape"/>
</filter>
</defs>
</svg>
