<svg width="534" height="103" viewBox="0 0 534 103" fill="none" xmlns="http://www.w3.org/2000/svg">
<path d="M112.43 60.8047V63.2656C112.43 66.026 111.896 68.3828 110.828 70.3359C109.76 72.2891 107.898 74.3073 105.242 76.3906C102.013 78.9427 99.9948 80.8568 99.1875 82.1328C98.3802 83.4089 97.9766 85.0234 97.9766 86.9766C97.9766 89.0078 98.6797 90.6354 100.086 91.8594C101.492 93.0833 103.589 93.6953 106.375 93.6953C108.719 93.6953 110.984 93.3307 113.172 92.6016C115.359 91.8984 117.521 91.0521 119.656 90.0625L122.859 97.0547C117.13 99.9193 111.609 101.352 106.297 101.352C100.906 101.352 96.7005 100.102 93.6797 97.6016C90.6589 95.1276 89.1484 91.6901 89.1484 87.2891C89.1484 85.388 89.4219 83.6953 89.9688 82.2109C90.5156 80.7266 91.349 79.3073 92.4688 77.9531C93.5885 76.599 95.6328 74.75 98.6016 72.4062C101.049 70.4271 102.677 68.8125 103.484 67.5625C104.292 66.2865 104.695 64.6198 104.695 62.5625V60.8047H112.43ZM114.031 48.3047C114.031 50.2318 113.536 51.7031 112.547 52.7188C111.583 53.7344 110.138 54.2422 108.211 54.2422C106.336 54.2422 104.904 53.7344 103.914 52.7188C102.924 51.6771 102.43 50.2057 102.43 48.3047C102.43 46.5078 102.924 45.0625 103.914 43.9688C104.904 42.875 106.336 42.3281 108.211 42.3281C110.086 42.3281 111.518 42.862 112.508 43.9297C113.523 44.9714 114.031 46.4297 114.031 48.3047ZM155.086 36.0781C149.721 36.0781 145.503 37.9792 142.43 41.7812C139.357 45.5833 137.82 50.8307 137.82 57.5234C137.82 64.5286 139.292 69.8281 142.234 73.4219C145.203 77.0156 149.487 78.8125 155.086 78.8125C157.508 78.8125 159.852 78.5781 162.117 78.1094C164.383 77.6146 166.74 76.9896 169.188 76.2344V84.2422C164.708 85.9349 159.63 86.7812 153.953 86.7812C145.594 86.7812 139.174 84.2552 134.695 79.2031C130.216 74.125 127.977 66.8724 127.977 57.4453C127.977 51.5078 129.057 46.3125 131.219 41.8594C133.406 37.4062 136.557 33.9948 140.672 31.625C144.786 29.2552 149.617 28.0703 155.164 28.0703C160.997 28.0703 166.388 29.2943 171.336 31.7422L167.977 39.5156C166.049 38.6042 164.005 37.8099 161.844 37.1328C159.708 36.4297 157.456 36.0781 155.086 36.0781ZM210.984 86L209.695 80.3359H209.227C207.951 82.3411 206.128 83.9167 203.758 85.0625C201.414 86.2083 198.732 86.7812 195.711 86.7812C190.477 86.7812 186.57 85.4792 183.992 82.875C181.414 80.2708 180.125 76.3255 180.125 71.0391V42.7969H189.383V69.4375C189.383 72.7448 190.06 75.2318 191.414 76.8984C192.768 78.5391 194.891 79.3594 197.781 79.3594C201.635 79.3594 204.461 78.2135 206.258 75.9219C208.081 73.6042 208.992 69.737 208.992 64.3203V42.7969H218.211V86H210.984ZM258.328 86L256.492 79.9844H256.18C254.096 82.6146 252 84.4115 249.891 85.375C247.781 86.3125 245.073 86.7812 241.766 86.7812C237.521 86.7812 234.201 85.6354 231.805 83.3438C229.435 81.0521 228.25 77.8099 228.25 73.6172C228.25 69.1641 229.904 65.8047 233.211 63.5391C236.518 61.2734 241.557 60.0365 248.328 59.8281L255.789 59.5938V57.2891C255.789 54.5286 255.138 52.4714 253.836 51.1172C252.56 49.737 250.568 49.0469 247.859 49.0469C245.646 49.0469 243.523 49.3724 241.492 50.0234C239.461 50.6745 237.508 51.4427 235.633 52.3281L232.664 45.7656C235.008 44.5417 237.573 43.6172 240.359 42.9922C243.146 42.3411 245.776 42.0156 248.25 42.0156C253.745 42.0156 257.885 43.2135 260.672 45.6094C263.484 48.0052 264.891 51.7682 264.891 56.8984V86H258.328ZM244.656 79.75C247.99 79.75 250.659 78.8255 252.664 76.9766C254.695 75.1016 255.711 72.4844 255.711 69.125V65.375L250.164 65.6094C245.841 65.7656 242.69 66.4948 240.711 67.7969C238.758 69.0729 237.781 71.0391 237.781 73.6953C237.781 75.6224 238.354 77.1198 239.5 78.1875C240.646 79.2292 242.365 79.75 244.656 79.75ZM241.844 37.5234V36.5469C243.328 34.724 244.852 32.6927 246.414 30.4531C248.003 28.2135 249.253 26.2995 250.164 24.7109H260.828V25.5312C259.474 27.1198 257.443 29.1771 254.734 31.7031C252.052 34.2031 249.786 36.1432 247.938 37.5234H241.844ZM286.883 86H277.703V25.2188H286.883V86ZM338.836 46.1562C338.836 52.1198 336.883 56.6901 332.977 59.8672C329.07 63.0443 323.51 64.6328 316.297 64.6328H310.359V86H301.023V28.8906H317.469C324.604 28.8906 329.943 30.349 333.484 33.2656C337.052 36.1823 338.836 40.4792 338.836 46.1562ZM310.359 56.7812H315.32C320.112 56.7812 323.628 55.9479 325.867 54.2812C328.107 52.6146 329.227 50.0104 329.227 46.4688C329.227 43.1875 328.224 40.7396 326.219 39.125C324.214 37.5104 321.089 36.7031 316.844 36.7031H310.359V56.7812ZM358.445 86H349.266V42.7969H358.445V86ZM348.719 31.3516C348.719 29.7109 349.161 28.4479 350.047 27.5625C350.958 26.6771 352.247 26.2344 353.914 26.2344C355.529 26.2344 356.779 26.6771 357.664 27.5625C358.576 28.4479 359.031 29.7109 359.031 31.3516C359.031 32.9141 358.576 34.151 357.664 35.0625C356.779 35.9479 355.529 36.3906 353.914 36.3906C352.247 36.3906 350.958 35.9479 350.047 35.0625C349.161 34.151 348.719 32.9141 348.719 31.3516ZM409.617 86H400.398V59.4375C400.398 56.1042 399.721 53.6172 398.367 51.9766C397.039 50.3359 394.917 49.5156 392 49.5156C388.12 49.5156 385.281 50.6615 383.484 52.9531C381.688 55.2448 380.789 59.0859 380.789 64.4766V86H371.609V42.7969H378.797L380.086 48.4609H380.555C381.857 46.4036 383.706 44.8151 386.102 43.6953C388.497 42.5755 391.154 42.0156 394.07 42.0156C404.435 42.0156 409.617 47.2891 409.617 57.8359V86ZM438.484 79.3594C440.724 79.3594 442.964 79.0078 445.203 78.3047V85.2188C444.188 85.6615 442.872 86.026 441.258 86.3125C439.669 86.625 438.016 86.7812 436.297 86.7812C427.599 86.7812 423.25 82.1979 423.25 73.0312V49.75H417.352V45.6875L423.68 42.3281L426.805 33.1875H432.469V42.7969H444.773V49.75H432.469V72.875C432.469 75.0885 433.016 76.7292 434.109 77.7969C435.229 78.8385 436.688 79.3594 438.484 79.3594ZM480.906 86L479.07 79.9844H478.758C476.674 82.6146 474.578 84.4115 472.469 85.375C470.359 86.3125 467.651 86.7812 464.344 86.7812C460.099 86.7812 456.779 85.6354 454.383 83.3438C452.013 81.0521 450.828 77.8099 450.828 73.6172C450.828 69.1641 452.482 65.8047 455.789 63.5391C459.096 61.2734 464.135 60.0365 470.906 59.8281L478.367 59.5938V57.2891C478.367 54.5286 477.716 52.4714 476.414 51.1172C475.138 49.737 473.146 49.0469 470.438 49.0469C468.224 49.0469 466.102 49.3724 464.07 50.0234C462.039 50.6745 460.086 51.4427 458.211 52.3281L455.242 45.7656C457.586 44.5417 460.151 43.6172 462.938 42.9922C465.724 42.3411 468.354 42.0156 470.828 42.0156C476.323 42.0156 480.464 43.2135 483.25 45.6094C486.062 48.0052 487.469 51.7682 487.469 56.8984V86H480.906ZM467.234 79.75C470.568 79.75 473.237 78.8255 475.242 76.9766C477.273 75.1016 478.289 72.4844 478.289 69.125V65.375L472.742 65.6094C468.419 65.7656 465.268 66.4948 463.289 67.7969C461.336 69.0729 460.359 71.0391 460.359 73.6953C460.359 75.6224 460.932 77.1198 462.078 78.1875C463.224 79.2292 464.943 79.75 467.234 79.75ZM504.773 68.6562V66.1562C504.773 63.2917 505.294 60.9089 506.336 59.0078C507.378 57.1068 509.201 55.1406 511.805 53.1094C514.904 50.6615 516.896 48.7604 517.781 47.4062C518.693 46.0521 519.148 44.4375 519.148 42.5625C519.148 40.375 518.419 38.6953 516.961 37.5234C515.503 36.3516 513.406 35.7656 510.672 35.7656C508.198 35.7656 505.906 36.1172 503.797 36.8203C501.688 37.5234 499.63 38.3698 497.625 39.3594L494.344 32.4844C499.63 29.5417 505.294 28.0703 511.336 28.0703C516.44 28.0703 520.49 29.3203 523.484 31.8203C526.479 34.3203 527.977 37.7708 527.977 42.1719C527.977 44.125 527.69 45.8698 527.117 47.4062C526.544 48.9167 525.672 50.362 524.5 51.7422C523.354 53.1224 521.362 54.9193 518.523 57.1328C516.102 59.0339 514.474 60.6094 513.641 61.8594C512.833 63.1094 512.43 64.7891 512.43 66.8984V68.6562H504.773ZM503.172 81.1172C503.172 77.1849 505.086 75.2188 508.914 75.2188C510.789 75.2188 512.221 75.7396 513.211 76.7812C514.201 77.7969 514.695 79.2422 514.695 81.1172C514.695 82.9661 514.188 84.4375 513.172 85.5312C512.182 86.599 510.763 87.1328 508.914 87.1328C507.065 87.1328 505.646 86.612 504.656 85.5703C503.667 84.5026 503.172 83.0182 503.172 81.1172Z" fill="#FDDB3A"/>
<path d="M112.43 60.8047H113.43V59.8047H112.43V60.8047ZM105.242 76.3906L104.625 75.6038L104.622 75.6061L105.242 76.3906ZM99.1875 82.1328L98.3424 81.5982L99.1875 82.1328ZM113.172 92.6016L112.866 91.6495L112.856 91.6529L113.172 92.6016ZM119.656 90.0625L120.565 89.646L120.147 88.7329L119.236 89.1552L119.656 90.0625ZM122.859 97.0547L123.307 97.9491L124.171 97.5169L123.769 96.6382L122.859 97.0547ZM93.6797 97.6016L94.3173 96.8312L94.3133 96.8279L93.6797 97.6016ZM98.6016 72.4062L99.2212 73.1912L99.2303 73.1839L98.6016 72.4062ZM103.484 67.5625L104.324 68.105L104.329 68.0971L103.484 67.5625ZM104.695 60.8047V59.8047H103.695V60.8047H104.695ZM112.547 52.7188L111.831 52.0208L111.821 52.0305L112.547 52.7188ZM103.914 52.7188L103.189 53.4076L103.198 53.4166L103.914 52.7188ZM112.508 43.9297L111.774 44.6095L111.783 44.6187L111.792 44.6278L112.508 43.9297ZM111.43 60.8047V63.2656H113.43V60.8047H111.43ZM111.43 63.2656C111.43 65.8981 110.921 68.0815 109.951 69.8563L111.706 70.8156C112.871 68.6841 113.43 66.154 113.43 63.2656H111.43ZM109.951 69.8563C108.973 71.6452 107.224 73.5651 104.625 75.6038L105.859 77.1775C108.572 75.0495 110.548 72.9329 111.706 70.8156L109.951 69.8563ZM104.622 75.6061C101.407 78.1468 99.2539 80.1575 98.3424 81.5982L100.033 82.6675C100.736 81.556 102.619 79.7386 105.862 77.1752L104.622 75.6061ZM98.3424 81.5982C97.4082 83.0749 96.9766 84.8889 96.9766 86.9766H98.9766C98.9766 85.158 99.3522 83.7428 100.033 82.6675L98.3424 81.5982ZM96.9766 86.9766C96.9766 89.2679 97.7839 91.1814 99.4294 92.6137L100.742 91.1051C99.5755 90.0894 98.9766 88.7477 98.9766 86.9766H96.9766ZM99.4294 92.6137C101.089 94.0584 103.463 94.6953 106.375 94.6953V92.6953C103.714 92.6953 101.895 92.1083 100.742 91.1051L99.4294 92.6137ZM106.375 94.6953C108.824 94.6953 111.197 94.314 113.488 93.5502L112.856 91.6529C110.772 92.3475 108.613 92.6953 106.375 92.6953V94.6953ZM113.478 93.5536C115.705 92.8376 117.905 91.9762 120.077 90.9698L119.236 89.1552C117.137 90.128 115.013 90.9593 112.866 91.6495L113.478 93.5536ZM118.747 90.479L121.95 97.4712L123.769 96.6382L120.565 89.646L118.747 90.479ZM122.412 96.1603C116.794 98.9695 111.425 100.352 106.297 100.352V102.352C111.793 102.352 117.467 100.869 123.307 97.9491L122.412 96.1603ZM106.297 100.352C101.052 100.352 97.1017 99.1355 94.3173 96.8312L93.0421 98.372C96.2993 101.068 100.76 102.352 106.297 102.352V100.352ZM94.3133 96.8279C91.5557 94.5695 90.1484 91.4333 90.1484 87.2891H88.1484C88.1484 91.9469 89.762 95.6857 93.0461 98.3752L94.3133 96.8279ZM90.1484 87.2891C90.1484 85.4828 90.4083 83.9105 90.9071 82.5566L89.0304 81.8652C88.4354 83.4801 88.1484 85.2932 88.1484 87.2891H90.1484ZM90.9071 82.5566C91.4109 81.1893 92.1836 79.8671 93.2394 78.5904L91.6981 77.3159C90.5143 78.7475 89.6204 80.2638 89.0304 81.8652L90.9071 82.5566ZM93.2394 78.5904C94.2871 77.3234 96.2596 75.5293 99.2212 73.1911L97.9819 71.6214C95.006 73.9707 92.89 75.8745 91.6981 77.3159L93.2394 78.5904ZM99.2303 73.1839C101.69 71.1953 103.425 69.4974 104.324 68.105L102.644 67.02C101.929 68.1276 100.409 69.6589 97.9728 71.6286L99.2303 73.1839ZM104.329 68.0971C105.268 66.613 105.695 64.7427 105.695 62.5625H103.695C103.695 64.4969 103.315 65.9599 102.639 67.0279L104.329 68.0971ZM105.695 62.5625V60.8047H103.695V62.5625H105.695ZM104.695 61.8047H112.43V59.8047H104.695V61.8047ZM113.031 48.3047C113.031 50.0667 112.581 51.2508 111.831 52.0209L113.263 53.4166C114.492 52.1554 115.031 50.3968 115.031 48.3047H113.031ZM111.821 52.0305C111.109 52.7812 109.97 53.2422 108.211 53.2422V55.2422C110.306 55.2422 112.058 54.6875 113.272 53.407L111.821 52.0305ZM108.211 53.2422C106.515 53.2422 105.377 52.787 104.63 52.0209L103.198 53.4166C104.431 54.6818 106.157 55.2422 108.211 55.2422V53.2422ZM104.639 52.03C103.877 51.2279 103.43 50.0345 103.43 48.3047H101.43C101.43 50.3769 101.972 52.1263 103.189 53.4075L104.639 52.03ZM103.43 48.3047C103.43 46.699 103.867 45.5114 104.656 44.6397L103.173 43.2978C101.982 44.6136 101.43 46.3166 101.43 48.3047H103.43ZM104.656 44.6397C105.407 43.8093 106.537 43.3281 108.211 43.3281V41.3281C106.135 41.3281 104.4 41.9407 103.173 43.2978L104.656 44.6397ZM108.211 43.3281C109.892 43.3281 111.025 43.8008 111.774 44.6095L113.241 43.2499C112.012 41.9232 110.279 41.3281 108.211 41.3281V43.3281ZM111.792 44.6278C112.577 45.4332 113.031 46.6121 113.031 48.3047H115.031C115.031 46.2473 114.47 44.5095 113.224 43.2316L111.792 44.6278ZM142.234 73.4219L141.461 74.0554L141.463 74.0588L142.234 73.4219ZM162.117 78.1094L162.32 79.0887L162.331 79.0863L162.117 78.1094ZM169.188 76.2344H170.188V74.8794L168.893 75.2788L169.188 76.2344ZM169.188 84.2422L169.541 85.1776L170.188 84.9333V84.2422H169.188ZM134.695 79.2031L133.945 79.8646L133.947 79.8665L134.695 79.2031ZM131.219 41.8594L130.321 41.4185L130.319 41.4227L131.219 41.8594ZM171.336 31.7422L172.254 32.1389L172.631 31.267L171.779 30.8459L171.336 31.7422ZM167.977 39.5156L167.549 40.4196L168.484 40.8619L168.895 39.9123L167.977 39.5156ZM161.844 37.1328L161.531 38.0826L161.538 38.0849L161.545 38.0871L161.844 37.1328ZM155.086 35.0781C149.453 35.0781 144.935 37.0908 141.652 41.1527L143.207 42.4098C146.07 38.8675 149.99 37.0781 155.086 37.0781V35.0781ZM141.652 41.1527C138.39 45.1885 136.82 50.6858 136.82 57.5234H138.82C138.82 50.9757 140.323 45.9782 143.207 42.4098L141.652 41.1527ZM136.82 57.5234C136.82 64.6471 138.313 70.2119 141.461 74.0554L143.008 72.7883C140.27 69.4444 138.82 64.4102 138.82 57.5234H136.82ZM141.463 74.0588C144.661 77.9291 149.255 79.8125 155.086 79.8125V77.8125C149.719 77.8125 145.746 76.1022 143.005 72.785L141.463 74.0588ZM155.086 79.8125C157.573 79.8125 159.984 79.5718 162.32 79.0886L161.915 77.1301C159.719 77.5844 157.443 77.8125 155.086 77.8125V79.8125ZM162.331 79.0863C164.626 78.585 167.01 77.9526 169.482 77.1899L168.893 75.2788C166.469 76.0266 164.139 76.6442 161.904 77.1324L162.331 79.0863ZM168.188 76.2344V84.2422H170.188V76.2344H168.188ZM168.834 83.3068C164.487 84.9497 159.531 85.7812 153.953 85.7812V87.7812C159.729 87.7812 164.93 86.9201 169.541 85.1776L168.834 83.3068ZM153.953 85.7812C145.806 85.7812 139.689 83.3282 135.444 78.5397L133.947 79.8665C138.66 85.1822 145.381 87.7812 153.953 87.7812V85.7812ZM135.445 78.5416C131.181 73.7069 128.977 66.7242 128.977 57.4453H126.977C126.977 67.0206 129.252 74.5431 133.945 79.8646L135.445 78.5416ZM128.977 57.4453C128.977 51.6293 130.035 46.5886 132.118 42.296L130.319 41.4227C128.08 46.0364 126.977 51.3864 126.977 57.4453H128.977ZM132.116 42.3003C134.22 38.017 137.237 34.7576 141.171 32.4916L140.173 30.7584C135.878 33.232 132.592 36.7955 130.321 41.4185L132.116 42.3003ZM141.171 32.4916C145.11 30.2229 149.763 29.0703 155.164 29.0703V27.0703C149.472 27.0703 144.463 28.2875 140.173 30.7584L141.171 32.4916ZM155.164 29.0703C160.853 29.0703 166.09 30.2626 170.893 32.6385L171.779 30.8459C166.686 28.3259 161.142 27.0703 155.164 27.0703V29.0703ZM170.418 31.3455L167.059 39.1189L168.895 39.9123L172.254 32.1389L170.418 31.3455ZM168.404 38.6116C166.433 37.6793 164.345 36.8685 162.143 36.1785L161.545 38.0871C163.665 38.7512 165.666 39.529 167.549 40.4196L168.404 38.6116ZM162.157 36.183C159.915 35.4449 157.556 35.0781 155.086 35.0781V37.0781C157.355 37.0781 159.502 37.4145 161.531 38.0826L162.157 36.183ZM210.984 86L210.009 86.2219L210.186 87H210.984V86ZM209.695 80.3359L210.67 80.114L210.493 79.3359H209.695V80.3359ZM209.227 80.3359V79.3359H208.678L208.383 79.7991L209.227 80.3359ZM203.758 85.0625L203.323 84.1622L203.319 84.1641L203.758 85.0625ZM180.125 42.7969V41.7969H179.125V42.7969H180.125ZM189.383 42.7969H190.383V41.7969H189.383V42.7969ZM191.414 76.8984L190.638 77.529L190.643 77.535L191.414 76.8984ZM206.258 75.9219L205.472 75.3037L205.471 75.3048L206.258 75.9219ZM208.992 42.7969V41.7969H207.992V42.7969H208.992ZM218.211 42.7969H219.211V41.7969H218.211V42.7969ZM218.211 86V87H219.211V86H218.211ZM211.959 85.7781L210.67 80.114L208.72 80.5578L210.009 86.2219L211.959 85.7781ZM209.695 79.3359H209.227V81.3359H209.695V79.3359ZM208.383 79.7991C207.217 81.631 205.544 83.0883 203.323 84.1622L204.193 85.9628C206.712 84.7451 208.684 83.0512 210.07 80.8728L208.383 79.7991ZM203.319 84.1641C201.132 85.2333 198.604 85.7812 195.711 85.7812V87.7812C198.86 87.7812 201.696 87.1834 204.197 85.9609L203.319 84.1641ZM195.711 85.7812C190.628 85.7812 187.025 84.5172 184.703 82.1715L183.282 83.5785C186.116 86.4411 190.325 87.7812 195.711 87.7812V85.7812ZM184.703 82.1715C182.379 79.8238 181.125 76.1789 181.125 71.0391H179.125C179.125 76.4722 180.449 80.7179 183.282 83.5785L184.703 82.1715ZM181.125 71.0391V42.7969H179.125V71.0391H181.125ZM180.125 43.7969H189.383V41.7969H180.125V43.7969ZM188.383 42.7969V69.4375H190.383V42.7969H188.383ZM188.383 69.4375C188.383 72.8566 189.079 75.6102 190.638 77.529L192.19 76.2678C191.041 74.8533 190.383 72.6329 190.383 69.4375H188.383ZM190.643 77.535C192.249 79.4809 194.706 80.3594 197.781 80.3594V78.3594C195.076 78.3594 193.287 77.5972 192.185 76.2619L190.643 77.535ZM197.781 80.3594C201.835 80.3594 205.001 79.1457 207.045 76.5389L205.471 75.3048C203.921 77.2814 201.435 78.3594 197.781 78.3594V80.3594ZM207.044 76.5401C209.081 73.95 209.992 69.7968 209.992 64.3203H207.992C207.992 69.6772 207.081 73.2583 205.472 75.3037L207.044 76.5401ZM209.992 64.3203V42.7969H207.992V64.3203H209.992ZM208.992 43.7969H218.211V41.7969H208.992V43.7969ZM217.211 42.7969V86H219.211V42.7969H217.211ZM218.211 85H210.984V87H218.211V85ZM258.328 86L257.372 86.2919L257.588 87H258.328V86ZM256.492 79.9844L257.449 79.6925L257.233 78.9844H256.492V79.9844ZM256.18 79.9844V78.9844H255.696L255.396 79.3635L256.18 79.9844ZM249.891 85.375L250.297 86.2889L250.306 86.2846L249.891 85.375ZM231.805 83.3438L231.11 84.0626L231.113 84.0664L231.805 83.3438ZM233.211 63.5391L232.646 62.7141L233.211 63.5391ZM248.328 59.8281L248.359 60.8277L248.36 60.8276L248.328 59.8281ZM255.789 59.5938L255.82 60.5933L256.789 60.5628V59.5938H255.789ZM253.836 51.1172L253.102 51.796L253.108 51.8032L253.115 51.8103L253.836 51.1172ZM235.633 52.3281L234.722 52.7403L235.141 53.6664L236.06 53.2324L235.633 52.3281ZM232.664 45.7656L232.201 44.8792L231.363 45.3167L231.753 46.1778L232.664 45.7656ZM240.359 42.9922L240.578 43.968L240.587 43.966L240.359 42.9922ZM260.672 45.6094L260.02 46.3676L260.023 46.3706L260.672 45.6094ZM264.891 86V87H265.891V86H264.891ZM252.664 76.9766L253.342 77.7117L253.342 77.7114L252.664 76.9766ZM255.711 65.375H256.711V64.3319L255.669 64.3759L255.711 65.375ZM250.164 65.6094L250.2 66.6087L250.206 66.6085L250.164 65.6094ZM240.711 67.7969L241.258 68.634L241.261 68.6323L240.711 67.7969ZM239.5 78.1875L238.818 78.9192L238.827 78.9274L239.5 78.1875ZM241.844 37.5234H240.844V38.5234H241.844V37.5234ZM241.844 36.5469L241.068 35.9154L240.844 36.1912V36.5469H241.844ZM246.414 30.4531L245.598 29.8746L245.594 29.8809L246.414 30.4531ZM250.164 24.7109V23.7109H249.585L249.297 24.2133L250.164 24.7109ZM260.828 24.7109H261.828V23.7109H260.828V24.7109ZM260.828 25.5312L261.589 26.18L261.828 25.8996V25.5312H260.828ZM254.734 31.7031L255.416 32.4347L255.416 32.4344L254.734 31.7031ZM247.938 37.5234V38.5234H248.27L248.536 38.3248L247.938 37.5234ZM259.285 85.7081L257.449 79.6925L255.536 80.2763L257.372 86.2919L259.285 85.7081ZM256.492 78.9844H256.18V80.9844H256.492V78.9844ZM255.396 79.3635C253.37 81.9212 251.391 83.5903 249.475 84.4654L250.306 86.2846C252.609 85.2326 254.823 83.308 256.964 80.6053L255.396 79.3635ZM249.484 84.4612C247.546 85.3228 244.989 85.7812 241.766 85.7812V87.7812C245.157 87.7812 248.017 87.3022 250.297 86.2888L249.484 84.4612ZM241.766 85.7812C237.703 85.7812 234.658 84.6888 232.496 82.6211L231.113 84.0664C233.743 86.582 237.338 87.7812 241.766 87.7812V85.7812ZM232.5 82.6249C230.374 80.5696 229.25 77.6166 229.25 73.6172H227.25C227.25 78.0031 228.495 81.5346 231.11 84.0626L232.5 82.6249ZM229.25 73.6172C229.25 69.4512 230.774 66.4203 233.776 64.3641L232.646 62.7141C229.033 65.1891 227.25 68.877 227.25 73.6172H229.25ZM233.776 64.3641C236.851 62.2578 241.662 61.0337 248.359 60.8277L248.297 58.8286C241.453 59.0392 236.186 60.2891 232.646 62.7141L233.776 64.3641ZM248.36 60.8276L255.82 60.5933L255.758 58.5942L248.297 58.8286L248.36 60.8276ZM256.789 59.5938V57.2891H254.789V59.5938H256.789ZM256.789 57.2891C256.789 54.3904 256.107 52.0361 254.557 50.4241L253.115 51.8103C254.169 52.9066 254.789 54.6669 254.789 57.2891H256.789ZM254.57 50.4383C253.034 48.7768 250.722 48.0469 247.859 48.0469V50.0469C250.414 50.0469 252.086 50.6971 253.102 51.796L254.57 50.4383ZM247.859 48.0469C245.546 48.0469 243.321 48.3873 241.187 49.0712L241.797 50.9757C243.726 50.3575 245.745 50.0469 247.859 50.0469V48.0469ZM241.187 49.0712C239.115 49.7351 237.121 50.5193 235.206 51.4239L236.06 53.2324C237.894 52.3661 239.807 51.6138 241.797 50.9757L241.187 49.0712ZM236.544 51.916L233.575 45.3535L231.753 46.1778L234.722 52.7403L236.544 51.916ZM233.127 46.652C235.388 45.4714 237.87 44.5754 240.578 43.9679L240.141 42.0164C237.276 42.659 234.628 43.6119 232.201 44.8792L233.127 46.652ZM240.587 43.966C243.31 43.3297 245.863 43.0156 248.25 43.0156V41.0156C245.689 41.0156 242.982 41.3526 240.132 42.0184L240.587 43.966ZM248.25 43.0156C253.62 43.0156 257.486 44.1891 260.02 46.3676L261.324 44.8511C258.285 42.238 253.869 41.0156 248.25 41.0156V43.0156ZM260.023 46.3706C262.536 48.5109 263.891 51.9423 263.891 56.8984H265.891C265.891 51.5942 264.433 47.4995 261.32 44.8481L260.023 46.3706ZM263.891 56.8984V86H265.891V56.8984H263.891ZM264.891 85H258.328V87H264.891V85ZM244.656 80.75C248.182 80.75 251.113 79.7669 253.342 77.7117L251.986 76.2414C250.205 77.8841 247.797 78.75 244.656 78.75V80.75ZM253.342 77.7114C255.622 75.6071 256.711 72.6986 256.711 69.125H254.711C254.711 72.2701 253.769 74.596 251.986 76.2418L253.342 77.7114ZM256.711 69.125V65.375H254.711V69.125H256.711ZM255.669 64.3759L250.122 64.6103L250.206 66.6085L255.753 66.3741L255.669 64.3759ZM250.128 64.61C245.751 64.7682 242.374 65.5058 240.161 66.9615L241.261 68.6323C243.006 67.4838 245.931 66.763 250.2 66.6087L250.128 64.61ZM240.164 66.9597C237.885 68.4485 236.781 70.7563 236.781 73.6953H238.781C238.781 71.3219 239.63 69.6973 241.258 68.634L240.164 66.9597ZM236.781 73.6953C236.781 75.8312 237.424 77.62 238.818 78.9191L240.182 77.4559C239.284 76.6195 238.781 75.4136 238.781 73.6953H236.781ZM238.827 78.9274C240.229 80.2013 242.233 80.75 244.656 80.75V78.75C242.496 78.75 241.063 78.2571 240.173 77.4476L238.827 78.9274ZM242.844 37.5234V36.5469H240.844V37.5234H242.844ZM242.619 37.1783C244.121 35.3334 245.66 33.282 247.234 31.0253L245.594 29.8809C244.043 32.1034 242.535 34.1145 241.068 35.9154L242.619 37.1783ZM247.23 31.0317C248.829 28.7775 250.098 26.8349 251.031 25.2086L249.297 24.2133C248.407 25.764 247.177 27.6496 245.598 29.8746L247.23 31.0317ZM250.164 25.7109H260.828V23.7109H250.164V25.7109ZM259.828 24.7109V25.5312H261.828V24.7109H259.828ZM260.067 24.8825C258.75 26.4281 256.751 28.4552 254.052 30.9718L255.416 32.4344C258.135 29.899 260.198 27.8115 261.589 26.18L260.067 24.8825ZM254.053 30.9716C251.383 33.4594 249.147 35.3724 247.339 36.7221L248.536 38.3248C250.426 36.9141 252.721 34.9468 255.416 32.4347L254.053 30.9716ZM247.938 36.5234H241.844V38.5234H247.938V36.5234ZM286.883 86V87H287.883V86H286.883ZM277.703 86H276.703V87H277.703V86ZM277.703 25.2188V24.2188H276.703V25.2188H277.703ZM286.883 25.2188H287.883V24.2188H286.883V25.2188ZM286.883 85H277.703V87H286.883V85ZM278.703 86V25.2188H276.703V86H278.703ZM277.703 26.2188H286.883V24.2188H277.703V26.2188ZM285.883 25.2188V86H287.883V25.2188H285.883ZM310.359 64.6328V63.6328H309.359V64.6328H310.359ZM310.359 86V87H311.359V86H310.359ZM301.023 86H300.023V87H301.023V86ZM301.023 28.8906V27.8906H300.023V28.8906H301.023ZM333.484 33.2656L332.849 34.0376L332.851 34.0398L333.484 33.2656ZM310.359 56.7812H309.359V57.7812H310.359V56.7812ZM310.359 36.7031V35.7031H309.359V36.7031H310.359ZM337.836 46.1562C337.836 51.8806 335.974 56.14 332.346 59.0914L333.608 60.643C337.791 57.2402 339.836 52.359 339.836 46.1562H337.836ZM332.346 59.0914C328.681 62.0721 323.378 63.6328 316.297 63.6328V65.6328C323.643 65.6328 329.46 64.0164 333.608 60.643L332.346 59.0914ZM316.297 63.6328H310.359V65.6328H316.297V63.6328ZM309.359 64.6328V86H311.359V64.6328H309.359ZM310.359 85H301.023V87H310.359V85ZM302.023 86V28.8906H300.023V86H302.023ZM301.023 29.8906H317.469V27.8906H301.023V29.8906ZM317.469 29.8906C324.494 29.8906 329.562 31.3307 332.849 34.0376L334.12 32.4937C330.324 29.3672 324.714 27.8906 317.469 27.8906V29.8906ZM332.851 34.0398C336.134 36.723 337.836 40.7028 337.836 46.1562H339.836C339.836 40.2555 337.971 35.6416 334.117 32.4914L332.851 34.0398ZM310.359 57.7812H315.32V55.7812H310.359V57.7812ZM315.32 57.7812C320.189 57.7812 323.967 56.9419 326.464 55.0835L325.27 53.479C323.288 54.9539 320.035 55.7812 315.32 55.7812V57.7812ZM326.464 55.0835C329.024 53.1784 330.227 50.2326 330.227 46.4688H328.227C328.227 49.7882 327.189 52.0508 325.27 53.479L326.464 55.0835ZM330.227 46.4688C330.227 42.9752 329.149 40.2008 326.846 38.3461L325.592 39.9039C327.299 41.2784 328.227 43.3998 328.227 46.4688H330.227ZM326.846 38.3461C324.58 36.5215 321.18 35.7031 316.844 35.7031V37.7031C320.997 37.7031 323.847 38.4994 325.592 39.9039L326.846 38.3461ZM316.844 35.7031H310.359V37.7031H316.844V35.7031ZM309.359 36.7031V56.7812H311.359V36.7031H309.359ZM358.445 86V87H359.445V86H358.445ZM349.266 86H348.266V87H349.266V86ZM349.266 42.7969V41.7969H348.266V42.7969H349.266ZM358.445 42.7969H359.445V41.7969H358.445V42.7969ZM350.047 27.5625L349.35 26.8452L349.345 26.8503L349.34 26.8554L350.047 27.5625ZM357.664 27.5625L356.957 28.2696L356.962 28.2747L356.967 28.2798L357.664 27.5625ZM357.664 35.0625L356.957 34.3554L357.664 35.0625ZM350.047 35.0625L349.33 35.7593L349.34 35.7697L349.35 35.7798L350.047 35.0625ZM358.445 85H349.266V87H358.445V85ZM350.266 86V42.7969H348.266V86H350.266ZM349.266 43.7969H358.445V41.7969H349.266V43.7969ZM357.445 42.7969V86H359.445V42.7969H357.445ZM349.719 31.3516C349.719 29.8906 350.109 28.9146 350.754 28.2696L349.34 26.8554C348.214 27.9812 347.719 29.5312 347.719 31.3516H349.719ZM350.744 28.2798C351.416 27.6267 352.424 27.2344 353.914 27.2344V25.2344C352.071 25.2344 350.501 25.7274 349.35 26.8452L350.744 28.2798ZM353.914 27.2344C355.344 27.2344 356.309 27.6217 356.957 28.2696L358.371 26.8554C357.248 25.7324 355.714 25.2344 353.914 25.2344V27.2344ZM356.967 28.2798C357.633 28.9262 358.031 29.8986 358.031 31.3516H360.031C360.031 29.5233 359.518 27.9696 358.361 26.8452L356.967 28.2798ZM358.031 31.3516C358.031 32.7089 357.642 33.67 356.957 34.3554L358.371 35.7696C359.509 34.632 360.031 33.1192 360.031 31.3516H358.031ZM356.957 34.3554C356.309 35.0033 355.344 35.3906 353.914 35.3906V37.3906C355.714 37.3906 357.248 36.8926 358.371 35.7696L356.957 34.3554ZM353.914 35.3906C352.424 35.3906 351.416 34.9983 350.744 34.3452L349.35 35.7798C350.501 36.8976 352.071 37.3906 353.914 37.3906V35.3906ZM350.764 34.3657C350.1 33.6818 349.719 32.717 349.719 31.3516H347.719C347.719 33.1111 348.223 34.6203 349.33 35.7593L350.764 34.3657ZM409.617 86V87H410.617V86H409.617ZM400.398 86H399.398V87H400.398V86ZM398.367 51.9766L397.59 52.6058L397.596 52.6131L398.367 51.9766ZM380.789 86V87H381.789V86H380.789ZM371.609 86H370.609V87H371.609V86ZM371.609 42.7969V41.7969H370.609V42.7969H371.609ZM378.797 42.7969L379.772 42.575L379.595 41.7969H378.797V42.7969ZM380.086 48.4609L379.111 48.6828L379.288 49.4609H380.086V48.4609ZM380.555 48.4609V49.4609H381.105L381.4 48.9957L380.555 48.4609ZM386.102 43.6953L385.678 42.7894L386.102 43.6953ZM409.617 85H400.398V87H409.617V85ZM401.398 86V59.4375H399.398V86H401.398ZM401.398 59.4375C401.398 55.9963 400.704 53.2367 399.138 51.34L397.596 52.6131C398.739 53.9977 399.398 56.212 399.398 59.4375H401.398ZM399.144 51.3474C397.561 49.3917 395.097 48.5156 392 48.5156V50.5156C394.737 50.5156 396.517 51.2802 397.59 52.6058L399.144 51.3474ZM392 48.5156C387.922 48.5156 384.743 49.7277 382.697 52.3361L384.271 53.5702C385.82 51.5952 388.317 50.5156 392 50.5156V48.5156ZM382.697 52.3361C380.687 54.9007 379.789 59.0284 379.789 64.4766H381.789C381.789 59.1435 382.688 55.5889 384.271 53.5702L382.697 52.3361ZM379.789 64.4766V86H381.789V64.4766H379.789ZM380.789 85H371.609V87H380.789V85ZM372.609 86V42.7969H370.609V86H372.609ZM371.609 43.7969H378.797V41.7969H371.609V43.7969ZM377.822 43.0188L379.111 48.6828L381.061 48.239L379.772 42.575L377.822 43.0188ZM380.086 49.4609H380.555V47.4609H380.086V49.4609ZM381.4 48.9957C382.591 47.1138 384.287 45.6474 386.525 44.6012L385.678 42.7894C383.125 43.9828 381.123 45.6935 379.71 47.9261L381.4 48.9957ZM386.525 44.6012C388.775 43.5495 391.285 43.0156 394.07 43.0156V41.0156C391.023 41.0156 388.22 41.6015 385.678 42.7894L386.525 44.6012ZM394.07 43.0156C399.094 43.0156 402.679 44.2924 405.017 46.6716C407.359 49.0541 408.617 52.7123 408.617 57.8359H410.617C410.617 52.4127 409.285 48.1607 406.444 45.2698C403.6 42.3756 399.411 41.0156 394.07 41.0156V43.0156ZM408.617 57.8359V86H410.617V57.8359H408.617ZM445.203 78.3047H446.203V76.9426L444.904 77.3506L445.203 78.3047ZM445.203 85.2188L445.603 86.1354L446.203 85.8737V85.2188H445.203ZM441.258 86.3125L441.083 85.3279L441.074 85.3295L441.065 85.3313L441.258 86.3125ZM423.25 49.75H424.25V48.75H423.25V49.75ZM417.352 49.75H416.352V50.75H417.352V49.75ZM417.352 45.6875L416.883 44.8042L416.352 45.0862V45.6875H417.352ZM423.68 42.3281L424.149 43.2114L424.498 43.0259L424.626 42.6516L423.68 42.3281ZM426.805 33.1875V32.1875H426.09L425.858 32.864L426.805 33.1875ZM432.469 33.1875H433.469V32.1875H432.469V33.1875ZM432.469 42.7969H431.469V43.7969H432.469V42.7969ZM444.773 42.7969H445.773V41.7969H444.773V42.7969ZM444.773 49.75V50.75H445.773V49.75H444.773ZM432.469 49.75V48.75H431.469V49.75H432.469ZM434.109 77.7969L433.411 78.5124L433.419 78.5209L433.428 78.5291L434.109 77.7969ZM438.484 80.3594C440.83 80.3594 443.171 79.9909 445.503 79.2588L444.904 77.3506C442.756 78.0248 440.618 78.3594 438.484 78.3594V80.3594ZM444.203 78.3047V85.2188H446.203V78.3047H444.203ZM444.804 84.3021C443.885 84.7023 442.654 85.0493 441.083 85.3279L441.433 87.2971C443.091 87.0028 444.49 86.6206 445.603 86.1354L444.804 84.3021ZM441.065 85.3313C439.544 85.6306 437.955 85.7812 436.297 85.7812V87.7812C438.076 87.7812 439.795 87.6194 441.451 87.2937L441.065 85.3313ZM436.297 85.7812C432.116 85.7812 429.16 84.6823 427.237 82.6554C425.305 80.6188 424.25 77.4732 424.25 73.0312H422.25C422.25 77.756 423.37 81.4854 425.786 84.0321C428.212 86.5886 431.78 87.7812 436.297 87.7812V85.7812ZM424.25 73.0312V49.75H422.25V73.0312H424.25ZM423.25 48.75H417.352V50.75H423.25V48.75ZM418.352 49.75V45.6875H416.352V49.75H418.352ZM417.82 46.5708L424.149 43.2114L423.211 41.4449L416.883 44.8042L417.82 46.5708ZM424.626 42.6516L427.751 33.511L425.858 32.864L422.733 42.0046L424.626 42.6516ZM426.805 34.1875H432.469V32.1875H426.805V34.1875ZM431.469 33.1875V42.7969H433.469V33.1875H431.469ZM432.469 43.7969H444.773V41.7969H432.469V43.7969ZM443.773 42.7969V49.75H445.773V42.7969H443.773ZM444.773 48.75H432.469V50.75H444.773V48.75ZM431.469 49.75V72.875H433.469V49.75H431.469ZM431.469 72.875C431.469 75.2365 432.052 77.1859 433.411 78.5124L434.808 77.0813C433.979 76.2724 433.469 74.9406 433.469 72.875H431.469ZM433.428 78.5291C434.765 79.7725 436.482 80.3594 438.484 80.3594V78.3594C436.893 78.3594 435.693 77.9046 434.79 77.0647L433.428 78.5291ZM480.906 86L479.95 86.2919L480.166 87H480.906V86ZM479.07 79.9844L480.027 79.6925L479.811 78.9844H479.07V79.9844ZM478.758 79.9844V78.9844H478.274L477.974 79.3635L478.758 79.9844ZM472.469 85.375L472.875 86.2889L472.884 86.2846L472.469 85.375ZM454.383 83.3438L453.688 84.0626L453.692 84.0664L454.383 83.3438ZM455.789 63.5391L455.224 62.7141L455.789 63.5391ZM470.906 59.8281L470.937 60.8277L470.938 60.8276L470.906 59.8281ZM478.367 59.5938L478.399 60.5933L479.367 60.5628V59.5938H478.367ZM476.414 51.1172L475.68 51.796L475.686 51.8032L475.693 51.8103L476.414 51.1172ZM458.211 52.3281L457.3 52.7403L457.719 53.6664L458.638 53.2324L458.211 52.3281ZM455.242 45.7656L454.779 44.8792L453.942 45.3167L454.331 46.1778L455.242 45.7656ZM462.938 42.9922L463.156 43.968L463.165 43.966L462.938 42.9922ZM483.25 45.6094L482.598 46.3676L482.602 46.3706L483.25 45.6094ZM487.469 86V87H488.469V86H487.469ZM475.242 76.9766L475.92 77.7117L475.92 77.7114L475.242 76.9766ZM478.289 65.375H479.289V64.3319L478.247 64.3759L478.289 65.375ZM472.742 65.6094L472.778 66.6087L472.784 66.6085L472.742 65.6094ZM463.289 67.7969L463.836 68.634L463.839 68.6323L463.289 67.7969ZM462.078 78.1875L461.396 78.9192L461.405 78.9274L462.078 78.1875ZM481.863 85.7081L480.027 79.6925L478.114 80.2763L479.95 86.2919L481.863 85.7081ZM479.07 78.9844H478.758V80.9844H479.07V78.9844ZM477.974 79.3635C475.948 81.9212 473.969 83.5903 472.053 84.4654L472.884 86.2846C475.187 85.2326 477.401 83.308 479.542 80.6053L477.974 79.3635ZM472.063 84.4612C470.124 85.3228 467.567 85.7812 464.344 85.7812V87.7812C467.735 87.7812 470.595 87.3022 472.875 86.2888L472.063 84.4612ZM464.344 85.7812C460.281 85.7812 457.236 84.6888 455.074 82.6211L453.692 84.0664C456.322 86.582 459.917 87.7812 464.344 87.7812V85.7812ZM455.078 82.6249C452.953 80.5696 451.828 77.6166 451.828 73.6172H449.828C449.828 78.0031 451.073 81.5346 453.688 84.0626L455.078 82.6249ZM451.828 73.6172C451.828 69.4512 453.353 66.4203 456.354 64.3641L455.224 62.7141C451.611 65.1891 449.828 68.877 449.828 73.6172H451.828ZM456.354 64.3641C459.429 62.2578 464.24 61.0337 470.937 60.8277L470.875 58.8286C464.031 59.0392 458.764 60.2891 455.224 62.7141L456.354 64.3641ZM470.938 60.8276L478.399 60.5933L478.336 58.5942L470.875 58.8286L470.938 60.8276ZM479.367 59.5938V57.2891H477.367V59.5938H479.367ZM479.367 57.2891C479.367 54.3904 478.685 52.0361 477.135 50.4241L475.693 51.8103C476.747 52.9066 477.367 54.6669 477.367 57.2891H479.367ZM477.148 50.4383C475.612 48.7768 473.3 48.0469 470.438 48.0469V50.0469C472.992 50.0469 474.664 50.6971 475.68 51.796L477.148 50.4383ZM470.438 48.0469C468.124 48.0469 465.899 48.3873 463.765 49.0712L464.376 50.9757C466.304 50.3575 468.324 50.0469 470.438 50.0469V48.0469ZM463.765 49.0712C461.693 49.7351 459.7 50.5193 457.784 51.4239L458.638 53.2324C460.472 52.3661 462.385 51.6138 464.376 50.9757L463.765 49.0712ZM459.122 51.916L456.153 45.3535L454.331 46.1778L457.3 52.7403L459.122 51.916ZM455.705 46.652C457.966 45.4714 460.448 44.5754 463.156 43.9679L462.719 42.0164C459.854 42.659 457.206 43.6119 454.779 44.8792L455.705 46.652ZM463.165 43.966C465.888 43.3297 468.442 43.0156 470.828 43.0156V41.0156C468.267 41.0156 465.56 41.3526 462.71 42.0184L463.165 43.966ZM470.828 43.0156C476.198 43.0156 480.064 44.1891 482.598 46.3676L483.902 44.8511C480.863 42.238 476.447 41.0156 470.828 41.0156V43.0156ZM482.602 46.3706C485.114 48.5109 486.469 51.9423 486.469 56.8984H488.469C488.469 51.5942 487.011 47.4995 483.898 44.8481L482.602 46.3706ZM486.469 56.8984V86H488.469V56.8984H486.469ZM487.469 85H480.906V87H487.469V85ZM467.234 80.75C470.76 80.75 473.691 79.7669 475.92 77.7117L474.564 76.2414C472.783 77.8841 470.375 78.75 467.234 78.75V80.75ZM475.92 77.7114C478.2 75.6071 479.289 72.6986 479.289 69.125H477.289C477.289 72.2701 476.347 74.596 474.564 76.2418L475.92 77.7114ZM479.289 69.125V65.375H477.289V69.125H479.289ZM478.247 64.3759L472.7 64.6103L472.784 66.6085L478.331 66.3741L478.247 64.3759ZM472.706 64.61C468.329 64.7682 464.952 65.5058 462.739 66.9615L463.839 68.6323C465.584 67.4838 468.509 66.763 472.778 66.6087L472.706 64.61ZM462.742 66.9597C460.463 68.4485 459.359 70.7563 459.359 73.6953H461.359C461.359 71.3219 462.209 69.6973 463.836 68.634L462.742 66.9597ZM459.359 73.6953C459.359 75.8312 460.002 77.62 461.396 78.9191L462.76 77.4559C461.862 76.6195 461.359 75.4136 461.359 73.6953H459.359ZM461.405 78.9274C462.807 80.2013 464.811 80.75 467.234 80.75V78.75C465.075 78.75 463.641 78.2571 462.751 77.4476L461.405 78.9274ZM504.773 68.6562H503.773V69.6562H504.773V68.6562ZM511.805 53.1094L512.42 53.8979L512.425 53.8941L511.805 53.1094ZM517.781 47.4062L516.952 46.8478L516.944 46.859L517.781 47.4062ZM497.625 39.3594L496.723 39.7901L497.159 40.7045L498.068 40.2561L497.625 39.3594ZM494.344 32.4844L493.857 31.6106L493.037 32.0675L493.441 32.9151L494.344 32.4844ZM527.117 47.4062L528.052 47.7609L528.054 47.7556L527.117 47.4062ZM524.5 51.7422L523.738 51.0949L523.731 51.1034L524.5 51.7422ZM518.523 57.1328L517.908 56.3442L517.906 56.3462L518.523 57.1328ZM513.641 61.8594L512.809 61.3047L512.805 61.3107L512.801 61.3168L513.641 61.8594ZM512.43 68.6562V69.6562H513.43V68.6562H512.43ZM513.211 76.7812L512.486 77.4701L512.495 77.4791L513.211 76.7812ZM513.172 85.5312L512.439 84.8508L512.438 84.8515L513.172 85.5312ZM504.656 85.5703L503.923 86.2501L503.931 86.2591L504.656 85.5703ZM505.773 68.6562V66.1562H503.773V68.6562H505.773ZM505.773 66.1562C505.773 63.4075 506.274 61.2023 507.213 59.4883L505.459 58.5273C504.315 60.6154 503.773 63.1758 503.773 66.1562H505.773ZM507.213 59.4883C508.164 57.7525 509.872 55.8849 512.42 53.8979L511.19 52.3209C508.529 54.3963 506.591 56.461 505.459 58.5273L507.213 59.4883ZM512.425 53.8941C515.521 51.4482 517.634 49.4589 518.618 47.9535L516.944 46.859C516.158 48.0619 514.286 49.8747 511.185 52.3247L512.425 53.8941ZM518.611 47.9646C519.649 46.4219 520.148 44.606 520.148 42.5625H518.148C518.148 44.269 517.736 45.6823 516.952 46.8479L518.611 47.9646ZM520.148 42.5625C520.148 40.1294 519.323 38.1389 517.587 36.7439L516.335 38.3029C517.515 39.2517 518.148 40.6206 518.148 42.5625H520.148ZM517.587 36.7439C515.886 35.3765 513.532 34.7656 510.672 34.7656V36.7656C513.28 36.7656 515.12 37.3266 516.335 38.3029L517.587 36.7439ZM510.672 34.7656C508.102 34.7656 505.703 35.1309 503.481 35.8716L504.113 37.769C506.11 37.1035 508.293 36.7656 510.672 36.7656V34.7656ZM503.481 35.8716C501.328 36.5892 499.228 37.453 497.182 38.4626L498.068 40.2561C500.032 39.2866 502.047 38.4576 504.113 37.769L503.481 35.8716ZM498.527 38.9286L495.246 32.0536L493.441 32.9151L496.723 39.7901L498.527 38.9286ZM494.83 33.3581C499.968 30.4981 505.465 29.0703 511.336 29.0703V27.0703C505.124 27.0703 499.292 28.5852 493.857 31.6106L494.83 33.3581ZM511.336 29.0703C516.279 29.0703 520.078 30.2791 522.844 32.588L524.125 31.0526C520.901 28.3615 516.601 27.0703 511.336 27.0703V29.0703ZM522.844 32.588C525.58 34.8722 526.977 38.0246 526.977 42.1719H528.977C528.977 37.5171 527.378 33.7684 524.125 31.0526L522.844 32.588ZM526.977 42.1719C526.977 44.028 526.704 45.6513 526.18 47.0569L528.054 47.7556C528.676 46.0883 528.977 44.222 528.977 42.1719H526.977ZM526.182 47.0516C525.654 48.4433 524.845 49.7913 523.738 51.095L525.262 52.3894C526.499 50.9327 527.434 49.3901 528.052 47.7609L526.182 47.0516ZM523.731 51.1034C522.657 52.3972 520.735 54.1401 517.908 56.3442L519.138 57.9214C521.989 55.6985 524.052 53.8476 525.269 52.3809L523.731 51.1034ZM517.906 56.3462C515.469 58.259 513.735 59.9153 512.809 61.3047L514.473 62.4141C515.213 61.3034 516.734 59.8087 519.141 57.9194L517.906 56.3462ZM512.801 61.3168C511.854 62.7828 511.43 64.6734 511.43 66.8984H513.43C513.43 64.9047 513.813 63.436 514.481 62.4019L512.801 61.3168ZM511.43 66.8984V68.6562H513.43V66.8984H511.43ZM512.43 67.6562H504.773V69.6562H512.43V67.6562ZM504.172 81.1172C504.172 79.2986 504.615 78.1195 505.324 77.3909C506.028 76.6673 507.161 76.2188 508.914 76.2188V74.2188C506.839 74.2188 505.101 74.7533 503.891 75.9958C502.686 77.2334 502.172 79.0035 502.172 81.1172H504.172ZM508.914 76.2188C510.603 76.2188 511.738 76.6828 512.486 77.47L513.936 76.0925C512.705 74.7964 510.975 74.2188 508.914 74.2188V76.2188ZM512.495 77.4791C513.25 78.254 513.695 79.4162 513.695 81.1172H515.695C515.695 79.0682 515.151 77.3398 513.927 76.0834L512.495 77.4791ZM513.695 81.1172C513.695 82.7769 513.244 83.9836 512.439 84.8508L513.905 86.2117C515.131 84.8914 515.695 83.1554 515.695 81.1172H513.695ZM512.438 84.8515C511.686 85.6629 510.565 86.1328 508.914 86.1328V88.1328C510.961 88.1328 512.678 87.535 513.905 86.211L512.438 84.8515ZM508.914 86.1328C507.256 86.1328 506.132 85.6715 505.381 84.8816L503.931 86.2591C505.16 87.5525 506.874 88.1328 508.914 88.1328V86.1328ZM505.39 84.8905C504.619 84.0587 504.172 82.8455 504.172 81.1172H502.172C502.172 83.191 502.715 84.9465 503.923 86.2501L505.39 84.8905Z" fill="black"/>
<path d="M62.2577 28.0717L14.6982 28.1641V84.6016C14.6982 88.312 17.7415 91.3203 21.4951 91.3203H55.4795C59.2331 91.3203 62.2764 88.312 62.2764 84.6016V28.1053L62.2577 28.0717Z" fill="#95E7EE"/>
<path d="M62.2764 84.6016V28.1053L62.2577 28.0717L14.6982 28.1641V84.6016H62.2764Z" fill="#FDDB3A"/>
<path d="M79.2686 42.4414V71.1641C79.2686 74.8745 76.2253 77.8828 72.4717 77.8828H62.2764V71.1641H72.4717V42.4414H62.2764V35.7227H72.4717C76.2253 35.7227 79.2686 38.731 79.2686 42.4414Z" fill="#95E7EE"/>
<path d="M65.4964 20.7247C66.7895 26.3975 60.8699 30.9362 55.3096 28.1405V42.3221C55.3096 44.1765 53.7888 45.6815 51.9111 45.6815C50.0335 45.6815 48.5127 44.1765 48.5127 42.3221V35.6034C48.5127 33.2838 48.5977 29.0039 41.0361 29.0039C40.4227 29.0039 39.8365 29.2491 39.4117 29.6842C37.8671 31.2631 35.7023 32.244 33.3047 32.244C30.9853 32.244 28.8833 31.3252 27.3506 29.8354C26.8018 29.3029 26.0626 29.0039 25.2572 29.0039C24.6098 29.0039 24.0185 29.3684 23.7347 29.9429C22.0932 33.2653 18.6829 35.5698 14.6982 35.6034V49.0039C14.6133 50.8953 13.0925 52.4003 11.2148 52.4003C9.33721 52.4003 7.73145 50.8953 7.73145 49.0409C7.73145 46.8427 7.73145 31.2159 7.73145 28.8846C7.73145 20.8944 14.8699 14.5334 23.1536 15.5832C25.473 11.4965 29.9113 8.67969 35.0039 8.67969C39.0311 8.67969 42.6487 10.4585 45.138 13.2098C46.1644 12.5682 47.381 12.207 48.6826 12.207C51.6478 12.207 54.1694 14.0832 55.0972 16.7002C56.5568 15.7327 58.4174 15.3094 60.38 15.726C62.8745 16.2534 64.9373 18.2657 65.4964 20.7247Z" fill="#EEEEEE"/>
<path d="M48.5977 82.8026C47.6597 82.8026 46.8984 83.5551 46.8984 84.4823C46.8984 85.4095 47.6597 86.162 48.5977 86.162C49.5356 86.162 50.2969 85.4095 50.2969 84.4823C50.2969 83.5551 49.5356 82.8026 48.5977 82.8026Z" fill="black"/>
<path d="M24.7236 40.6425C23.7852 40.6425 23.0244 41.3945 23.0244 42.3221V74.4042C23.0244 75.3319 23.7852 76.0839 24.7236 76.0839C25.6621 76.0839 26.4229 75.3319 26.4229 74.4042V42.3221C26.4229 41.3945 25.6621 40.6425 24.7236 40.6425Z" fill="black"/>
<path d="M38.3174 40.6425C37.3789 40.6425 36.6182 41.3945 36.6182 42.3221V74.4042C36.6182 75.3319 37.3789 76.0839 38.3174 76.0839C39.2559 76.0839 40.0166 75.3319 40.0166 74.4042V42.3221C40.0166 41.3945 39.2559 40.6425 38.3174 40.6425Z" fill="black"/>
<path d="M21.4951 93H55.4795C60.1642 93 63.9756 89.2325 63.9756 84.6016V79.5625H72.4717C77.1564 79.5625 80.9678 75.795 80.9678 71.1641V42.4414C80.9678 37.8105 77.1564 34.043 72.4717 34.043H63.9756V28.9604C66.6391 26.9866 67.905 23.6504 67.1543 20.3564C66.452 17.2674 63.8726 14.7466 60.7367 14.0836C59.0696 13.73 57.3906 13.8551 55.8608 14.4301C54.3267 12.0394 51.6328 10.5273 48.6826 10.5273C47.5706 10.5273 46.484 10.7405 45.4793 11.1507C42.6351 8.49862 38.8854 7 35.0039 7C29.8695 7 25.0811 9.58554 22.2547 13.816C13.3729 13.3302 6.03223 20.2957 6.03223 28.8846V49.0409C6.03223 51.8194 8.3571 54.08 11.2148 54.08C11.8417 54.08 12.4424 53.9673 12.999 53.762V84.6016C12.999 89.2325 16.8104 93 21.4951 93ZM55.4795 89.6406H21.4951C19.28 89.6406 17.3912 88.2362 16.6897 86.2812H41.8025C42.741 86.2812 43.5017 85.5293 43.5017 84.6016C43.5017 83.6739 42.741 82.9219 41.8025 82.9219H16.3975V49.0039V37.1514C20.2144 36.5818 23.5196 34.2056 25.2572 30.6838C25.6116 30.6838 25.924 30.805 26.1593 31.0333C28.077 32.8974 30.6147 33.9239 33.3047 33.9239C36.0928 33.9239 38.6955 32.8329 40.6343 30.8509C40.7379 30.7447 40.8846 30.6838 41.0361 30.6838C43.6813 30.6838 45.4121 31.2423 46.1809 32.3435C46.8145 33.2513 46.814 34.5128 46.8135 35.5265V42.3223C46.8135 44.512 48.2342 46.3791 50.2119 47.0725V74.4043C50.2119 75.332 50.9727 76.084 51.9111 76.084C52.8496 76.084 53.6104 75.332 53.6104 74.4043V47.0723C55.5881 46.3789 57.0088 44.512 57.0088 42.3221V30.4864C58.1991 30.7212 59.4139 30.7227 60.5771 30.4876V82.9219H55.3928C54.4544 82.9219 53.6936 83.6739 53.6936 84.6016C53.6936 85.5293 54.4544 86.2645 55.3928 86.2645H60.2849C59.5834 88.2194 57.6946 89.6406 55.4795 89.6406ZM63.9756 44.1211H70.7725V69.4844H63.9756V44.1211ZM72.4717 37.4023C75.2825 37.4023 77.5693 39.6629 77.5693 42.4414V71.1641C77.5693 73.9426 75.2825 76.2031 72.4717 76.2031H63.9756V72.8437H72.4717C73.4102 72.8437 74.1709 72.0918 74.1709 71.1641V42.4414C74.1709 41.5137 73.4102 40.7617 72.4717 40.7617H63.9756V37.4023H72.4717ZM11.2148 50.7206C10.2478 50.7206 9.43066 49.9513 9.43066 49.0409V28.8846C9.43066 22.4017 14.7971 17.1517 21.3944 17.1517C21.907 17.1517 22.4224 17.1839 22.9374 17.2493C23.6247 17.3365 24.2964 17.0022 24.6354 16.4051C26.752 12.676 30.7249 10.3594 35.0039 10.3594C38.3565 10.3594 41.5887 11.8064 43.8716 14.3297C44.4249 14.9414 45.3445 15.0684 46.0464 14.6295C46.8235 14.1435 47.7351 13.8867 48.6826 13.8867C50.8457 13.8867 52.7791 15.2407 53.4936 17.2557C53.6674 17.7461 54.0613 18.1296 54.5602 18.2939C55.0589 18.4582 55.6068 18.3849 56.0435 18.0953C57.2017 17.3277 58.6151 17.0696 60.0246 17.3685C61.8597 17.7566 63.4281 19.2881 63.8386 21.0939C64.8058 25.3375 60.4054 28.8185 56.0798 26.6434C55.5531 26.3786 54.925 26.4032 54.4211 26.7088C53.9172 27.0141 53.6102 27.5564 53.6102 28.1405V42.3221C53.6102 43.2483 52.8479 44.0018 51.911 44.0018C50.974 44.0018 50.2117 43.2483 50.2117 42.3221V35.5275C50.2123 34.2046 50.2131 32.2052 48.9779 30.4355C47.5372 28.371 44.8652 27.3242 41.0361 27.3242C39.9673 27.3242 38.9298 27.7591 38.1901 28.5166C36.8984 29.8372 35.1633 30.5643 33.3047 30.5643C31.5115 30.5643 29.8201 29.8802 28.5409 28.6366C27.6687 27.7902 26.5025 27.3242 25.2572 27.3242C23.9693 27.3242 22.7724 28.0628 22.2078 29.2058C20.7835 32.0888 17.9003 33.8967 14.6836 33.9239C13.7509 33.9318 12.9989 34.6814 12.9989 35.6036V48.9613C12.939 49.9504 12.161 50.7206 11.2148 50.7206Z" fill="black"/>
</svg>
