<svg width="824" height="126" viewBox="0 0 824 126" fill="none" xmlns="http://www.w3.org/2000/svg">
<g filter="url(#filter0_d)">
<path d="M144.16 116.04C151.76 116.04 157.52 113 162.16 107.64L158.08 103C154.32 107.08 150.08 109.56 144.48 109.56C133.28 109.56 126.24 100.28 126.24 85.48C126.24 70.84 133.6 61.72 144.72 61.72C149.76 61.72 153.68 64.04 156.72 67.32L160.72 62.52C157.36 58.76 151.76 55.24 144.64 55.24C129.76 55.24 118.64 66.76 118.64 85.72C118.64 104.76 129.6 116.04 144.16 116.04ZM184.156 116.04C190.156 116.04 194.476 112.92 198.556 108.2H198.796L199.356 115H205.436V71.56H198.156V102.36C193.996 107.56 190.876 109.72 186.396 109.72C180.636 109.72 178.236 106.28 178.236 98.2V71.56H170.956V99.08C170.956 110.12 175.036 116.04 184.156 116.04ZM230.11 116.04C235.47 116.04 240.35 113.24 244.51 109.8H244.75L245.39 115H251.39V88.28C251.39 77.56 246.91 70.44 236.35 70.44C229.39 70.44 223.23 73.56 219.23 76.12L222.11 81.16C225.55 78.84 230.11 76.52 235.15 76.52C242.27 76.52 244.11 81.88 244.11 87.48C225.63 89.56 217.39 94.28 217.39 103.72C217.39 111.56 222.83 116.04 230.11 116.04ZM232.19 110.2C227.87 110.2 224.51 108.2 224.51 103.24C224.51 97.64 229.47 94.04 244.11 92.28V104.44C239.87 108.2 236.43 110.2 232.19 110.2ZM272.946 116.04C274.946 116.04 276.146 115.8 277.186 115.4L276.146 109.8C275.346 109.96 275.026 109.96 274.626 109.96C273.506 109.96 272.546 109.08 272.546 106.84V51.32H265.266V106.36C265.266 112.52 267.506 116.04 272.946 116.04ZM288.719 115H296.159V91.72H305.839C318.719 91.72 327.439 85.96 327.439 73.56C327.439 60.76 318.639 56.28 305.519 56.28H288.719V115ZM296.159 85.72V62.36H304.559C314.879 62.36 320.079 65.08 320.079 73.56C320.079 81.96 315.199 85.72 304.879 85.72H296.159ZM338.626 115H345.906V71.56H338.626V115ZM342.306 62.6C345.186 62.6 347.186 60.68 347.186 57.72C347.186 54.92 345.186 53 342.306 53C339.426 53 337.426 54.92 337.426 57.72C337.426 60.68 339.426 62.6 342.306 62.6ZM360.657 115H367.937V83.48C372.337 79.08 375.377 76.84 379.857 76.84C385.617 76.84 388.097 80.28 388.097 88.44V115H395.377V87.48C395.377 76.36 391.217 70.44 382.097 70.44C376.177 70.44 371.697 73.72 367.537 77.8H367.297L366.657 71.56H360.657V115ZM423.243 116.04C425.883 116.04 428.763 115.24 431.243 114.44L429.803 109C428.363 109.56 426.363 110.12 424.843 110.12C419.803 110.12 418.123 107.08 418.123 101.72V77.48H429.883V71.56H418.123V59.32H412.043L411.163 71.56L404.363 71.96V77.48H410.843V101.56C410.843 110.2 413.963 116.04 423.243 116.04ZM447.766 116.04C453.126 116.04 458.006 113.24 462.166 109.8H462.406L463.046 115H469.046V88.28C469.046 77.56 464.566 70.44 454.006 70.44C447.046 70.44 440.886 73.56 436.886 76.12L439.766 81.16C443.206 78.84 447.766 76.52 452.806 76.52C459.926 76.52 461.766 81.88 461.766 87.48C443.286 89.56 435.046 94.28 435.046 103.72C435.046 111.56 440.486 116.04 447.766 116.04ZM449.846 110.2C445.526 110.2 442.166 108.2 442.166 103.24C442.166 97.64 447.126 94.04 461.766 92.28V104.44C457.526 108.2 454.086 110.2 449.846 110.2ZM493.615 115H501.055V62.6H518.815V56.28H475.855V62.6H493.615V115ZM537.125 116.04C543.125 116.04 547.445 112.92 551.525 108.2H551.765L552.325 115H558.405V71.56H551.125V102.36C546.965 107.56 543.845 109.72 539.365 109.72C533.605 109.72 531.205 106.28 531.205 98.2V71.56H523.925V99.08C523.925 110.12 528.005 116.04 537.125 116.04ZM590.199 116.04C595.399 116.04 600.359 114.04 604.279 110.52L601.079 105.64C598.359 108.12 594.839 109.96 590.839 109.96C582.839 109.96 577.399 103.32 577.399 93.32C577.399 83.32 583.159 76.52 591.079 76.52C594.519 76.52 597.159 78.12 599.719 80.36L603.479 75.56C600.359 72.84 596.439 70.44 590.759 70.44C579.639 70.44 569.799 78.84 569.799 93.32C569.799 107.72 578.679 116.04 590.199 116.04ZM626.422 116.04C632.422 116.04 636.742 112.92 640.822 108.2H641.062L641.622 115H647.702V71.56H640.422V102.36C636.262 107.56 633.142 109.72 628.662 109.72C622.902 109.72 620.502 106.28 620.502 98.2V71.56H613.222V99.08C613.222 110.12 617.302 116.04 626.422 116.04ZM662.376 115H669.656V83.48C673.656 79 677.336 76.84 680.616 76.84C686.136 76.84 688.696 80.28 688.696 88.44V115H695.976V83.48C700.056 79 703.576 76.84 706.936 76.84C712.456 76.84 715.016 80.28 715.016 88.44V115H722.296V87.48C722.296 76.36 718.056 70.44 709.096 70.44C703.816 70.44 699.256 73.88 694.776 78.76C693.016 73.64 689.416 70.44 682.776 70.44C677.576 70.44 673.016 73.72 669.256 77.88H669.016L668.376 71.56H662.376V115ZM746.438 116.04C751.798 116.04 756.678 113.24 760.838 109.8H761.078L761.718 115H767.718V88.28C767.718 77.56 763.238 70.44 752.678 70.44C745.718 70.44 739.558 73.56 735.558 76.12L738.438 81.16C741.878 78.84 746.438 76.52 751.478 76.52C758.598 76.52 760.438 81.88 760.438 87.48C741.958 89.56 733.718 94.28 733.718 103.72C733.718 111.56 739.158 116.04 746.438 116.04ZM748.518 110.2C744.198 110.2 740.838 108.2 740.838 103.24C740.838 97.64 745.798 94.04 760.438 92.28V104.44C756.198 108.2 752.758 110.2 748.518 110.2ZM751.718 63.72L765.718 50.12L760.598 45.24L747.958 60.12L751.718 63.72ZM781.594 115H788.874V83.48C793.274 79.08 796.314 76.84 800.794 76.84C806.554 76.84 809.034 80.28 809.034 88.44V115H816.314V87.48C816.314 76.36 812.154 70.44 803.034 70.44C797.114 70.44 792.634 73.72 788.474 77.8H788.234L787.594 71.56H781.594V115Z" fill="#F6C90E"/>
<path d="M162.16 107.64L162.916 108.295L163.487 107.635L162.911 106.98L162.16 107.64ZM158.08 103L158.831 102.34L158.097 101.505L157.345 102.322L158.08 103ZM156.72 67.32L155.987 67.9998L156.76 68.8342L157.488 67.9602L156.72 67.32ZM160.72 62.52L161.488 63.1602L162.041 62.4972L161.466 61.8537L160.72 62.52ZM144.16 117.04C152.079 117.04 158.106 113.851 162.916 108.295L161.404 106.985C156.934 112.149 151.441 115.04 144.16 115.04V117.04ZM162.911 106.98L158.831 102.34L157.329 103.66L161.409 108.3L162.911 106.98ZM157.345 102.322C153.715 106.261 149.724 108.56 144.48 108.56V110.56C150.436 110.56 154.925 107.899 158.815 103.678L157.345 102.322ZM144.48 108.56C139.188 108.56 134.925 106.383 131.957 102.466C128.967 98.5203 127.24 92.7351 127.24 85.48H125.24C125.24 93.0249 127.033 99.2797 130.363 103.674C133.715 108.097 138.572 110.56 144.48 110.56V108.56ZM127.24 85.48C127.24 78.3167 129.041 72.6152 132.096 68.7279C135.133 64.8639 139.461 62.72 144.72 62.72V60.72C138.859 60.72 133.947 63.1361 130.524 67.4921C127.119 71.8248 125.24 78.0033 125.24 85.48H127.24ZM144.72 62.72C149.413 62.72 153.084 64.8676 155.987 67.9998L157.453 66.6402C154.276 63.2124 150.107 60.72 144.72 60.72V62.72ZM157.488 67.9602L161.488 63.1602L159.952 61.8798L155.952 66.6798L157.488 67.9602ZM161.466 61.8537C157.958 57.9285 152.102 54.24 144.64 54.24V56.24C151.418 56.24 156.762 59.5915 159.974 63.1863L161.466 61.8537ZM144.64 54.24C136.928 54.24 130.15 57.2323 125.311 62.7078C120.479 68.1751 117.64 76.0465 117.64 85.72H119.64C119.64 76.4335 122.361 69.0649 126.809 64.0322C131.25 59.0077 137.472 56.24 144.64 56.24V54.24ZM117.64 85.72C117.64 95.4292 120.436 103.26 125.188 108.679C129.948 114.107 136.607 117.04 144.16 117.04V115.04C137.153 115.04 131.052 112.333 126.692 107.361C122.324 102.38 119.64 95.0508 119.64 85.72H117.64ZM198.556 108.2V107.2H198.099L197.8 107.546L198.556 108.2ZM198.796 108.2L199.793 108.118L199.717 107.2H198.796V108.2ZM199.356 115L198.36 115.082L198.435 116H199.356V115ZM205.436 115V116H206.436V115H205.436ZM205.436 71.56H206.436V70.56H205.436V71.56ZM198.156 71.56V70.56H197.156V71.56H198.156ZM198.156 102.36L198.937 102.985L199.156 102.711V102.36H198.156ZM178.236 71.56H179.236V70.56H178.236V71.56ZM170.956 71.56V70.56H169.956V71.56H170.956ZM184.156 117.04C190.578 117.04 195.15 113.67 199.313 108.854L197.8 107.546C193.803 112.17 189.735 115.04 184.156 115.04V117.04ZM198.556 109.2H198.796V107.2H198.556V109.2ZM197.8 108.282L198.36 115.082L200.353 114.918L199.793 108.118L197.8 108.282ZM199.356 116H205.436V114H199.356V116ZM206.436 115V71.56H204.436V115H206.436ZM205.436 70.56H198.156V72.56H205.436V70.56ZM197.156 71.56V102.36H199.156V71.56H197.156ZM197.375 101.735C195.32 104.305 193.581 106.045 191.857 107.148C190.164 108.231 188.452 108.72 186.396 108.72V110.72C188.821 110.72 190.909 110.129 192.935 108.832C194.932 107.555 196.833 105.615 198.937 102.985L197.375 101.735ZM186.396 108.72C183.731 108.72 182.05 107.939 180.973 106.413C179.837 104.804 179.236 102.185 179.236 98.2H177.236C177.236 102.295 177.835 105.436 179.339 107.567C180.902 109.781 183.302 110.72 186.396 110.72V108.72ZM179.236 98.2V71.56H177.236V98.2H179.236ZM178.236 70.56H170.956V72.56H178.236V70.56ZM169.956 71.56V99.08H171.956V71.56H169.956ZM169.956 99.08C169.956 104.693 170.988 109.191 173.338 112.303C175.73 115.469 179.361 117.04 184.156 117.04V115.04C179.832 115.04 176.863 113.651 174.934 111.097C172.965 108.489 171.956 104.507 171.956 99.08H169.956ZM244.51 109.8V108.8H244.15L243.873 109.029L244.51 109.8ZM244.75 109.8L245.743 109.678L245.634 108.8H244.75V109.8ZM245.39 115L244.397 115.122L244.506 116H245.39V115ZM251.39 115V116H252.39V115H251.39ZM219.23 76.12L218.691 75.2777L217.89 75.7904L218.362 76.6161L219.23 76.12ZM222.11 81.16L221.242 81.6561L221.776 82.5913L222.669 81.9891L222.11 81.16ZM244.11 87.48L244.222 88.4737L245.11 88.3738V87.48H244.11ZM244.11 92.28H245.11V91.1526L243.991 91.2871L244.11 92.28ZM244.11 104.44L244.773 105.188L245.11 104.89V104.44H244.11ZM230.11 117.04C235.817 117.04 240.922 114.064 245.147 110.571L243.873 109.029C239.778 112.416 235.123 115.04 230.11 115.04V117.04ZM244.51 110.8H244.75V108.8H244.51V110.8ZM243.757 109.922L244.397 115.122L246.383 114.878L245.743 109.678L243.757 109.922ZM245.39 116H251.39V114H245.39V116ZM252.39 115V88.28H250.39V115H252.39ZM252.39 88.28C252.39 82.8039 251.249 78.0889 248.618 74.724C245.953 71.3163 241.875 69.44 236.35 69.44V71.44C241.385 71.44 244.827 73.1237 247.042 75.956C249.291 78.8311 250.39 83.0361 250.39 88.28H252.39ZM236.35 69.44C229.106 69.44 222.75 72.6797 218.691 75.2777L219.769 76.9623C223.71 74.4403 229.674 71.44 236.35 71.44V69.44ZM218.362 76.6161L221.242 81.6561L222.978 80.6639L220.098 75.6239L218.362 76.6161ZM222.669 81.9891C226.048 79.7101 230.406 77.52 235.15 77.52V75.52C229.814 75.52 225.052 77.9699 221.551 80.3309L222.669 81.9891ZM235.15 77.52C238.417 77.52 240.323 78.7253 241.466 80.4519C242.657 82.2514 243.11 84.7576 243.11 87.48H245.11C245.11 84.6024 244.643 81.6286 243.134 79.3481C241.577 76.9947 239.003 75.52 235.15 75.52V77.52ZM243.998 86.4863C234.726 87.5299 227.867 89.2475 223.306 91.9823C221.009 93.3595 219.267 95.0103 218.105 96.9851C216.94 98.9633 216.39 101.209 216.39 103.72H218.39C218.39 101.511 218.87 99.6267 219.828 97.9999C220.788 96.3697 222.261 94.9405 224.334 93.6977C228.513 91.1925 235.014 89.5101 244.222 88.4737L243.998 86.4863ZM216.39 103.72C216.39 107.884 217.842 111.242 220.341 113.554C222.829 115.856 226.268 117.04 230.11 117.04V115.04C226.672 115.04 223.751 113.984 221.699 112.086C219.658 110.198 218.39 107.396 218.39 103.72H216.39ZM232.19 109.2C230.166 109.2 228.501 108.729 227.36 107.804C226.254 106.906 225.51 105.475 225.51 103.24H223.51C223.51 105.965 224.446 108.014 226.1 109.356C227.719 110.671 229.894 111.2 232.19 111.2V109.2ZM225.51 103.24C225.51 101.995 225.784 100.903 226.371 99.9282C226.961 98.9479 227.903 98.026 229.33 97.1802C232.214 95.4702 236.942 94.1489 244.229 93.2729L243.991 91.2871C236.638 92.1711 231.566 93.5298 228.31 95.4598C226.667 96.434 225.454 97.5721 224.657 98.8968C223.856 100.227 223.51 101.685 223.51 103.24H225.51ZM243.11 92.28V104.44H245.11V92.28H243.11ZM243.447 103.692C239.262 107.403 236.057 109.2 232.19 109.2V111.2C236.803 111.2 240.478 108.997 244.773 105.188L243.447 103.692ZM277.186 115.4L277.545 116.333L278.321 116.035L278.169 115.217L277.186 115.4ZM276.146 109.8L277.129 109.617L276.944 108.621L275.95 108.819L276.146 109.8ZM272.546 51.32H273.546V50.32H272.546V51.32ZM265.266 51.32V50.32H264.266V51.32H265.266ZM272.946 117.04C275.036 117.04 276.363 116.788 277.545 116.333L276.827 114.467C275.929 114.812 274.857 115.04 272.946 115.04V117.04ZM278.169 115.217L277.129 109.617L275.163 109.983L276.203 115.583L278.169 115.217ZM275.95 108.819C275.229 108.964 274.977 108.96 274.626 108.96V110.96C275.075 110.96 275.463 110.956 276.342 110.781L275.95 108.819ZM274.626 108.96C274.353 108.96 274.138 108.866 273.962 108.635C273.762 108.371 273.546 107.835 273.546 106.84H271.546C271.546 108.085 271.811 109.109 272.37 109.845C272.954 110.614 273.78 110.96 274.626 110.96V108.96ZM273.546 106.84V51.32H271.546V106.84H273.546ZM272.546 50.32H265.266V52.32H272.546V50.32ZM264.266 51.32V106.36H266.266V51.32H264.266ZM264.266 106.36C264.266 109.53 264.837 112.208 266.267 114.111C267.739 116.07 269.992 117.04 272.946 117.04V115.04C270.461 115.04 268.873 114.25 267.866 112.909C266.816 111.512 266.266 109.35 266.266 106.36H264.266ZM288.719 115H287.719V116H288.719V115ZM296.159 115V116H297.159V115H296.159ZM296.159 91.72V90.72H295.159V91.72H296.159ZM288.719 56.28V55.28H287.719V56.28H288.719ZM296.159 85.72H295.159V86.72H296.159V85.72ZM296.159 62.36V61.36H295.159V62.36H296.159ZM288.719 116H296.159V114H288.719V116ZM297.159 115V91.72H295.159V115H297.159ZM296.159 92.72H305.839V90.72H296.159V92.72ZM305.839 92.72C312.409 92.72 318.059 91.2535 322.088 88.0751C326.154 84.8672 328.439 80.0175 328.439 73.56H326.439C326.439 79.5025 324.363 83.7328 320.849 86.5049C317.298 89.3065 312.149 90.72 305.839 90.72V92.72ZM328.439 73.56C328.439 66.9026 326.132 62.2471 321.977 59.304C317.888 56.4078 312.16 55.28 305.519 55.28V57.28C311.998 57.28 317.229 58.3922 320.821 60.936C324.346 63.4329 326.439 67.4174 326.439 73.56H328.439ZM305.519 55.28H288.719V57.28H305.519V55.28ZM287.719 56.28V115H289.719V56.28H287.719ZM297.159 85.72V62.36H295.159V85.72H297.159ZM296.159 63.36H304.559V61.36H296.159V63.36ZM304.559 63.36C309.679 63.36 313.301 64.0449 315.631 65.6101C317.865 67.1105 319.079 69.5434 319.079 73.56H321.079C321.079 69.0966 319.693 65.9295 316.746 63.9499C313.896 62.0351 309.758 61.36 304.559 61.36V63.36ZM319.079 73.56C319.079 77.5603 317.926 80.2632 315.727 82.0064C313.478 83.7896 309.951 84.72 304.879 84.72V86.72C310.126 86.72 314.199 85.7704 316.97 83.5736C319.791 81.3368 321.079 77.9597 321.079 73.56H319.079ZM304.879 84.72H296.159V86.72H304.879V84.72ZM338.626 115H337.626V116H338.626V115ZM345.906 115V116H346.906V115H345.906ZM345.906 71.56H346.906V70.56H345.906V71.56ZM338.626 71.56V70.56H337.626V71.56H338.626ZM338.626 116H345.906V114H338.626V116ZM346.906 115V71.56H344.906V115H346.906ZM345.906 70.56H338.626V72.56H345.906V70.56ZM337.626 71.56V115H339.626V71.56H337.626ZM342.306 63.6C343.972 63.6 345.457 63.0408 346.529 61.9812C347.602 60.9199 348.186 59.4318 348.186 57.72H346.186C346.186 58.9682 345.769 59.9201 345.123 60.5588C344.475 61.1992 343.52 61.6 342.306 61.6V63.6ZM348.186 57.72C348.186 56.0731 347.592 54.6252 346.52 53.5905C345.451 52.5585 343.971 52 342.306 52V54C343.52 54 344.48 54.4015 345.131 55.0295C345.779 55.6547 346.186 56.5669 346.186 57.72H348.186ZM342.306 52C340.64 52 339.16 52.5585 338.091 53.5905C337.019 54.6252 336.426 56.0731 336.426 57.72H338.426C338.426 56.5669 338.832 55.6547 339.48 55.0295C340.131 54.4015 341.091 54 342.306 54V52ZM336.426 57.72C336.426 59.4318 337.009 60.9199 338.083 61.9812C339.155 63.0408 340.64 63.6 342.306 63.6V61.6C341.092 61.6 340.137 61.1992 339.489 60.5588C338.842 59.9201 338.426 58.9682 338.426 57.72H336.426ZM360.657 115H359.657V116H360.657V115ZM367.937 115V116H368.937V115H367.937ZM367.937 83.48L367.23 82.7729L366.937 83.0658V83.48H367.937ZM388.097 115H387.097V116H388.097V115ZM395.377 115V116H396.377V115H395.377ZM367.537 77.8V78.8H367.945L368.237 78.5139L367.537 77.8ZM367.297 77.8L366.302 77.902L366.394 78.8H367.297V77.8ZM366.657 71.56L367.652 71.458L367.56 70.56H366.657V71.56ZM360.657 71.56V70.56H359.657V71.56H360.657ZM360.657 116H367.937V114H360.657V116ZM368.937 115V83.48H366.937V115H368.937ZM368.644 84.1871C373.027 79.8041 375.812 77.84 379.857 77.84V75.84C374.942 75.84 371.647 78.3559 367.23 82.7729L368.644 84.1871ZM379.857 77.84C382.523 77.84 384.226 78.6215 385.323 80.1604C386.477 81.78 387.097 84.418 387.097 88.44H389.097C389.097 84.302 388.477 81.14 386.951 78.9996C385.368 76.7785 382.951 75.84 379.857 75.84V77.84ZM387.097 88.44V115H389.097V88.44H387.097ZM388.097 116H395.377V114H388.097V116ZM396.377 115V87.48H394.377V115H396.377ZM396.377 87.48C396.377 81.8249 395.324 77.3068 392.953 74.1851C390.542 71.0103 386.892 69.44 382.097 69.44V71.44C386.422 71.44 389.412 72.8297 391.361 75.3949C393.349 78.0132 394.377 82.0151 394.377 87.48H396.377ZM382.097 69.44C375.766 69.44 371.04 72.9635 366.837 77.0861L368.237 78.5139C372.354 74.4765 376.588 71.44 382.097 71.44V69.44ZM367.537 76.8H367.297V78.8H367.537V76.8ZM368.292 77.698L367.652 71.458L365.662 71.662L366.302 77.902L368.292 77.698ZM366.657 70.56H360.657V72.56H366.657V70.56ZM359.657 71.56V115H361.657V71.56H359.657ZM431.243 114.44L431.55 115.392L432.452 115.101L432.21 114.184L431.243 114.44ZM429.803 109L430.77 108.744L430.484 107.662L429.441 108.068L429.803 109ZM418.123 77.48V76.48H417.123V77.48H418.123ZM429.883 77.48V78.48H430.883V77.48H429.883ZM429.883 71.56H430.883V70.56H429.883V71.56ZM418.123 71.56H417.123V72.56H418.123V71.56ZM418.123 59.32H419.123V58.32H418.123V59.32ZM412.043 59.32V58.32H411.112L411.046 59.2483L412.043 59.32ZM411.163 71.56L411.222 72.5583L412.098 72.5068L412.161 71.6317L411.163 71.56ZM404.363 71.96L404.304 70.9617L403.363 71.0171V71.96H404.363ZM404.363 77.48H403.363V78.48H404.363V77.48ZM410.843 77.48H411.843V76.48H410.843V77.48ZM423.243 117.04C426.054 117.04 429.065 116.193 431.55 115.392L430.936 113.488C428.462 114.287 425.713 115.04 423.243 115.04V117.04ZM432.21 114.184L430.77 108.744L428.836 109.256L430.276 114.696L432.21 114.184ZM429.441 108.068C428.042 108.612 426.179 109.12 424.843 109.12V111.12C426.547 111.12 428.684 110.508 430.166 109.932L429.441 108.068ZM424.843 109.12C422.536 109.12 421.206 108.437 420.399 107.338C419.541 106.17 419.123 104.336 419.123 101.72H417.123C417.123 104.464 417.545 106.83 418.787 108.522C420.08 110.283 422.11 111.12 424.843 111.12V109.12ZM419.123 101.72V77.48H417.123V101.72H419.123ZM418.123 78.48H429.883V76.48H418.123V78.48ZM430.883 77.48V71.56H428.883V77.48H430.883ZM429.883 70.56H418.123V72.56H429.883V70.56ZM419.123 71.56V59.32H417.123V71.56H419.123ZM418.123 58.32H412.043V60.32H418.123V58.32ZM411.046 59.2483L410.166 71.4883L412.161 71.6317L413.041 59.3917L411.046 59.2483ZM411.104 70.5617L404.304 70.9617L404.422 72.9583L411.222 72.5583L411.104 70.5617ZM403.363 71.96V77.48H405.363V71.96H403.363ZM404.363 78.48H410.843V76.48H404.363V78.48ZM409.843 77.48V101.56H411.843V77.48H409.843ZM409.843 101.56C409.843 105.969 410.633 109.851 412.768 112.647C414.945 115.497 418.379 117.04 423.243 117.04V115.04C418.828 115.04 416.061 113.663 414.358 111.433C412.613 109.149 411.843 105.791 411.843 101.56H409.843ZM462.166 109.8V108.8H461.806L461.529 109.029L462.166 109.8ZM462.406 109.8L463.399 109.678L463.291 108.8H462.406V109.8ZM463.046 115L462.054 115.122L462.162 116H463.046V115ZM469.046 115V116H470.046V115H469.046ZM436.886 76.12L436.347 75.2777L435.546 75.7904L436.018 76.6161L436.886 76.12ZM439.766 81.16L438.898 81.6561L439.432 82.5913L440.325 81.9891L439.766 81.16ZM461.766 87.48L461.878 88.4737L462.766 88.3738V87.48H461.766ZM461.766 92.28H462.766V91.1526L461.647 91.2871L461.766 92.28ZM461.766 104.44L462.43 105.188L462.766 104.89V104.44H461.766ZM447.766 117.04C453.473 117.04 458.579 114.064 462.804 110.571L461.529 109.029C457.434 112.416 452.779 115.04 447.766 115.04V117.04ZM462.166 110.8H462.406V108.8H462.166V110.8ZM461.414 109.922L462.054 115.122L464.039 114.878L463.399 109.678L461.414 109.922ZM463.046 116H469.046V114H463.046V116ZM470.046 115V88.28H468.046V115H470.046ZM470.046 88.28C470.046 82.8039 468.905 78.0889 466.274 74.724C463.609 71.3163 459.531 69.44 454.006 69.44V71.44C459.041 71.44 462.483 73.1237 464.699 75.956C466.947 78.8311 468.046 83.0361 468.046 88.28H470.046ZM454.006 69.44C446.763 69.44 440.407 72.6797 436.347 75.2777L437.425 76.9623C441.366 74.4403 447.33 71.44 454.006 71.44V69.44ZM436.018 76.6161L438.898 81.6561L440.634 80.6639L437.754 75.6239L436.018 76.6161ZM440.325 81.9891C443.705 79.7101 448.062 77.52 452.806 77.52V75.52C447.47 75.52 442.708 77.9699 439.207 80.3309L440.325 81.9891ZM452.806 77.52C456.073 77.52 457.98 78.7253 459.122 80.4519C460.313 82.2514 460.766 84.7576 460.766 87.48H462.766C462.766 84.6024 462.299 81.6286 460.79 79.3481C459.233 76.9947 456.659 75.52 452.806 75.52V77.52ZM461.654 86.4863C452.382 87.5299 445.524 89.2475 440.962 91.9823C438.665 93.3595 436.924 95.0103 435.761 96.9851C434.596 98.9633 434.046 101.209 434.046 103.72H436.046C436.046 101.511 436.526 99.6267 437.484 97.9999C438.444 96.3697 439.918 94.9405 441.99 93.6977C446.169 91.1925 452.67 89.5101 461.878 88.4737L461.654 86.4863ZM434.046 103.72C434.046 107.884 435.498 111.242 437.997 113.554C440.485 115.856 443.924 117.04 447.766 117.04V115.04C444.328 115.04 441.407 113.984 439.355 112.086C437.314 110.198 436.046 107.396 436.046 103.72H434.046ZM449.846 109.2C447.822 109.2 446.157 108.729 445.016 107.804C443.911 106.906 443.166 105.475 443.166 103.24H441.166C441.166 105.965 442.102 108.014 443.756 109.356C445.376 110.671 447.551 111.2 449.846 111.2V109.2ZM443.166 103.24C443.166 101.995 443.44 100.903 444.027 99.9282C444.617 98.9479 445.559 98.026 446.986 97.1802C449.871 95.4702 454.599 94.1489 461.886 93.2729L461.647 91.2871C454.294 92.1711 449.222 93.5298 445.966 95.4598C444.323 96.434 443.111 97.5721 442.313 98.8968C441.513 100.227 441.166 101.685 441.166 103.24H443.166ZM460.766 92.28V104.44H462.766V92.28H460.766ZM461.103 103.692C456.918 107.403 453.713 109.2 449.846 109.2V111.2C454.46 111.2 458.134 108.997 462.43 105.188L461.103 103.692ZM493.615 115H492.615V116H493.615V115ZM501.055 115V116H502.055V115H501.055ZM501.055 62.6V61.6H500.055V62.6H501.055ZM518.815 62.6V63.6H519.815V62.6H518.815ZM518.815 56.28H519.815V55.28H518.815V56.28ZM475.855 56.28V55.28H474.855V56.28H475.855ZM475.855 62.6H474.855V63.6H475.855V62.6ZM493.615 62.6H494.615V61.6H493.615V62.6ZM493.615 116H501.055V114H493.615V116ZM502.055 115V62.6H500.055V115H502.055ZM501.055 63.6H518.815V61.6H501.055V63.6ZM519.815 62.6V56.28H517.815V62.6H519.815ZM518.815 55.28H475.855V57.28H518.815V55.28ZM474.855 56.28V62.6H476.855V56.28H474.855ZM475.855 63.6H493.615V61.6H475.855V63.6ZM492.615 62.6V115H494.615V62.6H492.615ZM551.525 108.2V107.2H551.068L550.768 107.546L551.525 108.2ZM551.765 108.2L552.762 108.118L552.686 107.2H551.765V108.2ZM552.325 115L551.328 115.082L551.404 116H552.325V115ZM558.405 115V116H559.405V115H558.405ZM558.405 71.56H559.405V70.56H558.405V71.56ZM551.125 71.56V70.56H550.125V71.56H551.125ZM551.125 102.36L551.906 102.985L552.125 102.711V102.36H551.125ZM531.205 71.56H532.205V70.56H531.205V71.56ZM523.925 71.56V70.56H522.925V71.56H523.925ZM537.125 117.04C543.547 117.04 548.119 113.67 552.282 108.854L550.768 107.546C546.771 112.17 542.703 115.04 537.125 115.04V117.04ZM551.525 109.2H551.765V107.2H551.525V109.2ZM550.768 108.282L551.328 115.082L553.322 114.918L552.762 108.118L550.768 108.282ZM552.325 116H558.405V114H552.325V116ZM559.405 115V71.56H557.405V115H559.405ZM558.405 70.56H551.125V72.56H558.405V70.56ZM550.125 71.56V102.36H552.125V71.56H550.125ZM550.344 101.735C548.289 104.305 546.549 106.045 544.826 107.148C543.133 108.231 541.421 108.72 539.365 108.72V110.72C541.789 110.72 543.877 110.129 545.904 108.832C547.901 107.555 549.801 105.615 551.906 102.985L550.344 101.735ZM539.365 108.72C536.7 108.72 535.019 107.939 533.942 106.413C532.806 104.804 532.205 102.185 532.205 98.2H530.205C530.205 102.295 530.804 105.436 532.308 107.567C533.871 109.781 536.27 110.72 539.365 110.72V108.72ZM532.205 98.2V71.56H530.205V98.2H532.205ZM531.205 70.56H523.925V72.56H531.205V70.56ZM522.925 71.56V99.08H524.925V71.56H522.925ZM522.925 99.08C522.925 104.693 523.957 109.191 526.307 112.303C528.699 115.469 532.33 117.04 537.125 117.04V115.04C532.8 115.04 529.831 113.651 527.903 111.097C525.933 108.489 524.925 104.507 524.925 99.08H522.925ZM604.279 110.52L604.947 111.264L605.586 110.69L605.115 109.972L604.279 110.52ZM601.079 105.64L601.915 105.092L601.272 104.111L600.405 104.901L601.079 105.64ZM599.719 80.36L599.06 81.1126L599.855 81.8079L600.506 80.9767L599.719 80.36ZM603.479 75.56L604.266 76.1767L604.851 75.4297L604.136 74.8062L603.479 75.56ZM590.199 117.04C595.66 117.04 600.854 114.939 604.947 111.264L603.611 109.776C599.863 113.141 595.138 115.04 590.199 115.04V117.04ZM605.115 109.972L601.915 105.092L600.243 106.188L603.443 111.068L605.115 109.972ZM600.405 104.901C597.811 107.266 594.521 108.96 590.839 108.96V110.96C595.156 110.96 598.906 108.974 601.753 106.379L600.405 104.901ZM590.839 108.96C587.14 108.96 584.065 107.436 581.895 104.76C579.711 102.067 578.399 98.1463 578.399 93.32H576.399C576.399 98.4937 577.806 102.893 580.342 106.02C582.892 109.164 586.538 110.96 590.839 110.96V108.96ZM578.399 93.32C578.399 83.6821 583.884 77.52 591.079 77.52V75.52C582.434 75.52 576.399 82.9579 576.399 93.32H578.399ZM591.079 77.52C594.164 77.52 596.575 78.9377 599.06 81.1126L600.377 79.6074C597.743 77.3023 594.874 75.52 591.079 75.52V77.52ZM600.506 80.9767L604.266 76.1767L602.692 74.9433L598.932 79.7433L600.506 80.9767ZM604.136 74.8062C600.911 71.9946 596.766 69.44 590.759 69.44V71.44C596.112 71.44 599.807 73.6854 602.822 76.3138L604.136 74.8062ZM590.759 69.44C579.072 69.44 568.799 78.3023 568.799 93.32H570.799C570.799 79.3776 580.206 71.44 590.759 71.44V69.44ZM568.799 93.32C568.799 100.728 571.086 106.669 574.951 110.766C578.818 114.865 584.191 117.04 590.199 117.04V115.04C584.687 115.04 579.859 113.055 576.406 109.394C572.951 105.731 570.799 100.312 570.799 93.32H568.799ZM640.822 108.2V107.2H640.364L640.065 107.546L640.822 108.2ZM641.062 108.2L642.059 108.118L641.983 107.2H641.062V108.2ZM641.622 115L640.625 115.082L640.701 116H641.622V115ZM647.702 115V116H648.702V115H647.702ZM647.702 71.56H648.702V70.56H647.702V71.56ZM640.422 71.56V70.56H639.422V71.56H640.422ZM640.422 102.36L641.203 102.985L641.422 102.711V102.36H640.422ZM620.502 71.56H621.502V70.56H620.502V71.56ZM613.222 71.56V70.56H612.222V71.56H613.222ZM626.422 117.04C632.843 117.04 637.415 113.67 641.578 108.854L640.065 107.546C636.068 112.17 632 115.04 626.422 115.04V117.04ZM640.822 109.2H641.062V107.2H640.822V109.2ZM640.065 108.282L640.625 115.082L642.619 114.918L642.059 108.118L640.065 108.282ZM641.622 116H647.702V114H641.622V116ZM648.702 115V71.56H646.702V115H648.702ZM647.702 70.56H640.422V72.56H647.702V70.56ZM639.422 71.56V102.36H641.422V71.56H639.422ZM639.641 101.735C637.586 104.305 635.846 106.045 634.123 107.148C632.429 108.231 630.718 108.72 628.662 108.72V110.72C631.086 110.72 633.174 110.129 635.201 108.832C637.197 107.555 639.098 105.615 641.203 102.985L639.641 101.735ZM628.662 108.72C625.996 108.72 624.316 107.939 623.239 106.413C622.103 104.804 621.502 102.185 621.502 98.2H619.502C619.502 102.295 620.101 105.436 621.605 107.567C623.168 109.781 625.567 110.72 628.662 110.72V108.72ZM621.502 98.2V71.56H619.502V98.2H621.502ZM620.502 70.56H613.222V72.56H620.502V70.56ZM612.222 71.56V99.08H614.222V71.56H612.222ZM612.222 99.08C612.222 104.693 613.254 109.191 615.604 112.303C617.996 115.469 621.627 117.04 626.422 117.04V115.04C622.097 115.04 619.128 113.651 617.2 111.097C615.23 108.489 614.222 104.507 614.222 99.08H612.222ZM662.376 115H661.376V116H662.376V115ZM669.656 115V116H670.656V115H669.656ZM669.656 83.48L668.91 82.814L668.656 83.0985V83.48H669.656ZM688.696 115H687.696V116H688.696V115ZM695.976 115V116H696.976V115H695.976ZM695.976 83.48L695.236 82.8067L694.976 83.0929V83.48H695.976ZM715.016 115H714.016V116H715.016V115ZM722.296 115V116H723.296V115H722.296ZM694.776 78.76L693.83 79.0851L694.376 80.6739L695.512 79.4363L694.776 78.76ZM669.256 77.88V78.88H669.7L669.997 78.5505L669.256 77.88ZM669.016 77.88L668.021 77.9807L668.112 78.88H669.016V77.88ZM668.376 71.56L669.371 71.4592L669.279 70.56H668.376V71.56ZM662.376 71.56V70.56H661.376V71.56H662.376ZM662.376 116H669.656V114H662.376V116ZM670.656 115V83.48H668.656V115H670.656ZM670.402 84.146C674.344 79.7302 677.772 77.84 680.616 77.84V75.84C676.899 75.84 672.967 78.2698 668.91 82.814L670.402 84.146ZM680.616 77.84C683.147 77.84 684.816 78.6125 685.909 80.1575C687.058 81.781 687.696 84.4243 687.696 88.44H689.696C689.696 84.2957 689.053 81.139 687.542 79.0025C685.975 76.7875 683.604 75.84 680.616 75.84V77.84ZM687.696 88.44V115H689.696V88.44H687.696ZM688.696 116H695.976V114H688.696V116ZM696.976 115V83.48H694.976V115H696.976ZM696.715 84.1533C700.752 79.7211 704.018 77.84 706.936 77.84V75.84C703.133 75.84 699.36 78.2789 695.236 82.8067L696.715 84.1533ZM706.936 77.84C709.467 77.84 711.136 78.6125 712.229 80.1575C713.378 81.781 714.016 84.4243 714.016 88.44H716.016C716.016 84.2957 715.373 81.139 713.862 79.0025C712.295 76.7875 709.924 75.84 706.936 75.84V77.84ZM714.016 88.44V115H716.016V88.44H714.016ZM715.016 116H722.296V114H715.016V116ZM723.296 115V87.48H721.296V115H723.296ZM723.296 87.48C723.296 81.821 722.222 77.3049 719.852 74.1851C717.443 71.0138 713.816 69.44 709.096 69.44V71.44C713.335 71.44 716.308 72.8262 718.259 75.3949C720.25 78.0151 721.296 82.019 721.296 87.48H723.296ZM709.096 69.44C703.362 69.44 698.545 73.1753 694.039 78.0837L695.512 79.4363C699.966 74.5847 704.269 71.44 709.096 71.44V69.44ZM695.721 78.4349C694.794 75.7379 693.354 73.4663 691.2 71.8756C689.042 70.2821 686.26 69.44 682.776 69.44V71.44C685.931 71.44 688.269 72.1979 690.012 73.4844C691.757 74.7737 692.997 76.6621 693.83 79.0851L695.721 78.4349ZM682.776 69.44C677.145 69.44 672.334 72.9831 668.514 77.2095L669.997 78.5505C673.697 74.4569 678.007 71.44 682.776 71.44V69.44ZM669.256 76.88H669.016V78.88H669.256V76.88ZM670.011 77.7792L669.371 71.4592L667.381 71.6607L668.021 77.9807L670.011 77.7792ZM668.376 70.56H662.376V72.56H668.376V70.56ZM661.376 71.56V115H663.376V71.56H661.376ZM760.838 109.8V108.8H760.478L760.201 109.029L760.838 109.8ZM761.078 109.8L762.071 109.678L761.963 108.8H761.078V109.8ZM761.718 115L760.726 115.122L760.834 116H761.718V115ZM767.718 115V116H768.718V115H767.718ZM735.558 76.12L735.019 75.2777L734.218 75.7904L734.69 76.6161L735.558 76.12ZM738.438 81.16L737.57 81.6561L738.104 82.5913L738.997 81.9891L738.438 81.16ZM760.438 87.48L760.55 88.4737L761.438 88.3738V87.48H760.438ZM760.438 92.28H761.438V91.1526L760.319 91.2871L760.438 92.28ZM760.438 104.44L761.102 105.188L761.438 104.89V104.44H760.438ZM751.718 63.72L751.027 64.4423L751.723 65.1093L752.415 64.4373L751.718 63.72ZM765.718 50.12L766.415 50.8373L767.16 50.1131L766.408 49.3961L765.718 50.12ZM760.598 45.24L761.288 44.5161L760.522 43.7855L759.836 44.5926L760.598 45.24ZM747.958 60.12L747.196 59.4726L746.586 60.1907L747.267 60.8423L747.958 60.12ZM746.438 117.04C752.145 117.04 757.251 114.064 761.475 110.571L760.201 109.029C756.106 112.416 751.451 115.04 746.438 115.04V117.04ZM760.838 110.8H761.078V108.8H760.838V110.8ZM760.086 109.922L760.726 115.122L762.711 114.878L762.071 109.678L760.086 109.922ZM761.718 116H767.718V114H761.718V116ZM768.718 115V88.28H766.718V115H768.718ZM768.718 88.28C768.718 82.8039 767.577 78.0889 764.946 74.724C762.281 71.3163 758.203 69.44 752.678 69.44V71.44C757.713 71.44 761.155 73.1237 763.37 75.956C765.619 78.8311 766.718 83.0361 766.718 88.28H768.718ZM752.678 69.44C745.435 69.44 739.079 72.6797 735.019 75.2777L736.097 76.9623C740.038 74.4403 746.002 71.44 752.678 71.44V69.44ZM734.69 76.6161L737.57 81.6561L739.306 80.6639L736.426 75.6239L734.69 76.6161ZM738.997 81.9891C742.376 79.7101 746.734 77.52 751.478 77.52V75.52C746.142 75.52 741.38 77.9699 737.879 80.3309L738.997 81.9891ZM751.478 77.52C754.745 77.52 756.652 78.7253 757.794 80.4519C758.985 82.2514 759.438 84.7576 759.438 87.48H761.438C761.438 84.6024 760.971 81.6286 759.462 79.3481C757.905 76.9947 755.331 75.52 751.478 75.52V77.52ZM760.326 86.4863C751.054 87.5299 744.195 89.2475 739.634 91.9823C737.337 93.3595 735.595 95.0103 734.433 96.9851C733.268 98.9633 732.718 101.209 732.718 103.72H734.718C734.718 101.511 735.198 99.6267 736.156 97.9999C737.116 96.3697 738.589 94.9405 740.662 93.6977C744.841 91.1925 751.342 89.5101 760.55 88.4737L760.326 86.4863ZM732.718 103.72C732.718 107.884 734.17 111.242 736.669 113.554C739.157 115.856 742.596 117.04 746.438 117.04V115.04C743 115.04 740.079 113.984 738.027 112.086C735.986 110.198 734.718 107.396 734.718 103.72H732.718ZM748.518 109.2C746.494 109.2 744.829 108.729 743.688 107.804C742.583 106.906 741.838 105.475 741.838 103.24H739.838C739.838 105.965 740.774 108.014 742.428 109.356C744.047 110.671 746.223 111.2 748.518 111.2V109.2ZM741.838 103.24C741.838 101.995 742.112 100.903 742.699 99.9282C743.289 98.9479 744.231 98.026 745.658 97.1802C748.543 95.4702 753.271 94.1489 760.557 93.2729L760.319 91.2871C752.966 92.1711 747.894 93.5298 744.638 95.4598C742.995 96.434 741.783 97.5721 740.985 98.8968C740.185 100.227 739.838 101.685 739.838 103.24H741.838ZM759.438 92.28V104.44H761.438V92.28H759.438ZM759.775 103.692C755.59 107.403 752.385 109.2 748.518 109.2V111.2C753.131 111.2 756.806 108.997 761.102 105.188L759.775 103.692ZM752.415 64.4373L766.415 50.8373L765.021 49.4027L751.021 63.0027L752.415 64.4373ZM766.408 49.3961L761.288 44.5161L759.908 45.9639L765.028 50.8439L766.408 49.3961ZM759.836 44.5926L747.196 59.4726L748.72 60.7674L761.36 45.8874L759.836 44.5926ZM747.267 60.8423L751.027 64.4423L752.41 62.9977L748.65 59.3977L747.267 60.8423ZM781.594 115H780.594V116H781.594V115ZM788.874 115V116H789.874V115H788.874ZM788.874 83.48L788.167 82.7729L787.874 83.0658V83.48H788.874ZM809.034 115H808.034V116H809.034V115ZM816.314 115V116H817.314V115H816.314ZM788.474 77.8V78.8H788.883L789.175 78.5139L788.474 77.8ZM788.234 77.8L787.24 77.902L787.332 78.8H788.234V77.8ZM787.594 71.56L788.589 71.458L788.497 70.56H787.594V71.56ZM781.594 71.56V70.56H780.594V71.56H781.594ZM781.594 116H788.874V114H781.594V116ZM789.874 115V83.48H787.874V115H789.874ZM789.581 84.1871C793.965 79.8041 796.75 77.84 800.794 77.84V75.84C795.879 75.84 792.584 78.3559 788.167 82.7729L789.581 84.1871ZM800.794 77.84C803.46 77.84 805.163 78.6215 806.26 80.1604C807.414 81.78 808.034 84.418 808.034 88.44H810.034C810.034 84.302 809.414 81.14 807.889 78.9996C806.306 76.7785 803.889 75.84 800.794 75.84V77.84ZM808.034 88.44V115H810.034V88.44H808.034ZM809.034 116H816.314V114H809.034V116ZM817.314 115V87.48H815.314V115H817.314ZM817.314 87.48C817.314 81.8249 816.262 77.3068 813.891 74.1851C811.479 71.0103 807.829 69.44 803.034 69.44V71.44C807.359 71.44 810.35 72.8297 812.298 75.3949C814.287 78.0132 815.314 82.0151 815.314 87.48H817.314ZM803.034 69.44C796.704 69.44 791.978 72.9635 787.774 77.0861L789.175 78.5139C793.291 74.4765 797.525 71.44 803.034 71.44V69.44ZM788.474 76.8H788.234V78.8H788.474V76.8ZM789.229 77.698L788.589 71.458L786.6 71.662L787.24 77.902L789.229 77.698ZM787.594 70.56H781.594V72.56H787.594V70.56ZM780.594 71.56V115H782.594V71.56H780.594Z" fill="black"/>
</g>
<path d="M81.579 29.8924L19.2598 30.0235V110.086C19.2598 115.35 23.2475 119.617 28.166 119.617H72.6973C77.6157 119.617 81.6035 115.35 81.6035 110.086V29.9401L81.579 29.8924Z" fill="#95E7EE"/>
<path d="M81.6035 110.086V29.9401L81.579 29.8924L19.2598 30.0235V110.086H81.6035Z" fill="#F6C90E"/>
<path d="M103.869 50.2773V91.0234C103.869 96.2871 99.8814 100.555 94.9629 100.555H81.6035V91.0234H94.9629V50.2773H81.6035V40.7461H94.9629C99.8814 40.7461 103.869 45.0137 103.869 50.2773Z" fill="#95E7EE"/>
<path d="M85.8229 19.47C87.5173 27.5174 79.7606 33.956 72.4746 29.9901V50.1082C72.4746 52.7388 70.4818 54.8738 68.0215 54.8738C65.5611 54.8738 63.5684 52.7388 63.5684 50.1082V40.5769C63.5684 37.2863 63.6797 31.2148 53.7715 31.2148C52.9677 31.2148 52.1995 31.5627 51.6429 32.1799C49.6189 34.4197 46.7823 35.8113 43.6406 35.8113C40.6014 35.8113 37.8471 34.5079 35.8388 32.3943C35.1196 31.639 34.151 31.2148 33.0956 31.2148C32.2473 31.2148 31.4725 31.7319 31.1006 32.5468C28.9498 37.26 24.4811 40.5293 19.2598 40.5769V59.587C19.1484 62.27 17.1557 64.405 14.6953 64.405C12.235 64.405 10.1309 62.27 10.1309 59.6394C10.1309 56.521 10.1309 34.3528 10.1309 31.0457C10.1309 19.7106 19.4846 10.6869 30.3391 12.1762C33.3784 6.37879 39.1942 2.38281 45.8672 2.38281C51.1441 2.38281 55.8845 4.90621 59.1464 8.80926C60.4913 7.89902 62.0855 7.38672 63.791 7.38672C67.6764 7.38672 70.9806 10.0483 72.1963 13.7607C74.1089 12.3882 76.547 11.7878 79.1187 12.3787C82.3873 13.1269 85.0903 15.9815 85.8229 19.47Z" fill="#EEEEEE"/>
<path d="M63.6797 107.534C62.4506 107.534 61.4531 108.601 61.4531 109.917C61.4531 111.232 62.4506 112.3 63.6797 112.3C64.9087 112.3 65.9062 111.232 65.9062 109.917C65.9062 108.601 64.9087 107.534 63.6797 107.534Z" fill="black"/>
<path d="M32.3965 47.7253C31.1668 47.7253 30.1699 48.7921 30.1699 50.1082V95.6199C30.1699 96.9359 31.1668 98.0027 32.3965 98.0027C33.6262 98.0027 34.623 96.9359 34.623 95.6199V50.1082C34.623 48.7921 33.6262 47.7253 32.3965 47.7253Z" fill="black"/>
<path d="M50.209 47.7253C48.9793 47.7253 47.9824 48.7921 47.9824 50.1082V95.6199C47.9824 96.9359 48.9793 98.0027 50.209 98.0027C51.4387 98.0027 52.4355 96.9359 52.4355 95.6199V50.1082C52.4355 48.7921 51.4387 47.7253 50.209 47.7253Z" fill="black"/>
<path d="M28.166 122H72.6973C78.8359 122 83.8301 116.655 83.8301 110.086V102.938H94.9629C101.102 102.938 106.096 97.5929 106.096 91.0234V50.2773C106.096 43.7079 101.102 38.3633 94.9629 38.3633H83.8301V31.1531C87.3202 28.3531 88.979 23.6203 87.9953 18.9474C87.0751 14.5654 83.6951 10.9893 79.586 10.0488C77.4015 9.54721 75.2015 9.72473 73.1969 10.5404C71.1868 7.14891 67.6568 5.00391 63.791 5.00391C62.334 5.00391 60.9101 5.30629 59.5935 5.88817C55.8667 2.12595 50.9533 0 45.8672 0C39.1394 0 32.865 3.66786 29.1613 9.66921C17.523 8.9801 7.9043 18.8614 7.9043 31.0457V59.6394C7.9043 63.5811 10.9507 66.7879 14.6953 66.7879C15.5167 66.7879 16.3038 66.628 17.0332 66.3368V110.086C17.0332 116.655 22.0274 122 28.166 122ZM72.6973 117.234H28.166C25.2635 117.234 22.7884 115.242 21.8693 112.469H54.7757C56.0054 112.469 57.0022 111.402 57.0022 110.086C57.0022 108.77 56.0054 107.703 54.7757 107.703H21.4863V59.587V42.7729C26.4879 41.9649 30.8187 38.5939 33.0956 33.5979C33.5601 33.5979 33.9693 33.7699 34.2777 34.0938C36.7906 36.7382 40.1158 38.1943 43.6406 38.1943C47.294 38.1943 50.7044 36.6467 53.2449 33.835C53.3807 33.6844 53.5729 33.5979 53.7715 33.5979C57.2376 33.5979 59.5056 34.3902 60.5128 35.9524C61.3431 37.2403 61.3425 39.0298 61.3418 40.4678V50.1084C61.3418 53.2146 63.2034 55.8634 65.7949 56.847V95.6201C65.7949 96.9361 66.7918 98.0029 68.0215 98.0029C69.2512 98.0029 70.248 96.9361 70.248 95.6201V56.8468C72.8395 55.8631 74.7012 53.2146 74.7012 50.1082V33.3179C76.2609 33.651 77.8526 33.6532 79.377 33.3196V107.703H72.5837C71.354 107.703 70.3571 108.77 70.3571 110.086C70.3571 111.402 71.354 112.445 72.5837 112.445H78.994C78.0749 115.218 75.5998 117.234 72.6973 117.234ZM83.8301 52.6602H92.7363V88.6406H83.8301V52.6602ZM94.9629 43.1289C98.6461 43.1289 101.643 46.3357 101.643 50.2773V91.0234C101.643 94.9651 98.6461 98.1719 94.9629 98.1719H83.8301V93.4062H94.9629C96.1926 93.4062 97.1895 92.3395 97.1895 91.0234V50.2773C97.1895 48.9613 96.1926 47.8945 94.9629 47.8945H83.8301V43.1289H94.9629ZM14.6953 62.0222C13.4282 62.0222 12.3574 60.9309 12.3574 59.6394V31.0457C12.3574 21.849 19.3893 14.4012 28.034 14.4012C28.7057 14.4012 29.3811 14.447 30.0559 14.5397C30.9566 14.6634 31.8367 14.1892 32.2809 13.3421C35.0543 8.052 40.2603 4.76562 45.8672 4.76562C50.2602 4.76562 54.4956 6.81842 57.487 10.3979C58.2119 11.2657 59.4169 11.4458 60.3367 10.8232C61.3549 10.1339 62.5495 9.76953 63.791 9.76953C66.6254 9.76953 69.1588 11.6903 70.0951 14.5487C70.3229 15.2445 70.839 15.7885 71.4927 16.0216C72.1462 16.2546 72.864 16.1507 73.4363 15.7399C74.9539 14.651 76.8059 14.2847 78.6529 14.7089C81.0576 15.2593 83.1127 17.4319 83.6506 19.9937C84.918 26.0136 79.1518 30.9518 73.4839 27.8663C72.7937 27.4905 71.9707 27.5255 71.3103 27.959C70.6502 28.3922 70.2478 29.1613 70.2478 29.9901V50.1082C70.2478 51.422 69.249 52.491 68.0213 52.491C66.7935 52.491 65.7947 51.422 65.7947 50.1082V40.4692C65.7954 38.5925 65.7965 35.7562 64.178 33.2457C62.2901 30.317 58.7888 28.832 53.7715 28.832C52.371 28.832 51.0114 29.4489 50.0422 30.5236C48.3496 32.397 46.076 33.4285 43.6406 33.4285C41.2909 33.4285 39.0746 32.458 37.3985 30.6937C36.2556 29.493 34.7275 28.832 33.0956 28.832C31.4081 28.832 29.8397 29.8798 29.0998 31.5013C27.2335 35.5911 23.4555 38.1557 19.2406 38.1943C18.0185 38.2055 17.033 39.269 17.033 40.5772V59.5265C16.9546 60.9297 15.9351 62.0222 14.6953 62.0222Z" fill="black"/>
<defs>
<filter id="filter0_d" x="113.64" y="43.7855" width="707.674" height="81.2545" filterUnits="userSpaceOnUse" color-interpolation-filters="sRGB">
<feFlood flood-opacity="0" result="BackgroundImageFix"/>
<feColorMatrix in="SourceAlpha" type="matrix" values="0 0 0 0 0 0 0 0 0 0 0 0 0 0 0 0 0 0 127 0"/>
<feOffset dy="4"/>
<feGaussianBlur stdDeviation="2"/>
<feColorMatrix type="matrix" values="0 0 0 0 0 0 0 0 0 0 0 0 0 0 0 0 0 0 0.25 0"/>
<feBlend mode="normal" in2="BackgroundImageFix" result="effect1_dropShadow"/>
<feBlend mode="normal" in="SourceGraphic" in2="effect1_dropShadow" result="shape"/>
</filter>
</defs>
</svg>
