<svg width="711" height="226" viewBox="0 0 711 226" fill="none" xmlns="http://www.w3.org/2000/svg">
<g filter="url(#filter0_d)">
<path d="M31.16 216.04C38.76 216.04 44.52 213 49.16 207.64L45.08 203C41.32 207.08 37.08 209.56 31.48 209.56C20.28 209.56 13.24 200.28 13.24 185.48C13.24 170.84 20.6 161.72 31.72 161.72C36.76 161.72 40.68 164.04 43.72 167.32L47.72 162.52C44.36 158.76 38.76 155.24 31.64 155.24C16.76 155.24 5.64 166.76 5.64 185.72C5.64 204.76 16.6 216.04 31.16 216.04ZM71.1562 216.04C77.1563 216.04 81.4763 212.92 85.5563 208.2H85.7963L86.3563 215H92.4363V171.56H85.1563V202.36C80.9963 207.56 77.8763 209.72 73.3963 209.72C67.6363 209.72 65.2363 206.28 65.2363 198.2V171.56H57.9563V199.08C57.9563 210.12 62.0363 216.04 71.1562 216.04ZM117.11 216.04C122.47 216.04 127.35 213.24 131.51 209.8H131.75L132.39 215H138.39V188.28C138.39 177.56 133.91 170.44 123.35 170.44C116.39 170.44 110.23 173.56 106.23 176.12L109.11 181.16C112.55 178.84 117.11 176.52 122.15 176.52C129.27 176.52 131.11 181.88 131.11 187.48C112.63 189.56 104.39 194.28 104.39 203.72C104.39 211.56 109.83 216.04 117.11 216.04ZM119.19 210.2C114.87 210.2 111.51 208.2 111.51 203.24C111.51 197.64 116.47 194.04 131.11 192.28V204.44C126.87 208.2 123.43 210.2 119.19 210.2ZM159.946 216.04C161.946 216.04 163.146 215.8 164.186 215.4L163.146 209.8C162.346 209.96 162.026 209.96 161.626 209.96C160.506 209.96 159.546 209.08 159.546 206.84V151.32H152.266V206.36C152.266 212.52 154.506 216.04 159.946 216.04ZM175.719 215H183.159V191.72H192.839C205.719 191.72 214.439 185.96 214.439 173.56C214.439 160.76 205.639 156.28 192.519 156.28H175.719V215ZM183.159 185.72V162.36H191.559C201.879 162.36 207.079 165.08 207.079 173.56C207.079 181.96 202.199 185.72 191.879 185.72H183.159ZM225.626 215H232.906V171.56H225.626V215ZM229.306 162.6C232.186 162.6 234.186 160.68 234.186 157.72C234.186 154.92 232.186 153 229.306 153C226.426 153 224.426 154.92 224.426 157.72C224.426 160.68 226.426 162.6 229.306 162.6ZM247.657 215H254.937V183.48C259.337 179.08 262.377 176.84 266.857 176.84C272.617 176.84 275.097 180.28 275.097 188.44V215H282.377V187.48C282.377 176.36 278.217 170.44 269.097 170.44C263.177 170.44 258.697 173.72 254.537 177.8H254.297L253.657 171.56H247.657V215ZM310.243 216.04C312.883 216.04 315.763 215.24 318.243 214.44L316.803 209C315.363 209.56 313.363 210.12 311.843 210.12C306.803 210.12 305.123 207.08 305.123 201.72V177.48H316.883V171.56H305.123V159.32H299.043L298.163 171.56L291.363 171.96V177.48H297.843V201.56C297.843 210.2 300.963 216.04 310.243 216.04ZM334.766 216.04C340.126 216.04 345.006 213.24 349.166 209.8H349.406L350.046 215H356.046V188.28C356.046 177.56 351.566 170.44 341.006 170.44C334.046 170.44 327.886 173.56 323.886 176.12L326.766 181.16C330.206 178.84 334.766 176.52 339.806 176.52C346.926 176.52 348.766 181.88 348.766 187.48C330.286 189.56 322.046 194.28 322.046 203.72C322.046 211.56 327.486 216.04 334.766 216.04ZM336.846 210.2C332.526 210.2 329.166 208.2 329.166 203.24C329.166 197.64 334.126 194.04 348.766 192.28V204.44C344.526 208.2 341.086 210.2 336.846 210.2ZM380.615 215H388.055V162.6H405.815V156.28H362.855V162.6H380.615V215ZM424.125 216.04C430.125 216.04 434.445 212.92 438.525 208.2H438.765L439.325 215H445.405V171.56H438.125V202.36C433.965 207.56 430.845 209.72 426.365 209.72C420.605 209.72 418.205 206.28 418.205 198.2V171.56H410.925V199.08C410.925 210.12 415.005 216.04 424.125 216.04ZM477.199 216.04C482.399 216.04 487.359 214.04 491.279 210.52L488.079 205.64C485.359 208.12 481.839 209.96 477.839 209.96C469.839 209.96 464.399 203.32 464.399 193.32C464.399 183.32 470.159 176.52 478.079 176.52C481.519 176.52 484.159 178.12 486.719 180.36L490.479 175.56C487.359 172.84 483.439 170.44 477.759 170.44C466.639 170.44 456.799 178.84 456.799 193.32C456.799 207.72 465.679 216.04 477.199 216.04ZM513.422 216.04C519.422 216.04 523.742 212.92 527.822 208.2H528.062L528.622 215H534.702V171.56H527.422V202.36C523.262 207.56 520.142 209.72 515.662 209.72C509.902 209.72 507.502 206.28 507.502 198.2V171.56H500.222V199.08C500.222 210.12 504.302 216.04 513.422 216.04ZM549.376 215H556.656V183.48C560.656 179 564.336 176.84 567.616 176.84C573.136 176.84 575.696 180.28 575.696 188.44V215H582.976V183.48C587.056 179 590.576 176.84 593.936 176.84C599.456 176.84 602.016 180.28 602.016 188.44V215H609.296V187.48C609.296 176.36 605.056 170.44 596.096 170.44C590.816 170.44 586.256 173.88 581.776 178.76C580.016 173.64 576.416 170.44 569.776 170.44C564.576 170.44 560.016 173.72 556.256 177.88H556.016L555.376 171.56H549.376V215ZM633.438 216.04C638.798 216.04 643.678 213.24 647.838 209.8H648.078L648.718 215H654.718V188.28C654.718 177.56 650.238 170.44 639.678 170.44C632.718 170.44 626.558 173.56 622.558 176.12L625.438 181.16C628.878 178.84 633.438 176.52 638.478 176.52C645.598 176.52 647.438 181.88 647.438 187.48C628.958 189.56 620.718 194.28 620.718 203.72C620.718 211.56 626.158 216.04 633.438 216.04ZM635.518 210.2C631.198 210.2 627.838 208.2 627.838 203.24C627.838 197.64 632.798 194.04 647.438 192.28V204.44C643.198 208.2 639.758 210.2 635.518 210.2ZM638.718 163.72L652.718 150.12L647.598 145.24L634.958 160.12L638.718 163.72ZM668.594 215H675.874V183.48C680.274 179.08 683.314 176.84 687.794 176.84C693.554 176.84 696.034 180.28 696.034 188.44V215H703.314V187.48C703.314 176.36 699.154 170.44 690.034 170.44C684.114 170.44 679.634 173.72 675.474 177.8H675.234L674.594 171.56H668.594V215Z" fill="#F6C90E"/>
<path d="M49.16 207.64L49.9161 208.295L50.4871 207.635L49.911 206.98L49.16 207.64ZM45.08 203L45.831 202.34L45.0974 201.505L44.3446 202.322L45.08 203ZM43.72 167.32L42.9866 168L43.7599 168.834L44.4882 167.96L43.72 167.32ZM47.72 162.52L48.4882 163.16L49.0407 162.497L48.4657 161.854L47.72 162.52ZM31.16 217.04C39.079 217.04 45.1058 213.851 49.9161 208.295L48.4039 206.985C43.9342 212.149 38.441 215.04 31.16 215.04V217.04ZM49.911 206.98L45.831 202.34L44.329 203.66L48.409 208.3L49.911 206.98ZM44.3446 202.322C40.7153 206.261 36.7244 208.56 31.48 208.56V210.56C37.4356 210.56 41.9247 207.899 45.8154 203.678L44.3446 202.322ZM31.48 208.56C26.188 208.56 21.925 206.383 18.957 202.466C15.9669 198.52 14.24 192.735 14.24 185.48H12.24C12.24 193.025 14.0331 199.28 17.363 203.674C20.715 208.097 25.572 210.56 31.48 210.56V208.56ZM14.24 185.48C14.24 178.317 16.0413 172.615 19.0963 168.728C22.1329 164.864 26.4607 162.72 31.72 162.72V160.72C25.8593 160.72 20.9471 163.136 17.5237 167.492C14.1187 171.825 12.24 178.003 12.24 185.48H14.24ZM31.72 162.72C36.4131 162.72 40.0836 164.868 42.9866 168L44.4534 166.64C41.2764 163.212 37.1069 160.72 31.72 160.72V162.72ZM44.4882 167.96L48.4882 163.16L46.9518 161.88L42.9518 166.68L44.4882 167.96ZM48.4657 161.854C44.9581 157.929 39.1024 154.24 31.64 154.24V156.24C38.4176 156.24 43.7619 159.591 46.9743 163.186L48.4657 161.854ZM31.64 154.24C23.9279 154.24 17.1499 157.232 12.3107 162.708C7.47863 168.175 4.64 176.046 4.64 185.72H6.64C6.64 176.434 9.36137 169.065 13.8093 164.032C18.2501 159.008 24.4721 156.24 31.64 156.24V154.24ZM4.64 185.72C4.64 195.429 7.43617 203.26 12.1881 208.679C16.9479 214.107 23.6074 217.04 31.16 217.04V215.04C24.1526 215.04 18.0521 212.333 13.6919 207.361C9.32383 202.38 6.64 195.051 6.64 185.72H4.64ZM85.5563 208.2V207.2H85.0988L84.7997 207.546L85.5563 208.2ZM85.7963 208.2L86.7929 208.118L86.7173 207.2H85.7963V208.2ZM86.3563 215L85.3596 215.082L85.4352 216H86.3563V215ZM92.4363 215V216H93.4363V215H92.4363ZM92.4363 171.56H93.4363V170.56H92.4363V171.56ZM85.1563 171.56V170.56H84.1563V171.56H85.1563ZM85.1563 202.36L85.9371 202.985L86.1563 202.711V202.36H85.1563ZM65.2363 171.56H66.2363V170.56H65.2363V171.56ZM57.9563 171.56V170.56H56.9563V171.56H57.9563ZM71.1562 217.04C77.5778 217.04 82.1498 213.67 86.3128 208.854L84.7997 207.546C80.8027 212.17 76.7347 215.04 71.1562 215.04V217.04ZM85.5563 209.2H85.7963V207.2H85.5563V209.2ZM84.7996 208.282L85.3596 215.082L87.3529 214.918L86.7929 208.118L84.7996 208.282ZM86.3563 216H92.4363V214H86.3563V216ZM93.4363 215V171.56H91.4363V215H93.4363ZM92.4363 170.56H85.1563V172.56H92.4363V170.56ZM84.1563 171.56V202.36H86.1563V171.56H84.1563ZM84.3754 201.735C82.3199 204.305 80.5807 206.045 78.8573 207.148C77.1638 208.231 75.4519 208.72 73.3963 208.72V210.72C75.8206 210.72 77.9087 210.129 79.9352 208.832C81.9318 207.555 83.8326 205.615 85.9371 202.985L84.3754 201.735ZM73.3963 208.72C70.7308 208.72 69.0501 207.939 67.9732 206.413C66.8372 204.804 66.2363 202.185 66.2363 198.2H64.2363C64.2363 202.295 64.8353 205.436 66.3393 207.567C67.9024 209.781 70.3017 210.72 73.3963 210.72V208.72ZM66.2363 198.2V171.56H64.2363V198.2H66.2363ZM65.2363 170.56H57.9563V172.56H65.2363V170.56ZM56.9563 171.56V199.08H58.9563V171.56H56.9563ZM56.9563 199.08C56.9563 204.693 57.988 209.191 60.3383 212.303C62.7299 215.469 66.3609 217.04 71.1562 217.04V215.04C66.8316 215.04 63.8626 213.651 61.9342 211.097C59.9645 208.489 58.9563 204.507 58.9563 199.08H56.9563ZM131.51 209.8V208.8H131.15L130.873 209.029L131.51 209.8ZM131.75 209.8L132.743 209.678L132.634 208.8H131.75V209.8ZM132.39 215L131.397 215.122L131.506 216H132.39V215ZM138.39 215V216H139.39V215H138.39ZM106.23 176.12L105.691 175.278L104.89 175.79L105.362 176.616L106.23 176.12ZM109.11 181.16L108.242 181.656L108.776 182.591L109.669 181.989L109.11 181.16ZM131.11 187.48L131.222 188.474L132.11 188.374V187.48H131.11ZM131.11 192.28H132.11V191.153L130.991 191.287L131.11 192.28ZM131.11 204.44L131.773 205.188L132.11 204.89V204.44H131.11ZM117.11 217.04C122.817 217.04 127.922 214.064 132.147 210.571L130.873 209.029C126.778 212.416 122.123 215.04 117.11 215.04V217.04ZM131.51 210.8H131.75V208.8H131.51V210.8ZM130.757 209.922L131.397 215.122L133.383 214.878L132.743 209.678L130.757 209.922ZM132.39 216H138.39V214H132.39V216ZM139.39 215V188.28H137.39V215H139.39ZM139.39 188.28C139.39 182.804 138.249 178.089 135.618 174.724C132.953 171.316 128.875 169.44 123.35 169.44V171.44C128.385 171.44 131.827 173.124 134.042 175.956C136.291 178.831 137.39 183.036 137.39 188.28H139.39ZM123.35 169.44C116.106 169.44 109.75 172.68 105.691 175.278L106.769 176.962C110.71 174.44 116.674 171.44 123.35 171.44V169.44ZM105.362 176.616L108.242 181.656L109.978 180.664L107.098 175.624L105.362 176.616ZM109.669 181.989C113.048 179.71 117.406 177.52 122.15 177.52V175.52C116.814 175.52 112.052 177.97 108.551 180.331L109.669 181.989ZM122.15 177.52C125.417 177.52 127.323 178.725 128.466 180.452C129.657 182.251 130.11 184.758 130.11 187.48H132.11C132.11 184.602 131.643 181.629 130.134 179.348C128.577 176.995 126.003 175.52 122.15 175.52V177.52ZM130.998 186.486C121.726 187.53 114.867 189.247 110.306 191.982C108.009 193.36 106.267 195.01 105.105 196.985C103.94 198.963 103.39 201.209 103.39 203.72H105.39C105.39 201.511 105.87 199.627 106.828 198C107.788 196.37 109.261 194.94 111.334 193.698C115.513 191.192 122.014 189.51 131.222 188.474L130.998 186.486ZM103.39 203.72C103.39 207.884 104.842 211.242 107.341 213.554C109.829 215.856 113.268 217.04 117.11 217.04V215.04C113.672 215.04 110.751 213.984 108.699 212.086C106.658 210.198 105.39 207.396 105.39 203.72H103.39ZM119.19 209.2C117.166 209.2 115.501 208.729 114.36 207.804C113.254 206.906 112.51 205.475 112.51 203.24H110.51C110.51 205.965 111.446 208.014 113.1 209.356C114.719 210.671 116.894 211.2 119.19 211.2V209.2ZM112.51 203.24C112.51 201.995 112.784 200.903 113.371 199.928C113.961 198.948 114.903 198.026 116.33 197.18C119.214 195.47 123.942 194.149 131.229 193.273L130.991 191.287C123.638 192.171 118.566 193.53 115.31 195.46C113.667 196.434 112.454 197.572 111.657 198.897C110.856 200.227 110.51 201.685 110.51 203.24H112.51ZM130.11 192.28V204.44H132.11V192.28H130.11ZM130.447 203.692C126.262 207.403 123.057 209.2 119.19 209.2V211.2C123.803 211.2 127.478 208.997 131.773 205.188L130.447 203.692ZM164.186 215.4L164.545 216.333L165.321 216.035L165.169 215.217L164.186 215.4ZM163.146 209.8L164.129 209.617L163.944 208.621L162.95 208.819L163.146 209.8ZM159.546 151.32H160.546V150.32H159.546V151.32ZM152.266 151.32V150.32H151.266V151.32H152.266ZM159.946 217.04C162.036 217.04 163.363 216.788 164.545 216.333L163.827 214.467C162.929 214.812 161.857 215.04 159.946 215.04V217.04ZM165.169 215.217L164.129 209.617L162.163 209.983L163.203 215.583L165.169 215.217ZM162.95 208.819C162.229 208.964 161.977 208.96 161.626 208.96V210.96C162.075 210.96 162.463 210.956 163.342 210.781L162.95 208.819ZM161.626 208.96C161.353 208.96 161.138 208.866 160.962 208.635C160.762 208.371 160.546 207.835 160.546 206.84H158.546C158.546 208.085 158.811 209.109 159.37 209.845C159.954 210.614 160.78 210.96 161.626 210.96V208.96ZM160.546 206.84V151.32H158.546V206.84H160.546ZM159.546 150.32H152.266V152.32H159.546V150.32ZM151.266 151.32V206.36H153.266V151.32H151.266ZM151.266 206.36C151.266 209.53 151.837 212.208 153.267 214.111C154.739 216.07 156.992 217.04 159.946 217.04V215.04C157.461 215.04 155.873 214.25 154.866 212.909C153.816 211.512 153.266 209.35 153.266 206.36H151.266ZM175.719 215H174.719V216H175.719V215ZM183.159 215V216H184.159V215H183.159ZM183.159 191.72V190.72H182.159V191.72H183.159ZM175.719 156.28V155.28H174.719V156.28H175.719ZM183.159 185.72H182.159V186.72H183.159V185.72ZM183.159 162.36V161.36H182.159V162.36H183.159ZM175.719 216H183.159V214H175.719V216ZM184.159 215V191.72H182.159V215H184.159ZM183.159 192.72H192.839V190.72H183.159V192.72ZM192.839 192.72C199.409 192.72 205.059 191.253 209.088 188.075C213.154 184.867 215.439 180.017 215.439 173.56H213.439C213.439 179.503 211.363 183.733 207.849 186.505C204.298 189.307 199.149 190.72 192.839 190.72V192.72ZM215.439 173.56C215.439 166.903 213.132 162.247 208.977 159.304C204.888 156.408 199.16 155.28 192.519 155.28V157.28C198.998 157.28 204.229 158.392 207.821 160.936C211.346 163.433 213.439 167.417 213.439 173.56H215.439ZM192.519 155.28H175.719V157.28H192.519V155.28ZM174.719 156.28V215H176.719V156.28H174.719ZM184.159 185.72V162.36H182.159V185.72H184.159ZM183.159 163.36H191.559V161.36H183.159V163.36ZM191.559 163.36C196.679 163.36 200.301 164.045 202.631 165.61C204.865 167.111 206.079 169.543 206.079 173.56H208.079C208.079 169.097 206.693 165.929 203.746 163.95C200.896 162.035 196.758 161.36 191.559 161.36V163.36ZM206.079 173.56C206.079 177.56 204.926 180.263 202.727 182.006C200.478 183.79 196.951 184.72 191.879 184.72V186.72C197.126 186.72 201.199 185.77 203.97 183.574C206.791 181.337 208.079 177.96 208.079 173.56H206.079ZM191.879 184.72H183.159V186.72H191.879V184.72ZM225.626 215H224.626V216H225.626V215ZM232.906 215V216H233.906V215H232.906ZM232.906 171.56H233.906V170.56H232.906V171.56ZM225.626 171.56V170.56H224.626V171.56H225.626ZM225.626 216H232.906V214H225.626V216ZM233.906 215V171.56H231.906V215H233.906ZM232.906 170.56H225.626V172.56H232.906V170.56ZM224.626 171.56V215H226.626V171.56H224.626ZM229.306 163.6C230.972 163.6 232.457 163.041 233.529 161.981C234.602 160.92 235.186 159.432 235.186 157.72H233.186C233.186 158.968 232.769 159.92 232.123 160.559C231.475 161.199 230.52 161.6 229.306 161.6V163.6ZM235.186 157.72C235.186 156.073 234.592 154.625 233.52 153.59C232.451 152.558 230.971 152 229.306 152V154C230.52 154 231.48 154.402 232.131 155.03C232.779 155.655 233.186 156.567 233.186 157.72H235.186ZM229.306 152C227.64 152 226.16 152.558 225.091 153.59C224.019 154.625 223.426 156.073 223.426 157.72H225.426C225.426 156.567 225.832 155.655 226.48 155.03C227.131 154.402 228.091 154 229.306 154V152ZM223.426 157.72C223.426 159.432 224.009 160.92 225.083 161.981C226.155 163.041 227.64 163.6 229.306 163.6V161.6C228.092 161.6 227.137 161.199 226.489 160.559C225.842 159.92 225.426 158.968 225.426 157.72H223.426ZM247.657 215H246.657V216H247.657V215ZM254.937 215V216H255.937V215H254.937ZM254.937 183.48L254.23 182.773L253.937 183.066V183.48H254.937ZM275.097 215H274.097V216H275.097V215ZM282.377 215V216H283.377V215H282.377ZM254.537 177.8V178.8H254.945L255.237 178.514L254.537 177.8ZM254.297 177.8L253.302 177.902L253.394 178.8H254.297V177.8ZM253.657 171.56L254.652 171.458L254.56 170.56H253.657V171.56ZM247.657 171.56V170.56H246.657V171.56H247.657ZM247.657 216H254.937V214H247.657V216ZM255.937 215V183.48H253.937V215H255.937ZM255.644 184.187C260.027 179.804 262.812 177.84 266.857 177.84V175.84C261.942 175.84 258.647 178.356 254.23 182.773L255.644 184.187ZM266.857 177.84C269.523 177.84 271.226 178.622 272.323 180.16C273.477 181.78 274.097 184.418 274.097 188.44H276.097C276.097 184.302 275.477 181.14 273.951 179C272.368 176.778 269.951 175.84 266.857 175.84V177.84ZM274.097 188.44V215H276.097V188.44H274.097ZM275.097 216H282.377V214H275.097V216ZM283.377 215V187.48H281.377V215H283.377ZM283.377 187.48C283.377 181.825 282.324 177.307 279.953 174.185C277.542 171.01 273.892 169.44 269.097 169.44V171.44C273.422 171.44 276.412 172.83 278.361 175.395C280.349 178.013 281.377 182.015 281.377 187.48H283.377ZM269.097 169.44C262.766 169.44 258.04 172.963 253.837 177.086L255.237 178.514C259.354 174.477 263.588 171.44 269.097 171.44V169.44ZM254.537 176.8H254.297V178.8H254.537V176.8ZM255.292 177.698L254.652 171.458L252.662 171.662L253.302 177.902L255.292 177.698ZM253.657 170.56H247.657V172.56H253.657V170.56ZM246.657 171.56V215H248.657V171.56H246.657ZM318.243 214.44L318.55 215.392L319.452 215.101L319.21 214.184L318.243 214.44ZM316.803 209L317.77 208.744L317.484 207.662L316.441 208.068L316.803 209ZM305.123 177.48V176.48H304.123V177.48H305.123ZM316.883 177.48V178.48H317.883V177.48H316.883ZM316.883 171.56H317.883V170.56H316.883V171.56ZM305.123 171.56H304.123V172.56H305.123V171.56ZM305.123 159.32H306.123V158.32H305.123V159.32ZM299.043 159.32V158.32H298.112L298.046 159.248L299.043 159.32ZM298.163 171.56L298.222 172.558L299.098 172.507L299.161 171.632L298.163 171.56ZM291.363 171.96L291.304 170.962L290.363 171.017V171.96H291.363ZM291.363 177.48H290.363V178.48H291.363V177.48ZM297.843 177.48H298.843V176.48H297.843V177.48ZM310.243 217.04C313.054 217.04 316.065 216.193 318.55 215.392L317.936 213.488C315.462 214.287 312.713 215.04 310.243 215.04V217.04ZM319.21 214.184L317.77 208.744L315.836 209.256L317.276 214.696L319.21 214.184ZM316.441 208.068C315.042 208.612 313.179 209.12 311.843 209.12V211.12C313.547 211.12 315.684 210.508 317.166 209.932L316.441 208.068ZM311.843 209.12C309.536 209.12 308.206 208.437 307.399 207.338C306.541 206.17 306.123 204.336 306.123 201.72H304.123C304.123 204.464 304.545 206.83 305.787 208.522C307.08 210.283 309.11 211.12 311.843 211.12V209.12ZM306.123 201.72V177.48H304.123V201.72H306.123ZM305.123 178.48H316.883V176.48H305.123V178.48ZM317.883 177.48V171.56H315.883V177.48H317.883ZM316.883 170.56H305.123V172.56H316.883V170.56ZM306.123 171.56V159.32H304.123V171.56H306.123ZM305.123 158.32H299.043V160.32H305.123V158.32ZM298.046 159.248L297.166 171.488L299.161 171.632L300.041 159.392L298.046 159.248ZM298.104 170.562L291.304 170.962L291.422 172.958L298.222 172.558L298.104 170.562ZM290.363 171.96V177.48H292.363V171.96H290.363ZM291.363 178.48H297.843V176.48H291.363V178.48ZM296.843 177.48V201.56H298.843V177.48H296.843ZM296.843 201.56C296.843 205.969 297.633 209.851 299.768 212.647C301.945 215.497 305.379 217.04 310.243 217.04V215.04C305.828 215.04 303.061 213.663 301.358 211.433C299.613 209.149 298.843 205.791 298.843 201.56H296.843ZM349.166 209.8V208.8H348.806L348.529 209.029L349.166 209.8ZM349.406 209.8L350.399 209.678L350.291 208.8H349.406V209.8ZM350.046 215L349.054 215.122L349.162 216H350.046V215ZM356.046 215V216H357.046V215H356.046ZM323.886 176.12L323.347 175.278L322.546 175.79L323.018 176.616L323.886 176.12ZM326.766 181.16L325.898 181.656L326.432 182.591L327.325 181.989L326.766 181.16ZM348.766 187.48L348.878 188.474L349.766 188.374V187.48H348.766ZM348.766 192.28H349.766V191.153L348.647 191.287L348.766 192.28ZM348.766 204.44L349.43 205.188L349.766 204.89V204.44H348.766ZM334.766 217.04C340.473 217.04 345.579 214.064 349.804 210.571L348.529 209.029C344.434 212.416 339.779 215.04 334.766 215.04V217.04ZM349.166 210.8H349.406V208.8H349.166V210.8ZM348.414 209.922L349.054 215.122L351.039 214.878L350.399 209.678L348.414 209.922ZM350.046 216H356.046V214H350.046V216ZM357.046 215V188.28H355.046V215H357.046ZM357.046 188.28C357.046 182.804 355.905 178.089 353.274 174.724C350.609 171.316 346.531 169.44 341.006 169.44V171.44C346.041 171.44 349.483 173.124 351.699 175.956C353.947 178.831 355.046 183.036 355.046 188.28H357.046ZM341.006 169.44C333.763 169.44 327.407 172.68 323.347 175.278L324.425 176.962C328.366 174.44 334.33 171.44 341.006 171.44V169.44ZM323.018 176.616L325.898 181.656L327.634 180.664L324.754 175.624L323.018 176.616ZM327.325 181.989C330.705 179.71 335.062 177.52 339.806 177.52V175.52C334.47 175.52 329.708 177.97 326.207 180.331L327.325 181.989ZM339.806 177.52C343.073 177.52 344.98 178.725 346.122 180.452C347.313 182.251 347.766 184.758 347.766 187.48H349.766C349.766 184.602 349.299 181.629 347.79 179.348C346.233 176.995 343.659 175.52 339.806 175.52V177.52ZM348.654 186.486C339.382 187.53 332.524 189.247 327.962 191.982C325.665 193.36 323.924 195.01 322.761 196.985C321.596 198.963 321.046 201.209 321.046 203.72H323.046C323.046 201.511 323.526 199.627 324.484 198C325.444 196.37 326.918 194.94 328.99 193.698C333.169 191.192 339.67 189.51 348.878 188.474L348.654 186.486ZM321.046 203.72C321.046 207.884 322.498 211.242 324.997 213.554C327.485 215.856 330.924 217.04 334.766 217.04V215.04C331.328 215.04 328.407 213.984 326.355 212.086C324.314 210.198 323.046 207.396 323.046 203.72H321.046ZM336.846 209.2C334.822 209.2 333.157 208.729 332.016 207.804C330.911 206.906 330.166 205.475 330.166 203.24H328.166C328.166 205.965 329.102 208.014 330.756 209.356C332.376 210.671 334.551 211.2 336.846 211.2V209.2ZM330.166 203.24C330.166 201.995 330.44 200.903 331.027 199.928C331.617 198.948 332.559 198.026 333.986 197.18C336.871 195.47 341.599 194.149 348.886 193.273L348.647 191.287C341.294 192.171 336.222 193.53 332.966 195.46C331.323 196.434 330.111 197.572 329.313 198.897C328.513 200.227 328.166 201.685 328.166 203.24H330.166ZM347.766 192.28V204.44H349.766V192.28H347.766ZM348.103 203.692C343.918 207.403 340.713 209.2 336.846 209.2V211.2C341.46 211.2 345.134 208.997 349.43 205.188L348.103 203.692ZM380.615 215H379.615V216H380.615V215ZM388.055 215V216H389.055V215H388.055ZM388.055 162.6V161.6H387.055V162.6H388.055ZM405.815 162.6V163.6H406.815V162.6H405.815ZM405.815 156.28H406.815V155.28H405.815V156.28ZM362.855 156.28V155.28H361.855V156.28H362.855ZM362.855 162.6H361.855V163.6H362.855V162.6ZM380.615 162.6H381.615V161.6H380.615V162.6ZM380.615 216H388.055V214H380.615V216ZM389.055 215V162.6H387.055V215H389.055ZM388.055 163.6H405.815V161.6H388.055V163.6ZM406.815 162.6V156.28H404.815V162.6H406.815ZM405.815 155.28H362.855V157.28H405.815V155.28ZM361.855 156.28V162.6H363.855V156.28H361.855ZM362.855 163.6H380.615V161.6H362.855V163.6ZM379.615 162.6V215H381.615V162.6H379.615ZM438.525 208.2V207.2H438.068L437.768 207.546L438.525 208.2ZM438.765 208.2L439.762 208.118L439.686 207.2H438.765V208.2ZM439.325 215L438.328 215.082L438.404 216H439.325V215ZM445.405 215V216H446.405V215H445.405ZM445.405 171.56H446.405V170.56H445.405V171.56ZM438.125 171.56V170.56H437.125V171.56H438.125ZM438.125 202.36L438.906 202.985L439.125 202.711V202.36H438.125ZM418.205 171.56H419.205V170.56H418.205V171.56ZM410.925 171.56V170.56H409.925V171.56H410.925ZM424.125 217.04C430.547 217.04 435.119 213.67 439.282 208.854L437.768 207.546C433.771 212.17 429.703 215.04 424.125 215.04V217.04ZM438.525 209.2H438.765V207.2H438.525V209.2ZM437.768 208.282L438.328 215.082L440.322 214.918L439.762 208.118L437.768 208.282ZM439.325 216H445.405V214H439.325V216ZM446.405 215V171.56H444.405V215H446.405ZM445.405 170.56H438.125V172.56H445.405V170.56ZM437.125 171.56V202.36H439.125V171.56H437.125ZM437.344 201.735C435.289 204.305 433.549 206.045 431.826 207.148C430.133 208.231 428.421 208.72 426.365 208.72V210.72C428.789 210.72 430.877 210.129 432.904 208.832C434.901 207.555 436.801 205.615 438.906 202.985L437.344 201.735ZM426.365 208.72C423.7 208.72 422.019 207.939 420.942 206.413C419.806 204.804 419.205 202.185 419.205 198.2H417.205C417.205 202.295 417.804 205.436 419.308 207.567C420.871 209.781 423.27 210.72 426.365 210.72V208.72ZM419.205 198.2V171.56H417.205V198.2H419.205ZM418.205 170.56H410.925V172.56H418.205V170.56ZM409.925 171.56V199.08H411.925V171.56H409.925ZM409.925 199.08C409.925 204.693 410.957 209.191 413.307 212.303C415.699 215.469 419.33 217.04 424.125 217.04V215.04C419.8 215.04 416.831 213.651 414.903 211.097C412.933 208.489 411.925 204.507 411.925 199.08H409.925ZM491.279 210.52L491.947 211.264L492.586 210.69L492.115 209.972L491.279 210.52ZM488.079 205.64L488.915 205.092L488.272 204.111L487.405 204.901L488.079 205.64ZM486.719 180.36L486.06 181.113L486.855 181.808L487.506 180.977L486.719 180.36ZM490.479 175.56L491.266 176.177L491.851 175.43L491.136 174.806L490.479 175.56ZM477.199 217.04C482.66 217.04 487.854 214.939 491.947 211.264L490.611 209.776C486.863 213.141 482.138 215.04 477.199 215.04V217.04ZM492.115 209.972L488.915 205.092L487.243 206.188L490.443 211.068L492.115 209.972ZM487.405 204.901C484.811 207.266 481.521 208.96 477.839 208.96V210.96C482.156 210.96 485.906 208.974 488.753 206.379L487.405 204.901ZM477.839 208.96C474.14 208.96 471.065 207.436 468.895 204.76C466.711 202.067 465.399 198.146 465.399 193.32H463.399C463.399 198.494 464.806 202.893 467.342 206.02C469.892 209.164 473.538 210.96 477.839 210.96V208.96ZM465.399 193.32C465.399 183.682 470.884 177.52 478.079 177.52V175.52C469.434 175.52 463.399 182.958 463.399 193.32H465.399ZM478.079 177.52C481.164 177.52 483.575 178.938 486.06 181.113L487.377 179.607C484.743 177.302 481.874 175.52 478.079 175.52V177.52ZM487.506 180.977L491.266 176.177L489.692 174.943L485.932 179.743L487.506 180.977ZM491.136 174.806C487.911 171.995 483.766 169.44 477.759 169.44V171.44C483.112 171.44 486.807 173.685 489.822 176.314L491.136 174.806ZM477.759 169.44C466.072 169.44 455.799 178.302 455.799 193.32H457.799C457.799 179.378 467.206 171.44 477.759 171.44V169.44ZM455.799 193.32C455.799 200.728 458.086 206.669 461.951 210.766C465.818 214.865 471.191 217.04 477.199 217.04V215.04C471.687 215.04 466.859 213.055 463.406 209.394C459.951 205.731 457.799 200.312 457.799 193.32H455.799ZM527.822 208.2V207.2H527.364L527.065 207.546L527.822 208.2ZM528.062 208.2L529.059 208.118L528.983 207.2H528.062V208.2ZM528.622 215L527.625 215.082L527.701 216H528.622V215ZM534.702 215V216H535.702V215H534.702ZM534.702 171.56H535.702V170.56H534.702V171.56ZM527.422 171.56V170.56H526.422V171.56H527.422ZM527.422 202.36L528.203 202.985L528.422 202.711V202.36H527.422ZM507.502 171.56H508.502V170.56H507.502V171.56ZM500.222 171.56V170.56H499.222V171.56H500.222ZM513.422 217.04C519.843 217.04 524.415 213.67 528.578 208.854L527.065 207.546C523.068 212.17 519 215.04 513.422 215.04V217.04ZM527.822 209.2H528.062V207.2H527.822V209.2ZM527.065 208.282L527.625 215.082L529.619 214.918L529.059 208.118L527.065 208.282ZM528.622 216H534.702V214H528.622V216ZM535.702 215V171.56H533.702V215H535.702ZM534.702 170.56H527.422V172.56H534.702V170.56ZM526.422 171.56V202.36H528.422V171.56H526.422ZM526.641 201.735C524.586 204.305 522.846 206.045 521.123 207.148C519.429 208.231 517.718 208.72 515.662 208.72V210.72C518.086 210.72 520.174 210.129 522.201 208.832C524.197 207.555 526.098 205.615 528.203 202.985L526.641 201.735ZM515.662 208.72C512.996 208.72 511.316 207.939 510.239 206.413C509.103 204.804 508.502 202.185 508.502 198.2H506.502C506.502 202.295 507.101 205.436 508.605 207.567C510.168 209.781 512.567 210.72 515.662 210.72V208.72ZM508.502 198.2V171.56H506.502V198.2H508.502ZM507.502 170.56H500.222V172.56H507.502V170.56ZM499.222 171.56V199.08H501.222V171.56H499.222ZM499.222 199.08C499.222 204.693 500.254 209.191 502.604 212.303C504.996 215.469 508.627 217.04 513.422 217.04V215.04C509.097 215.04 506.128 213.651 504.2 211.097C502.23 208.489 501.222 204.507 501.222 199.08H499.222ZM549.376 215H548.376V216H549.376V215ZM556.656 215V216H557.656V215H556.656ZM556.656 183.48L555.91 182.814L555.656 183.099V183.48H556.656ZM575.696 215H574.696V216H575.696V215ZM582.976 215V216H583.976V215H582.976ZM582.976 183.48L582.236 182.807L581.976 183.093V183.48H582.976ZM602.016 215H601.016V216H602.016V215ZM609.296 215V216H610.296V215H609.296ZM581.776 178.76L580.83 179.085L581.376 180.674L582.512 179.436L581.776 178.76ZM556.256 177.88V178.88H556.7L556.997 178.551L556.256 177.88ZM556.016 177.88L555.021 177.981L555.112 178.88H556.016V177.88ZM555.376 171.56L556.371 171.459L556.279 170.56H555.376V171.56ZM549.376 171.56V170.56H548.376V171.56H549.376ZM549.376 216H556.656V214H549.376V216ZM557.656 215V183.48H555.656V215H557.656ZM557.402 184.146C561.344 179.73 564.772 177.84 567.616 177.84V175.84C563.899 175.84 559.967 178.27 555.91 182.814L557.402 184.146ZM567.616 177.84C570.147 177.84 571.816 178.612 572.909 180.158C574.058 181.781 574.696 184.424 574.696 188.44H576.696C576.696 184.296 576.053 181.139 574.542 179.002C572.975 176.788 570.604 175.84 567.616 175.84V177.84ZM574.696 188.44V215H576.696V188.44H574.696ZM575.696 216H582.976V214H575.696V216ZM583.976 215V183.48H581.976V215H583.976ZM583.715 184.153C587.752 179.721 591.018 177.84 593.936 177.84V175.84C590.133 175.84 586.36 178.279 582.236 182.807L583.715 184.153ZM593.936 177.84C596.467 177.84 598.136 178.612 599.229 180.158C600.378 181.781 601.016 184.424 601.016 188.44H603.016C603.016 184.296 602.373 181.139 600.862 179.002C599.295 176.788 596.924 175.84 593.936 175.84V177.84ZM601.016 188.44V215H603.016V188.44H601.016ZM602.016 216H609.296V214H602.016V216ZM610.296 215V187.48H608.296V215H610.296ZM610.296 187.48C610.296 181.821 609.222 177.305 606.852 174.185C604.443 171.014 600.816 169.44 596.096 169.44V171.44C600.335 171.44 603.308 172.826 605.259 175.395C607.25 178.015 608.296 182.019 608.296 187.48H610.296ZM596.096 169.44C590.362 169.44 585.545 173.175 581.039 178.084L582.512 179.436C586.966 174.585 591.269 171.44 596.096 171.44V169.44ZM582.721 178.435C581.794 175.738 580.354 173.466 578.2 171.876C576.042 170.282 573.26 169.44 569.776 169.44V171.44C572.931 171.44 575.269 172.198 577.012 173.484C578.757 174.774 579.997 176.662 580.83 179.085L582.721 178.435ZM569.776 169.44C564.145 169.44 559.334 172.983 555.514 177.209L556.997 178.551C560.697 174.457 565.007 171.44 569.776 171.44V169.44ZM556.256 176.88H556.016V178.88H556.256V176.88ZM557.011 177.779L556.371 171.459L554.381 171.661L555.021 177.981L557.011 177.779ZM555.376 170.56H549.376V172.56H555.376V170.56ZM548.376 171.56V215H550.376V171.56H548.376ZM647.838 209.8V208.8H647.478L647.201 209.029L647.838 209.8ZM648.078 209.8L649.071 209.678L648.963 208.8H648.078V209.8ZM648.718 215L647.726 215.122L647.834 216H648.718V215ZM654.718 215V216H655.718V215H654.718ZM622.558 176.12L622.019 175.278L621.218 175.79L621.69 176.616L622.558 176.12ZM625.438 181.16L624.57 181.656L625.104 182.591L625.997 181.989L625.438 181.16ZM647.438 187.48L647.55 188.474L648.438 188.374V187.48H647.438ZM647.438 192.28H648.438V191.153L647.319 191.287L647.438 192.28ZM647.438 204.44L648.102 205.188L648.438 204.89V204.44H647.438ZM638.718 163.72L638.027 164.442L638.723 165.109L639.415 164.437L638.718 163.72ZM652.718 150.12L653.415 150.837L654.16 150.113L653.408 149.396L652.718 150.12ZM647.598 145.24L648.288 144.516L647.522 143.786L646.836 144.593L647.598 145.24ZM634.958 160.12L634.196 159.473L633.586 160.191L634.267 160.842L634.958 160.12ZM633.438 217.04C639.145 217.04 644.251 214.064 648.475 210.571L647.201 209.029C643.106 212.416 638.451 215.04 633.438 215.04V217.04ZM647.838 210.8H648.078V208.8H647.838V210.8ZM647.086 209.922L647.726 215.122L649.711 214.878L649.071 209.678L647.086 209.922ZM648.718 216H654.718V214H648.718V216ZM655.718 215V188.28H653.718V215H655.718ZM655.718 188.28C655.718 182.804 654.577 178.089 651.946 174.724C649.281 171.316 645.203 169.44 639.678 169.44V171.44C644.713 171.44 648.155 173.124 650.37 175.956C652.619 178.831 653.718 183.036 653.718 188.28H655.718ZM639.678 169.44C632.435 169.44 626.079 172.68 622.019 175.278L623.097 176.962C627.038 174.44 633.002 171.44 639.678 171.44V169.44ZM621.69 176.616L624.57 181.656L626.306 180.664L623.426 175.624L621.69 176.616ZM625.997 181.989C629.376 179.71 633.734 177.52 638.478 177.52V175.52C633.142 175.52 628.38 177.97 624.879 180.331L625.997 181.989ZM638.478 177.52C641.745 177.52 643.652 178.725 644.794 180.452C645.985 182.251 646.438 184.758 646.438 187.48H648.438C648.438 184.602 647.971 181.629 646.462 179.348C644.905 176.995 642.331 175.52 638.478 175.52V177.52ZM647.326 186.486C638.054 187.53 631.195 189.247 626.634 191.982C624.337 193.36 622.595 195.01 621.433 196.985C620.268 198.963 619.718 201.209 619.718 203.72H621.718C621.718 201.511 622.198 199.627 623.156 198C624.116 196.37 625.589 194.94 627.662 193.698C631.841 191.192 638.342 189.51 647.55 188.474L647.326 186.486ZM619.718 203.72C619.718 207.884 621.17 211.242 623.669 213.554C626.157 215.856 629.596 217.04 633.438 217.04V215.04C630 215.04 627.079 213.984 625.027 212.086C622.986 210.198 621.718 207.396 621.718 203.72H619.718ZM635.518 209.2C633.494 209.2 631.829 208.729 630.688 207.804C629.583 206.906 628.838 205.475 628.838 203.24H626.838C626.838 205.965 627.774 208.014 629.428 209.356C631.047 210.671 633.223 211.2 635.518 211.2V209.2ZM628.838 203.24C628.838 201.995 629.112 200.903 629.699 199.928C630.289 198.948 631.231 198.026 632.658 197.18C635.543 195.47 640.271 194.149 647.557 193.273L647.319 191.287C639.966 192.171 634.894 193.53 631.638 195.46C629.995 196.434 628.783 197.572 627.985 198.897C627.185 200.227 626.838 201.685 626.838 203.24H628.838ZM646.438 192.28V204.44H648.438V192.28H646.438ZM646.775 203.692C642.59 207.403 639.385 209.2 635.518 209.2V211.2C640.131 211.2 643.806 208.997 648.102 205.188L646.775 203.692ZM639.415 164.437L653.415 150.837L652.021 149.403L638.021 163.003L639.415 164.437ZM653.408 149.396L648.288 144.516L646.908 145.964L652.028 150.844L653.408 149.396ZM646.836 144.593L634.196 159.473L635.72 160.767L648.36 145.887L646.836 144.593ZM634.267 160.842L638.027 164.442L639.41 162.998L635.65 159.398L634.267 160.842ZM668.594 215H667.594V216H668.594V215ZM675.874 215V216H676.874V215H675.874ZM675.874 183.48L675.167 182.773L674.874 183.066V183.48H675.874ZM696.034 215H695.034V216H696.034V215ZM703.314 215V216H704.314V215H703.314ZM675.474 177.8V178.8H675.883L676.175 178.514L675.474 177.8ZM675.234 177.8L674.24 177.902L674.332 178.8H675.234V177.8ZM674.594 171.56L675.589 171.458L675.497 170.56H674.594V171.56ZM668.594 171.56V170.56H667.594V171.56H668.594ZM668.594 216H675.874V214H668.594V216ZM676.874 215V183.48H674.874V215H676.874ZM676.581 184.187C680.965 179.804 683.75 177.84 687.794 177.84V175.84C682.879 175.84 679.584 178.356 675.167 182.773L676.581 184.187ZM687.794 177.84C690.46 177.84 692.163 178.622 693.26 180.16C694.414 181.78 695.034 184.418 695.034 188.44H697.034C697.034 184.302 696.414 181.14 694.889 179C693.306 176.778 690.889 175.84 687.794 175.84V177.84ZM695.034 188.44V215H697.034V188.44H695.034ZM696.034 216H703.314V214H696.034V216ZM704.314 215V187.48H702.314V215H704.314ZM704.314 187.48C704.314 181.825 703.262 177.307 700.891 174.185C698.479 171.01 694.829 169.44 690.034 169.44V171.44C694.359 171.44 697.35 172.83 699.298 175.395C701.287 178.013 702.314 182.015 702.314 187.48H704.314ZM690.034 169.44C683.704 169.44 678.978 172.963 674.774 177.086L676.175 178.514C680.291 174.477 684.525 171.44 690.034 171.44V169.44ZM675.474 176.8H675.234V178.8H675.474V176.8ZM676.229 177.698L675.589 171.458L673.6 171.662L674.24 177.902L676.229 177.698ZM674.594 170.56H668.594V172.56H674.594V170.56ZM667.594 171.56V215H669.594V171.56H667.594Z" fill="black"/>
</g>
<path d="M380.579 29.8924L318.26 30.0235V110.086C318.26 115.35 322.248 119.617 327.166 119.617H371.697C376.616 119.617 380.604 115.35 380.604 110.086V29.9401L380.579 29.8924Z" fill="#95E7EE"/>
<path d="M380.604 110.086V29.9401L380.579 29.8924L318.26 30.0235V110.086H380.604Z" fill="#F6C90E"/>
<path d="M402.869 50.2773V91.0234C402.869 96.2871 398.881 100.555 393.963 100.555H380.604V91.0234H393.963V50.2773H380.604V40.7461H393.963C398.881 40.7461 402.869 45.0137 402.869 50.2773Z" fill="#95E7EE"/>
<path d="M384.823 19.47C386.517 27.5174 378.761 33.956 371.475 29.9901V50.1082C371.475 52.7388 369.482 54.8738 367.021 54.8738C364.561 54.8738 362.568 52.7388 362.568 50.1082V40.5769C362.568 37.2863 362.68 31.2148 352.771 31.2148C351.968 31.2148 351.2 31.5627 350.643 32.1799C348.619 34.4197 345.782 35.8113 342.641 35.8113C339.601 35.8113 336.847 34.5079 334.839 32.3943C334.12 31.639 333.151 31.2148 332.096 31.2148C331.247 31.2148 330.472 31.7319 330.101 32.5468C327.95 37.26 323.481 40.5293 318.26 40.5769V59.587C318.148 62.27 316.156 64.405 313.695 64.405C311.235 64.405 309.131 62.27 309.131 59.6394C309.131 56.521 309.131 34.3528 309.131 31.0457C309.131 19.7106 318.485 10.6869 329.339 12.1762C332.378 6.37879 338.194 2.38281 344.867 2.38281C350.144 2.38281 354.884 4.90621 358.146 8.80926C359.491 7.89902 361.085 7.38672 362.791 7.38672C366.676 7.38672 369.981 10.0483 371.196 13.7607C373.109 12.3882 375.547 11.7878 378.119 12.3787C381.387 13.1269 384.09 15.9815 384.823 19.47Z" fill="#EEEEEE"/>
<path d="M362.68 107.534C361.451 107.534 360.453 108.601 360.453 109.917C360.453 111.232 361.451 112.3 362.68 112.3C363.909 112.3 364.906 111.232 364.906 109.917C364.906 108.601 363.909 107.534 362.68 107.534Z" fill="black"/>
<path d="M331.396 47.7253C330.167 47.7253 329.17 48.7921 329.17 50.1082V95.6199C329.17 96.9359 330.167 98.0027 331.396 98.0027C332.626 98.0027 333.623 96.9359 333.623 95.6199V50.1082C333.623 48.7921 332.626 47.7253 331.396 47.7253Z" fill="black"/>
<path d="M349.209 47.7253C347.979 47.7253 346.982 48.7921 346.982 50.1082V95.6199C346.982 96.9359 347.979 98.0027 349.209 98.0027C350.439 98.0027 351.436 96.9359 351.436 95.6199V50.1082C351.436 48.7921 350.439 47.7253 349.209 47.7253Z" fill="black"/>
<path d="M327.166 122H371.697C377.836 122 382.83 116.655 382.83 110.086V102.938H393.963C400.102 102.938 405.096 97.5928 405.096 91.0234V50.2773C405.096 43.7079 400.102 38.3633 393.963 38.3633H382.83V31.1531C386.32 28.3531 387.979 23.6203 386.995 18.9474C386.075 14.5654 382.695 10.9893 378.586 10.0488C376.402 9.54721 374.201 9.72473 372.197 10.5404C370.187 7.14891 366.657 5.00391 362.791 5.00391C361.334 5.00391 359.91 5.30628 358.594 5.88817C354.867 2.12595 349.953 0 344.867 0C338.139 0 331.865 3.66786 328.161 9.66921C316.523 8.9801 306.904 18.8614 306.904 31.0457V59.6394C306.904 63.5811 309.951 66.7879 313.695 66.7879C314.517 66.7879 315.304 66.628 316.033 66.3368V110.086C316.033 116.655 321.027 122 327.166 122ZM371.697 117.234H327.166C324.263 117.234 321.788 115.242 320.869 112.469H353.776C355.005 112.469 356.002 111.402 356.002 110.086C356.002 108.77 355.005 107.703 353.776 107.703H320.486V59.587V42.7729C325.488 41.9649 329.819 38.5939 332.096 33.5979C332.56 33.5979 332.969 33.7699 333.278 34.0938C335.791 36.7382 339.116 38.1943 342.641 38.1943C346.294 38.1943 349.704 36.6467 352.245 33.835C352.381 33.6844 352.573 33.5979 352.771 33.5979C356.238 33.5979 358.506 34.3902 359.513 35.9524C360.343 37.2403 360.342 39.0298 360.342 40.4678V50.1084C360.342 53.2146 362.203 55.8634 364.795 56.847V95.6201C364.795 96.9361 365.792 98.0029 367.021 98.0029C368.251 98.0029 369.248 96.9361 369.248 95.6201V56.8468C371.84 55.8631 373.701 53.2146 373.701 50.1082V33.3179C375.261 33.651 376.853 33.6532 378.377 33.3196V107.703H371.584C370.354 107.703 369.357 108.77 369.357 110.086C369.357 111.402 370.354 112.445 371.584 112.445H377.994C377.075 115.218 374.6 117.234 371.697 117.234ZM382.83 52.6602H391.736V88.6406H382.83V52.6602ZM393.963 43.1289C397.646 43.1289 400.643 46.3357 400.643 50.2773V91.0234C400.643 94.9651 397.646 98.1719 393.963 98.1719H382.83V93.4062H393.963C395.193 93.4062 396.189 92.3395 396.189 91.0234V50.2773C396.189 48.9613 395.193 47.8945 393.963 47.8945H382.83V43.1289H393.963ZM313.695 62.0222C312.428 62.0222 311.357 60.9309 311.357 59.6394V31.0457C311.357 21.849 318.389 14.4012 327.034 14.4012C327.706 14.4012 328.381 14.447 329.056 14.5397C329.957 14.6634 330.837 14.1892 331.281 13.3421C334.054 8.052 339.26 4.76562 344.867 4.76562C349.26 4.76562 353.496 6.81842 356.487 10.3979C357.212 11.2657 358.417 11.4458 359.337 10.8232C360.355 10.1339 361.549 9.76953 362.791 9.76953C365.625 9.76953 368.159 11.6903 369.095 14.5487C369.323 15.2445 369.839 15.7885 370.493 16.0216C371.146 16.2546 371.864 16.1507 372.436 15.7399C373.954 14.651 375.806 14.2847 377.653 14.7089C380.058 15.2593 382.113 17.4319 382.651 19.9937C383.918 26.0136 378.152 30.9518 372.484 27.8663C371.794 27.4905 370.971 27.5255 370.31 27.959C369.65 28.3922 369.248 29.1613 369.248 29.9901V50.1082C369.248 51.422 368.249 52.491 367.021 52.491C365.794 52.491 364.795 51.422 364.795 50.1082V40.4692C364.795 38.5925 364.796 35.7562 363.178 33.2457C361.29 30.317 357.789 28.832 352.771 28.832C351.371 28.832 350.011 29.4489 349.042 30.5236C347.35 32.397 345.076 33.4285 342.641 33.4285C340.291 33.4285 338.075 32.458 336.398 30.6937C335.256 29.493 333.727 28.832 332.096 28.832C330.408 28.832 328.84 29.8798 328.1 31.5013C326.234 35.5911 322.456 38.1557 318.241 38.1943C317.018 38.2055 316.033 39.269 316.033 40.5772V59.5265C315.955 60.9297 314.935 62.0222 313.695 62.0222Z" fill="black"/>
<defs>
<filter id="filter0_d" x="0.640015" y="143.786" width="707.674" height="81.2545" filterUnits="userSpaceOnUse" color-interpolation-filters="sRGB">
<feFlood flood-opacity="0" result="BackgroundImageFix"/>
<feColorMatrix in="SourceAlpha" type="matrix" values="0 0 0 0 0 0 0 0 0 0 0 0 0 0 0 0 0 0 127 0"/>
<feOffset dy="4"/>
<feGaussianBlur stdDeviation="2"/>
<feColorMatrix type="matrix" values="0 0 0 0 0 0 0 0 0 0 0 0 0 0 0 0 0 0 0.25 0"/>
<feBlend mode="normal" in2="BackgroundImageFix" result="effect1_dropShadow"/>
<feBlend mode="normal" in="SourceGraphic" in2="effect1_dropShadow" result="shape"/>
</filter>
</defs>
</svg>
