<svg width="122" height="122" viewBox="0 0 122 122" fill="none" xmlns="http://www.w3.org/2000/svg">
<path d="M87.3039 29.8924L20.6113 30.0235V110.086C20.6113 115.35 24.8789 119.617 30.1426 119.617H77.7988C83.0625 119.617 87.3301 115.35 87.3301 110.086V29.9401L87.3039 29.8924Z" fill="#95E7EE"/>
<path d="M87.3301 110.086V29.9401L87.3039 29.8924L20.6113 30.0235V110.086H87.3301Z" fill="#F6C90E"/>
<path d="M111.158 50.2773V91.0234C111.158 96.2871 106.891 100.555 101.627 100.555H87.3301V91.0234H101.627V50.2773H87.3301V40.7461H101.627C106.891 40.7461 111.158 45.0137 111.158 50.2773Z" fill="#95E7EE"/>
<path d="M91.8455 19.47C93.6588 27.5174 85.3578 33.956 77.5605 29.9901V50.1082C77.5605 52.7388 75.4279 54.8738 72.7949 54.8738C70.1619 54.8738 68.0293 52.7388 68.0293 50.1082V40.5769C68.0293 37.2863 68.1484 31.2148 57.5449 31.2148C56.6847 31.2148 55.8627 31.5627 55.267 32.1799C53.101 34.4197 50.0653 35.8113 46.7031 35.8113C43.4506 35.8113 40.503 34.5079 38.3538 32.3943C37.5841 31.639 36.5476 31.2148 35.4181 31.2148C34.5103 31.2148 33.6811 31.7319 33.2831 32.5468C30.9813 37.26 26.199 40.5293 20.6113 40.5769V59.587C20.4922 62.27 18.3596 64.405 15.7266 64.405C13.0936 64.405 10.8418 62.27 10.8418 59.6394C10.8418 56.521 10.8418 34.3528 10.8418 31.0457C10.8418 19.7106 20.852 10.6869 32.4682 12.1762C35.7207 6.37879 41.9446 2.38281 49.0859 2.38281C54.7332 2.38281 59.8062 4.90621 63.297 8.80926C64.7363 7.89902 66.4423 7.38672 68.2676 7.38672C72.4256 7.38672 75.9617 10.0483 77.2627 13.7607C79.3095 12.3882 81.9187 11.7878 84.6709 12.3787C88.1688 13.1269 91.0616 15.9815 91.8455 19.47Z" fill="#EEEEEE"/>
<path d="M68.1484 107.534C66.8331 107.534 65.7656 108.601 65.7656 109.917C65.7656 111.232 66.8331 112.3 68.1484 112.3C69.4637 112.3 70.5312 111.232 70.5312 109.917C70.5312 108.601 69.4637 107.534 68.1484 107.534Z" fill="black"/>
<path d="M34.6699 47.7253C33.3539 47.7253 32.2871 48.7921 32.2871 50.1082V95.6199C32.2871 96.9359 33.3539 98.0027 34.6699 98.0027C35.9859 98.0027 37.0527 96.9359 37.0527 95.6199V50.1082C37.0527 48.7921 35.9859 47.7253 34.6699 47.7253Z" fill="black"/>
<path d="M53.7324 47.7253C52.4164 47.7253 51.3496 48.7921 51.3496 50.1082V95.6199C51.3496 96.9359 52.4164 98.0027 53.7324 98.0027C55.0484 98.0027 56.1152 96.9359 56.1152 95.6199V50.1082C56.1152 48.7921 55.0484 47.7253 53.7324 47.7253Z" fill="black"/>
<path d="M30.1426 122H77.7988C84.3682 122 89.7129 116.655 89.7129 110.086V102.938H101.627C108.196 102.938 113.541 97.5928 113.541 91.0234V50.2773C113.541 43.7079 108.196 38.3633 101.627 38.3633H89.7129V31.1531C93.4479 28.3531 95.2231 23.6203 94.1704 18.9474C93.1856 14.5654 89.5685 10.9893 85.171 10.0488C82.8332 9.54721 80.4788 9.72473 78.3335 10.5404C76.1823 7.14891 72.4046 5.00391 68.2676 5.00391C66.7083 5.00391 65.1845 5.30628 63.7755 5.88817C59.7871 2.12595 54.529 0 49.0859 0C41.886 0 35.1713 3.66786 31.2077 9.66921C18.7527 8.9801 8.45898 18.8614 8.45898 31.0457V59.6394C8.45898 63.5811 11.7191 66.7879 15.7266 66.7879C16.6056 66.7879 17.4479 66.628 18.2285 66.3368V110.086C18.2285 116.655 23.5732 122 30.1426 122ZM77.7988 117.234H30.1426C27.0363 117.234 24.3876 115.242 23.404 112.469H58.6196C59.9356 112.469 61.0024 111.402 61.0024 110.086C61.0024 108.77 59.9356 107.703 58.6196 107.703H22.9941V59.587V42.7729C28.3467 41.9649 32.9815 38.5939 35.4181 33.5979C35.9152 33.5979 36.3531 33.7699 36.6832 34.0938C39.3724 36.7382 42.9309 38.1943 46.7031 38.1943C50.6128 38.1943 54.2626 36.6467 56.9814 33.835C57.1267 33.6844 57.3324 33.5979 57.5449 33.5979C61.2542 33.5979 63.6814 34.3902 64.7594 35.9524C65.6479 37.2403 65.6472 39.0298 65.6465 40.4678V50.1084C65.6465 53.2146 67.6388 55.8634 70.4121 56.847V95.6201C70.4121 96.9361 71.4789 98.0029 72.7949 98.0029C74.1109 98.0029 75.1777 96.9361 75.1777 95.6201V56.8468C77.9511 55.8631 79.9434 53.2146 79.9434 50.1082V33.3179C81.6125 33.651 83.316 33.6532 84.9473 33.3196V107.703H77.6773C76.3613 107.703 75.2945 108.77 75.2945 110.086C75.2945 111.402 76.3613 112.445 77.6773 112.445H84.5374C83.5538 115.218 80.9051 117.234 77.7988 117.234ZM89.7129 52.6602H99.2441V88.6406H89.7129V52.6602ZM101.627 43.1289C105.569 43.1289 108.775 46.3357 108.775 50.2773V91.0234C108.775 94.9651 105.569 98.1719 101.627 98.1719H89.7129V93.4062H101.627C102.943 93.4062 104.01 92.3395 104.01 91.0234V50.2773C104.01 48.9613 102.943 47.8945 101.627 47.8945H89.7129V43.1289H101.627ZM15.7266 62.0222C14.3705 62.0222 13.2246 60.9309 13.2246 59.6394V31.0457C13.2246 21.849 20.75 14.4012 30.0013 14.4012C30.7202 14.4012 31.4429 14.447 32.1651 14.5397C33.129 14.6634 34.0709 14.1892 34.5463 13.3421C37.5143 8.052 43.0855 4.76562 49.0859 4.76562C53.7872 4.76562 58.3198 6.81842 61.5211 10.3979C62.297 11.2657 63.5865 11.4458 64.5709 10.8232C65.6605 10.1339 66.9389 9.76953 68.2676 9.76953C71.3009 9.76953 74.0121 11.6903 75.014 14.5487C75.2578 15.2445 75.8101 15.7885 76.5097 16.0216C77.2091 16.2546 77.9773 16.1507 78.5897 15.7399C80.2138 14.651 82.1958 14.2847 84.1724 14.7089C86.7458 15.2593 88.9452 17.4319 89.5208 19.9937C90.8771 26.0136 84.7064 30.9518 78.6407 27.8663C77.902 27.4905 77.0213 27.5255 76.3146 27.959C75.6081 28.3922 75.1775 29.1613 75.1775 29.9901V50.1082C75.1775 51.422 74.1086 52.491 72.7947 52.491C71.4808 52.491 70.4119 51.422 70.4119 50.1082V40.4692C70.4126 38.5925 70.4138 35.7562 68.6817 33.2457C66.6613 30.317 62.9143 28.832 57.5449 28.832C56.0461 28.832 54.5912 29.4489 53.554 30.5236C51.7425 32.397 49.3094 33.4285 46.7031 33.4285C44.1885 33.4285 41.8167 32.458 40.0229 30.6937C38.7998 29.493 37.1645 28.832 35.4181 28.832C33.6122 28.832 31.9337 29.8798 31.1419 31.5013C29.1447 35.5911 25.1015 38.1557 20.5908 38.1943C19.2829 38.2055 18.2283 39.269 18.2283 40.5772V59.5265C18.1444 60.9297 17.0533 62.0222 15.7266 62.0222Z" fill="black"/>
</svg>
