<?xml version="1.0" standalone="no"?>
<!DOCTYPE svg PUBLIC "-//W3C//DTD SVG 20010904//EN"
 "http://www.w3.org/TR/2001/REC-SVG-20010904/DTD/svg10.dtd">
<svg version="1.0" xmlns="http://www.w3.org/2000/svg"
 width="260.000000pt" height="260.000000pt" viewBox="0 0 260.000000 260.000000"
 preserveAspectRatio="xMidYMid meet">
<metadata>
Created by potrace 1.11, written by Peter Selinger 2001-2013
</metadata>
<g transform="translate(0.000000,260.000000) scale(0.100000,-0.100000)"
fill="#000000" stroke="none">
<path d="M931 2584 c-30 -8 -76 -26 -102 -41 -50 -27 -142 -108 -150 -132 -3
-8 -26 -15 -59 -17 -217 -18 -385 -160 -429 -362 -7 -34 -11 -177 -11 -393 0
-316 1 -342 19 -378 11 -20 26 -43 35 -50 25 -21 99 -39 128 -30 l28 7 0 -494
0 -495 26 -54 c14 -30 42 -68 62 -85 74 -61 72 -61 693 -58 l564 3 48 29 c53
31 112 110 122 161 4 17 7 71 8 120 l2 90 150 1 c133 1 156 4 203 24 31 14 67
39 88 64 64 74 65 88 62 623 l-3 479 -26 49 c-29 58 -92 110 -152 126 -23 6
-106 11 -183 11 l-142 0 1 80 c0 56 4 81 13 85 17 6 73 94 80 124 10 48 5 125
-11 162 -24 57 -79 112 -137 137 -44 19 -64 22 -120 17 -66 -6 -67 -5 -105 30
-67 64 -144 86 -238 69 -34 -6 -45 -3 -65 14 -93 81 -272 119 -399 84z m1179
-1112 c3 -1 5 -172 5 -379 l0 -378 -101 -3 -101 -3 -1 378 c0 208 2 381 4 384
3 5 178 6 194 1z"/>
</g>
</svg>
